<svg width="400" height="400" viewBox="0 0 400 400" fill="none" xmlns="http://www.w3.org/2000/svg">
<g clip-path="url(#clip0_2_17)">
<path d="M199.745 185.749C196.768 187.191 193.818 189.188 191.081 191.928C177.365 205.647 164.896 218.116 164.896 218.116L164.902 218.124C164.827 218.198 164.752 218.26 164.677 218.337C161.127 221.89 160.986 227.554 164.265 231.271C164.395 231.42 164.534 231.567 164.677 231.707C168.363 235.399 174.348 235.407 178.048 231.707L192.451 217.305C194.936 218.215 197.379 218.746 199.723 219.012C202.916 219.366 205.916 219.233 208.583 218.857C215.086 217.936 214.405 218.204 218.177 216.964C221.94 215.73 226.168 213.201 226.168 213.201L228.728 215.758C229.01 216.032 235.535 222.567 238.864 225.891C239.453 226.483 239.954 226.97 240.289 227.319C240.673 227.72 241.102 228.01 241.368 228.398L257.976 245.006C262.763 239.635 268.231 231.635 267.555 222.452L226.057 180.959C226.057 180.959 211.693 179.932 199.745 185.749Z" fill="#816797"/>
<path d="M202.058 287.669C198.383 283.989 192.417 283.989 188.74 287.669L186.006 290.403C189.675 286.728 189.673 280.776 185.998 277.099C182.321 273.427 176.363 273.427 172.686 277.102C176.363 273.427 176.363 267.469 172.686 263.789C169.011 260.109 163.051 260.115 159.373 263.789C163.051 260.115 163.051 254.154 159.373 250.474C155.698 246.799 149.738 246.799 146.061 250.479L137.829 258.708C134.151 262.389 134.151 268.343 137.829 272.024C141.503 275.699 147.461 275.699 151.138 272.024C147.461 275.699 147.461 281.658 151.138 285.336C154.818 289.011 160.776 289.011 164.453 285.336C160.776 289.011 160.776 294.968 164.453 298.649C168.131 302.323 174.088 302.323 177.766 298.649L180.503 295.909C176.834 299.589 176.836 305.541 180.511 309.219C184.188 312.893 190.146 312.893 193.824 309.219L202.058 300.984C205.733 297.301 205.733 291.344 202.058 287.669Z" fill="#816797"/>
<path d="M301.385 200.73L252.926 152.264C250.773 150.117 247.292 150.117 245.145 152.264L229.602 167.807C227.454 169.954 227.454 173.435 229.602 175.585L278.067 224.048C280.212 226.201 283.698 226.201 285.843 224.048L301.385 208.502C303.538 206.361 303.538 202.88 301.385 200.73ZM287.572 211.477C285.259 213.785 281.518 213.785 279.213 211.477C276.905 209.167 276.905 205.426 279.213 203.118C281.518 200.81 285.259 200.81 287.572 203.118C289.88 205.426 289.877 209.167 287.572 211.477Z" fill="#816797"/>
<path d="M170.394 169.18L154.854 153.637C152.707 151.49 149.223 151.49 147.076 153.637L98.6106 202.102C96.4633 204.244 96.4633 207.731 98.6106 209.875L114.154 225.423C116.298 227.568 119.787 227.568 121.929 225.423L170.394 176.958C172.544 174.81 172.544 171.329 170.394 169.18ZM120.786 212.85C118.478 215.155 114.735 215.155 112.426 212.85C110.119 210.539 110.119 206.798 112.426 204.49C114.734 202.183 118.478 202.183 120.786 204.49C123.094 206.798 123.094 210.539 120.786 212.85Z" fill="#816797"/>
<path d="M256.943 254.857L253.938 251.846L224.765 222.673L222.8 223.544L220.661 224.316L220.507 224.364C220.13 224.483 216.61 225.559 209.671 226.541C206.001 227.053 202.366 227.117 198.846 226.716C197.454 226.561 196.071 226.333 194.704 226.035L183.536 237.197C176.825 243.908 165.899 243.908 159.188 237.197C158.953 236.96 158.726 236.719 158.516 236.481L158.444 236.4C154.208 231.597 153.131 225.022 155.124 219.317L159.418 212.634L159.41 212.626L185.595 186.444C186.66 185.381 187.778 184.391 188.94 183.455C180.78 181.853 173.934 182.326 173.934 182.326L132.444 223.824C131.885 231.464 137.131 239.837 140.864 244.727C147.58 238.304 158.261 238.387 164.86 244.99C167.317 247.444 168.864 250.468 169.517 253.639C172.693 254.298 175.715 255.842 178.172 258.299C180.63 260.759 182.177 263.784 182.83 266.957C186.003 267.61 189.031 269.154 191.485 271.612C193.126 273.252 194.363 275.145 195.196 277.171C199.662 277.116 204.145 278.787 207.543 282.182C214.242 288.875 214.239 299.778 207.543 306.469L204.803 309.213L206.176 310.586C209.856 314.266 215.813 314.266 219.491 310.586C223.169 306.911 223.169 300.951 219.491 297.273L222.23 300.021C225.911 303.696 231.865 303.696 235.543 300.021C239.22 296.341 239.223 290.384 235.543 286.703C239.223 290.384 245.178 290.384 248.855 286.703C252.53 283.032 252.538 277.071 248.855 273.391C252.538 277.071 258.493 277.071 262.168 273.391C265.848 269.717 265.848 263.756 262.168 260.081L256.943 254.857Z" fill="#816797"/>
</g>
<path d="M87.3104 110.478H82.5163C82.4524 109.986 82.3214 109.542 82.1232 109.145C81.9251 108.749 81.663 108.41 81.337 108.129C81.011 107.848 80.6243 107.634 80.1768 107.487C79.7358 107.333 79.2468 107.256 78.7099 107.256C77.7575 107.256 76.9361 107.49 76.2457 107.956C75.5618 108.423 75.0344 109.097 74.6637 109.979C74.2994 110.862 74.1172 111.929 74.1172 113.182C74.1172 114.486 74.3026 115.579 74.6733 116.461C75.0504 117.337 75.5778 117.998 76.2553 118.446C76.9393 118.887 77.7479 119.107 78.6811 119.107C79.2053 119.107 79.6815 119.04 80.1097 118.906C80.5444 118.772 80.9247 118.577 81.2507 118.321C81.5831 118.059 81.8548 117.743 82.0657 117.372C82.283 116.995 82.4332 116.57 82.5163 116.097L87.3104 116.125C87.2273 116.995 86.9748 117.851 86.5529 118.695C86.1374 119.539 85.5653 120.309 84.8366 121.006C84.108 121.696 83.2195 122.246 82.1712 122.655C81.1293 123.064 79.9339 123.268 78.5852 123.268C76.8082 123.268 75.2166 122.879 73.8104 122.099C72.4105 121.312 71.3047 120.168 70.4929 118.666C69.6811 117.164 69.2752 115.336 69.2752 113.182C69.2752 111.021 69.6875 109.19 70.5121 107.688C71.3366 106.186 72.4521 105.045 73.8583 104.265C75.2646 103.485 76.8402 103.095 78.5852 103.095C79.7741 103.095 80.8736 103.261 81.8835 103.594C82.8935 103.92 83.782 104.399 84.549 105.032C85.3161 105.658 85.9393 106.429 86.4187 107.343C86.8981 108.257 87.1953 109.302 87.3104 110.478ZM96.9008 123.278C95.354 123.278 94.0244 122.962 92.9122 122.329C91.8064 121.69 90.953 120.801 90.3522 119.663C89.7577 118.519 89.4605 117.193 89.4605 115.684C89.4605 114.169 89.7577 112.843 90.3522 111.705C90.953 110.561 91.8064 109.673 92.9122 109.04C94.0244 108.401 95.354 108.081 96.9008 108.081C98.4477 108.081 99.7741 108.401 100.88 109.04C101.992 109.673 102.845 110.561 103.44 111.705C104.041 112.843 104.341 114.169 104.341 115.684C104.341 117.193 104.041 118.519 103.44 119.663C102.845 120.801 101.992 121.69 100.88 122.329C99.7741 122.962 98.4477 123.278 96.9008 123.278ZM96.9296 119.74C97.4921 119.74 97.9683 119.567 98.3582 119.222C98.7481 118.877 99.0454 118.398 99.2499 117.784C99.4608 117.17 99.5663 116.461 99.5663 115.656C99.5663 114.837 99.4608 114.121 99.2499 113.508C99.0454 112.894 98.7481 112.415 98.3582 112.07C97.9683 111.724 97.4921 111.552 96.9296 111.552C96.3479 111.552 95.8557 111.724 95.453 112.07C95.0567 112.415 94.7531 112.894 94.5422 113.508C94.3376 114.121 94.2354 114.837 94.2354 115.656C94.2354 116.461 94.3376 117.17 94.5422 117.784C94.7531 118.398 95.0567 118.877 95.453 119.222C95.8557 119.567 96.3479 119.74 96.9296 119.74ZM106.743 123V108.273H111.201V110.977H111.364C111.671 110.082 112.189 109.375 112.918 108.858C113.646 108.34 114.516 108.081 115.526 108.081C116.548 108.081 117.424 108.343 118.153 108.867C118.881 109.391 119.345 110.094 119.543 110.977H119.696C119.971 110.101 120.508 109.401 121.307 108.877C122.106 108.346 123.049 108.081 124.136 108.081C125.529 108.081 126.661 108.528 127.53 109.423C128.399 110.312 128.834 111.533 128.834 113.086V123H124.145V114.16C124.145 113.425 123.957 112.865 123.58 112.482C123.203 112.092 122.714 111.897 122.113 111.897C121.467 111.897 120.959 112.108 120.588 112.53C120.224 112.945 120.042 113.505 120.042 114.208V123H115.535V114.112C115.535 113.428 115.35 112.888 114.979 112.491C114.608 112.095 114.119 111.897 113.512 111.897C113.103 111.897 112.742 111.996 112.429 112.194C112.116 112.386 111.869 112.661 111.69 113.019C111.518 113.377 111.432 113.799 111.432 114.284V123H106.743ZM131.739 123V108.273H136.198V110.977H136.361C136.667 110.082 137.185 109.375 137.914 108.858C138.642 108.34 139.512 108.081 140.522 108.081C141.544 108.081 142.42 108.343 143.149 108.867C143.878 109.391 144.341 110.094 144.539 110.977H144.693C144.967 110.101 145.504 109.401 146.303 108.877C147.102 108.346 148.045 108.081 149.132 108.081C150.525 108.081 151.657 108.528 152.526 109.423C153.395 110.312 153.83 111.533 153.83 113.086V123H149.141V114.16C149.141 113.425 148.953 112.865 148.576 112.482C148.199 112.092 147.71 111.897 147.109 111.897C146.463 111.897 145.955 112.108 145.584 112.53C145.22 112.945 145.038 113.505 145.038 114.208V123H140.531V114.112C140.531 113.428 140.346 112.888 139.975 112.491C139.604 112.095 139.116 111.897 138.508 111.897C138.099 111.897 137.738 111.996 137.425 112.194C137.112 112.386 136.866 112.661 136.687 113.019C136.514 113.377 136.428 113.799 136.428 114.284V123H131.739ZM166.237 116.643V108.273H170.916V123H166.448V120.258H166.294C165.968 121.159 165.412 121.875 164.626 122.406C163.846 122.93 162.903 123.192 161.798 123.192C160.794 123.192 159.912 122.962 159.151 122.501C158.391 122.041 157.799 121.399 157.378 120.574C156.956 119.743 156.742 118.772 156.735 117.659V108.273H161.424V116.739C161.43 117.538 161.641 118.168 162.057 118.628C162.472 119.088 163.038 119.318 163.754 119.318C164.22 119.318 164.639 119.216 165.01 119.011C165.387 118.8 165.684 118.497 165.901 118.1C166.125 117.698 166.237 117.212 166.237 116.643ZM178.589 114.601V123H173.9V108.273H178.359V110.977H178.522C178.848 110.075 179.404 109.369 180.19 108.858C180.976 108.34 181.913 108.081 182.999 108.081C184.035 108.081 184.933 108.314 185.694 108.781C186.461 109.241 187.055 109.887 187.477 110.718C187.905 111.542 188.116 112.507 188.11 113.613V123H183.421V114.534C183.428 113.716 183.22 113.076 182.798 112.616C182.382 112.156 181.804 111.926 181.062 111.926C180.57 111.926 180.136 112.034 179.759 112.252C179.388 112.463 179.1 112.766 178.896 113.163C178.697 113.559 178.595 114.038 178.589 114.601ZM191.013 123V108.273H195.701V123H191.013ZM193.362 106.556C192.703 106.556 192.138 106.339 191.665 105.904C191.191 105.463 190.955 104.933 190.955 104.313C190.955 103.699 191.191 103.175 191.665 102.74C192.138 102.299 192.703 102.079 193.362 102.079C194.026 102.079 194.592 102.299 195.059 102.74C195.532 103.175 195.768 103.699 195.768 104.313C195.768 104.933 195.532 105.463 195.059 105.904C194.592 106.339 194.026 106.556 193.362 106.556ZM206.998 108.273V111.724H197.707V108.273H206.998ZM199.654 104.744H204.342V118.369C204.342 118.657 204.387 118.89 204.477 119.069C204.572 119.241 204.71 119.366 204.889 119.443C205.068 119.513 205.282 119.548 205.531 119.548C205.71 119.548 205.899 119.532 206.097 119.5C206.301 119.462 206.455 119.43 206.557 119.404L207.267 122.789C207.043 122.853 206.727 122.933 206.317 123.029C205.915 123.125 205.432 123.185 204.87 123.211C203.77 123.262 202.827 123.134 202.041 122.827C201.261 122.514 200.664 122.028 200.248 121.37C199.839 120.712 199.641 119.884 199.654 118.887V104.744ZM212.257 128.523C211.695 128.523 211.164 128.478 210.666 128.388C210.167 128.305 209.739 128.194 209.381 128.053L210.416 124.649C210.877 124.803 211.292 124.892 211.663 124.918C212.04 124.943 212.363 124.882 212.631 124.735C212.906 124.595 213.117 124.342 213.264 123.978L213.446 123.537L208.211 108.273H213.12L215.834 118.781H215.987L218.739 108.273H223.677L218.125 124.409C217.857 125.215 217.476 125.924 216.984 126.538C216.498 127.158 215.869 127.644 215.095 127.995C214.328 128.347 213.382 128.523 212.257 128.523ZM241.889 109.251C241.825 108.548 241.541 108.001 241.036 107.611C240.537 107.215 239.825 107.017 238.898 107.017C238.284 107.017 237.773 107.097 237.364 107.256C236.955 107.416 236.648 107.637 236.443 107.918C236.239 108.193 236.133 108.509 236.127 108.867C236.114 109.161 236.172 109.42 236.299 109.644C236.434 109.868 236.625 110.066 236.875 110.238C237.13 110.404 237.437 110.551 237.795 110.679C238.153 110.807 238.556 110.919 239.003 111.015L240.691 111.398C241.662 111.609 242.519 111.891 243.26 112.242C244.008 112.594 244.635 113.012 245.14 113.498C245.651 113.984 246.038 114.543 246.3 115.176C246.562 115.809 246.696 116.518 246.702 117.305C246.696 118.545 246.383 119.609 245.763 120.498C245.143 121.386 244.251 122.067 243.088 122.54C241.931 123.013 240.534 123.249 238.898 123.249C237.255 123.249 235.823 123.003 234.602 122.511C233.381 122.019 232.432 121.271 231.755 120.267C231.077 119.264 230.729 117.995 230.71 116.461H235.254C235.293 117.094 235.462 117.621 235.762 118.043C236.063 118.465 236.475 118.784 236.999 119.002C237.53 119.219 238.143 119.328 238.84 119.328C239.479 119.328 240.023 119.241 240.47 119.069C240.924 118.896 241.272 118.657 241.515 118.35C241.758 118.043 241.883 117.691 241.889 117.295C241.883 116.924 241.768 116.608 241.544 116.346C241.32 116.077 240.975 115.847 240.509 115.656C240.048 115.457 239.46 115.275 238.744 115.109L236.692 114.63C234.992 114.24 233.653 113.61 232.675 112.741C231.697 111.865 231.211 110.683 231.218 109.193C231.211 107.979 231.537 106.914 232.196 106C232.854 105.086 233.765 104.374 234.928 103.862C236.092 103.351 237.418 103.095 238.907 103.095C240.429 103.095 241.749 103.354 242.867 103.872C243.992 104.383 244.865 105.102 245.485 106.029C246.105 106.956 246.421 108.03 246.434 109.251H241.889ZM258.601 116.643V108.273H263.28V123H258.812V120.258H258.659C258.333 121.159 257.777 121.875 256.99 122.406C256.211 122.93 255.268 123.192 254.162 123.192C253.158 123.192 252.276 122.962 251.516 122.501C250.755 122.041 250.164 121.399 249.742 120.574C249.32 119.743 249.106 118.772 249.099 117.659V108.273H253.788V116.739C253.794 117.538 254.005 118.168 254.421 118.628C254.836 119.088 255.402 119.318 256.118 119.318C256.585 119.318 257.003 119.216 257.374 119.011C257.751 118.8 258.048 118.497 258.266 118.1C258.489 117.698 258.601 117.212 258.601 116.643ZM266.264 128.523V108.273H270.905V110.794H271.049C271.241 110.347 271.512 109.915 271.864 109.5C272.222 109.085 272.676 108.746 273.225 108.484C273.782 108.215 274.446 108.081 275.22 108.081C276.242 108.081 277.198 108.349 278.087 108.886C278.981 109.423 279.704 110.251 280.253 111.37C280.803 112.488 281.078 113.914 281.078 115.646C281.078 117.314 280.813 118.711 280.282 119.836C279.758 120.961 279.049 121.805 278.154 122.367C277.265 122.93 276.278 123.211 275.191 123.211C274.449 123.211 273.807 123.089 273.264 122.847C272.72 122.604 272.263 122.284 271.893 121.888C271.528 121.491 271.247 121.066 271.049 120.613H270.953V128.523H266.264ZM270.857 115.636C270.857 116.429 270.963 117.119 271.174 117.707C271.391 118.295 271.701 118.752 272.104 119.078C272.513 119.398 273.002 119.558 273.571 119.558C274.146 119.558 274.635 119.398 275.038 119.078C275.44 118.752 275.744 118.295 275.948 117.707C276.159 117.119 276.265 116.429 276.265 115.636C276.265 114.844 276.159 114.157 275.948 113.575C275.744 112.993 275.44 112.543 275.038 112.223C274.641 111.903 274.152 111.744 273.571 111.744C272.995 111.744 272.506 111.9 272.104 112.213C271.701 112.527 271.391 112.974 271.174 113.556C270.963 114.137 270.857 114.831 270.857 115.636ZM283.535 128.523V108.273H288.176V110.794H288.319C288.511 110.347 288.783 109.915 289.134 109.5C289.492 109.085 289.946 108.746 290.496 108.484C291.052 108.215 291.717 108.081 292.49 108.081C293.513 108.081 294.469 108.349 295.357 108.886C296.252 109.423 296.974 110.251 297.524 111.37C298.074 112.488 298.349 113.914 298.349 115.646C298.349 117.314 298.083 118.711 297.553 119.836C297.029 120.961 296.319 121.805 295.424 122.367C294.536 122.93 293.548 123.211 292.461 123.211C291.72 123.211 291.078 123.089 290.534 122.847C289.991 122.604 289.534 122.284 289.163 121.888C288.799 121.491 288.518 121.066 288.319 120.613H288.224V128.523H283.535ZM288.128 115.636C288.128 116.429 288.233 117.119 288.444 117.707C288.661 118.295 288.971 118.752 289.374 119.078C289.783 119.398 290.272 119.558 290.841 119.558C291.416 119.558 291.905 119.398 292.308 119.078C292.711 118.752 293.014 118.295 293.219 117.707C293.43 117.119 293.535 116.429 293.535 115.636C293.535 114.844 293.43 114.157 293.219 113.575C293.014 112.993 292.711 112.543 292.308 112.223C291.912 111.903 291.423 111.744 290.841 111.744C290.266 111.744 289.777 111.9 289.374 112.213C288.971 112.527 288.661 112.974 288.444 113.556C288.233 114.137 288.128 114.831 288.128 115.636ZM307.68 123.278C306.133 123.278 304.804 122.962 303.691 122.329C302.586 121.69 301.732 120.801 301.131 119.663C300.537 118.519 300.24 117.193 300.24 115.684C300.24 114.169 300.537 112.843 301.131 111.705C301.732 110.561 302.586 109.673 303.691 109.04C304.804 108.401 306.133 108.081 307.68 108.081C309.227 108.081 310.553 108.401 311.659 109.04C312.771 109.673 313.625 110.561 314.219 111.705C314.82 112.843 315.12 114.169 315.12 115.684C315.12 117.193 314.82 118.519 314.219 119.663C313.625 120.801 312.771 121.69 311.659 122.329C310.553 122.962 309.227 123.278 307.68 123.278ZM307.709 119.74C308.271 119.74 308.748 119.567 309.138 119.222C309.527 118.877 309.825 118.398 310.029 117.784C310.24 117.17 310.346 116.461 310.346 115.656C310.346 114.837 310.24 114.121 310.029 113.508C309.825 112.894 309.527 112.415 309.138 112.07C308.748 111.724 308.271 111.552 307.709 111.552C307.127 111.552 306.635 111.724 306.232 112.07C305.836 112.415 305.532 112.894 305.321 113.508C305.117 114.121 305.015 114.837 305.015 115.656C305.015 116.461 305.117 117.17 305.321 117.784C305.532 118.398 305.836 118.877 306.232 119.222C306.635 119.567 307.127 119.74 307.709 119.74ZM317.522 123V108.273H322.077V110.957H322.23C322.498 109.986 322.936 109.263 323.544 108.79C324.151 108.311 324.857 108.071 325.663 108.071C325.88 108.071 326.104 108.087 326.334 108.119C326.564 108.145 326.778 108.186 326.976 108.244V112.319C326.752 112.242 326.458 112.181 326.094 112.137C325.736 112.092 325.416 112.07 325.135 112.07C324.579 112.07 324.077 112.194 323.63 112.444C323.189 112.686 322.84 113.028 322.585 113.469C322.335 113.904 322.211 114.415 322.211 115.004V123H317.522ZM337.885 108.273V111.724H328.594V108.273H337.885ZM330.54 104.744H335.229V118.369C335.229 118.657 335.274 118.89 335.363 119.069C335.459 119.241 335.597 119.366 335.776 119.443C335.955 119.513 336.169 119.548 336.418 119.548C336.597 119.548 336.786 119.532 336.984 119.5C337.188 119.462 337.342 119.43 337.444 119.404L338.153 122.789C337.93 122.853 337.613 122.933 337.204 123.029C336.801 123.125 336.319 123.185 335.756 123.211C334.657 123.262 333.714 123.134 332.928 122.827C332.148 122.514 331.55 122.028 331.135 121.37C330.726 120.712 330.528 119.884 330.54 118.887V104.744Z" fill="white"/>
<defs>
<clipPath id="clip0_2_17">
<rect width="206" height="206" fill="white" transform="translate(97 129)"/>
</clipPath>
</defs>
</svg>
