<svg width="400" height="400" viewBox="0 0 400 400" fill="none" xmlns="http://www.w3.org/2000/svg">
<g clip-path="url(#clip0_1_27)">
<path d="M144.332 291.873H95.6639L101.732 261.478L138.254 261.469L144.332 291.873Z" fill="#51557E"/>
<path d="M193 264.499C193 266.183 191.636 267.538 189.957 267.538H50.0387C48.3634 267.537 47 266.183 47 264.499V167.165C47 165.485 48.3634 164.127 50.0387 164.127H189.957C191.636 164.127 193 165.485 193 167.165V264.499Z" fill="#816797"/>
<path d="M144.332 291.873H95.6639C93.9885 291.873 92.6252 290.51 92.6252 288.835C92.6252 287.151 93.9885 285.787 95.6639 285.787H144.332C146.012 285.787 147.375 287.15 147.375 288.835C147.375 290.511 146.012 291.873 144.332 291.873Z" fill="#816797"/>
<path d="M189.957 164.127H50.0387C48.3634 164.127 47 165.485 47 167.165V249.288H193V167.165C193 165.485 191.636 164.127 189.957 164.127Z" fill="white"/>
<path d="M123.039 258.412C123.039 260.097 121.68 261.46 120 261.46C118.32 261.46 116.957 260.097 116.957 258.412C116.957 256.737 118.32 255.374 120 255.374C121.68 255.374 123.039 256.737 123.039 258.412Z" fill="#434A54"/>
<path d="M153.457 176.29H62.2072C60.5272 176.29 59.1641 177.653 59.1641 179.333C59.1641 181.013 60.5275 182.376 62.2072 182.376H153.457C155.137 182.376 156.5 181.013 156.5 179.333C156.5 177.653 155.136 176.29 153.457 176.29Z" fill="#D6D5A8"/>
<path d="M62.2072 194.54H110.875C112.555 194.54 113.914 193.181 113.914 191.501C113.914 189.817 112.555 188.458 110.875 188.458H62.2072C60.5272 188.458 59.1641 189.817 59.1641 191.501C59.1638 193.181 60.5272 194.54 62.2072 194.54Z" fill="#AC92EB"/>
<path d="M62.2072 206.708H129.125C130.805 206.708 132.164 205.344 132.164 203.665C132.164 201.985 130.805 200.626 129.125 200.626H62.2072C60.5272 200.626 59.1641 201.985 59.1641 203.665C59.1638 205.344 60.5272 206.708 62.2072 206.708Z" fill="#1B2430"/>
<path d="M62.2072 218.872L104.789 218.876C106.473 218.876 107.832 217.513 107.832 215.833C107.832 214.154 106.473 212.79 104.789 212.79H62.2072C60.5272 212.79 59.1641 214.154 59.1641 215.833C59.1638 217.513 60.5272 218.872 62.2072 218.872Z" fill="#816797"/>
<path d="M141.289 224.958H62.2072C60.5272 224.958 59.1641 226.321 59.1641 227.996C59.1641 229.681 60.5275 231.04 62.2072 231.04H141.289C142.973 231.04 144.332 229.681 144.332 228.001C144.332 226.322 142.973 224.958 141.289 224.958Z" fill="#1B2430"/>
<path d="M86.5388 237.124H62.2072C60.5272 237.124 59.1641 238.487 59.1641 240.163C59.1641 241.847 60.5275 243.21 62.2072 243.21H86.5391C88.2233 243.21 89.5821 241.847 89.5821 240.163C89.5821 238.487 88.2231 237.124 86.5388 237.124Z" fill="#D6D5A8"/>
</g>
<g clip-path="url(#clip1_1_27)">
<path d="M190.826 106.909H187.395V99.802C187.395 98.6651 186.473 97.7435 185.336 97.7435C184.199 97.7435 183.278 98.6651 183.278 99.802V106.909H178.706V91.5679C178.706 90.4311 177.785 89.5094 176.648 89.5094C175.511 89.5094 174.589 90.4311 174.589 91.5679V106.909H170.018V99.802C170.018 98.6651 169.097 97.7435 167.96 97.7435C166.823 97.7435 165.901 98.6651 165.901 99.802V106.909H161.33V91.5679C161.33 90.4311 160.408 89.5094 159.271 89.5094C158.134 89.5094 157.213 90.4311 157.213 91.5679V108.968C157.213 110.105 158.134 111.026 159.271 111.026H190.826C191.963 111.026 192.884 110.105 192.884 108.968C192.884 107.831 191.962 106.909 190.826 106.909Z" fill="#816797"/>
<path d="M190.826 40.6157H159.271C158.134 40.6157 157.213 41.5374 157.213 42.6742C157.213 43.811 158.134 44.7327 159.271 44.7327H190.826C191.963 44.7327 192.884 43.811 192.884 42.6742C192.884 41.5374 191.962 40.6157 190.826 40.6157Z" fill="#816797"/>
<path d="M190.826 50.3944H159.271C158.134 50.3944 157.213 51.3161 157.213 52.453C157.213 53.5898 158.134 54.5115 159.271 54.5115H190.826C191.963 54.5115 192.884 53.5898 192.884 52.453C192.884 51.3161 191.962 50.3944 190.826 50.3944Z" fill="#816797"/>
<path d="M159.271 64.2902H175.048C176.185 64.2902 177.107 63.3685 177.107 62.2317C177.107 61.0949 176.185 60.1732 175.048 60.1732H159.271C158.134 60.1732 157.213 61.0949 157.213 62.2317C157.213 63.3685 158.134 64.2902 159.271 64.2902Z" fill="#816797"/>
<path d="M190.826 69.9519H159.271C158.134 69.9519 157.213 70.8736 157.213 72.0104C157.213 73.1473 158.134 74.069 159.271 74.069H190.826C191.963 74.069 192.884 73.1473 192.884 72.0104C192.884 70.8736 191.962 69.9519 190.826 69.9519Z" fill="#816797"/>
<path d="M190.826 79.7307H159.271C158.134 79.7307 157.213 80.6523 157.213 81.7892C157.213 82.926 158.134 83.8477 159.271 83.8477H190.826C191.963 83.8477 192.884 82.926 192.884 81.7892C192.884 80.6523 191.962 79.7307 190.826 79.7307Z" fill="#816797"/>
<path d="M202.5 42.1044C201.363 42.1044 200.441 43.0261 200.441 44.1629V113.562C200.441 114.698 201.363 115.62 202.5 115.62C203.637 115.62 204.558 114.698 204.558 113.562V44.1629C204.558 43.0258 203.637 42.1044 202.5 42.1044Z" fill="#816797"/>
<path d="M264.941 46.105H258.766V31.6955C258.766 30.5586 257.845 29.637 256.707 29.637H210.386C207.417 29.637 204.613 30.7719 202.5 32.7585C200.387 30.7719 197.582 29.637 194.614 29.637H148.293C147.155 29.637 146.234 30.5586 146.234 31.6955V46.105H140.059C138.921 46.105 138 47.0267 138 48.1636V136.415C138 137.552 138.921 138.473 140.059 138.473H194.221L196.526 141.161C196.917 141.617 197.488 141.88 198.088 141.88L206.913 141.879C207.514 141.879 208.085 141.616 208.476 141.16L210.779 138.473H222.056V146.011C222.056 148.962 224.457 151.363 227.408 151.363H231.8C234.751 151.363 237.151 148.962 237.151 146.011V138.473H264.941C266.079 138.473 267 137.551 267 136.414V48.1636C267 47.0267 266.079 46.105 264.941 46.105ZM233.035 60.6513V129.954H226.173V60.6513H233.035ZM226.173 134.072H233.035V138.189H226.173V134.072ZM227.202 56.5343L229.604 50.7705L232.005 56.5343H227.202ZM231.8 147.246H227.409C226.739 147.246 226.173 146.68 226.173 146.011V142.306H233.035V146.011C233.035 146.68 232.469 147.246 231.8 147.246ZM262.883 134.356H237.152V58.5928C237.152 58.5242 237.148 58.4558 237.141 58.3878C237.135 58.331 237.126 58.2752 237.116 58.2198C237.114 58.2094 237.113 58.1987 237.111 58.1882C237.083 58.0469 237.04 57.9107 236.985 57.7812L231.504 44.6268C231.185 43.8596 230.435 43.3598 229.604 43.3598C228.773 43.3598 228.023 43.8594 227.704 44.6265L222.222 57.7823C222.166 57.9113 222.124 58.0469 222.096 58.188C222.093 58.1995 222.093 58.211 222.09 58.2225C222.081 58.2769 222.071 58.3318 222.066 58.3875C222.059 58.4556 222.055 58.5239 222.055 58.5925V134.356H210.385C209.332 134.356 208.351 134.856 207.73 135.703L205.965 137.762L199.034 137.762L197.268 135.703C196.647 134.856 195.665 134.356 194.613 134.356H142.117V50.2221H146.234V119.947C146.234 121.083 147.155 122.005 148.293 122.005H194.614C196.904 122.005 199.041 123.057 200.441 124.844V127.704C198.701 126.683 196.699 126.122 194.614 126.122H148.293C147.155 126.122 146.234 127.044 146.234 128.181C146.234 129.317 147.155 130.239 148.293 130.239H194.614C197.1 130.239 199.407 131.477 200.786 133.55C200.832 133.618 200.879 133.68 200.93 133.74C200.944 133.756 200.958 133.771 200.972 133.786C201.01 133.828 201.05 133.869 201.091 133.908C201.11 133.925 201.128 133.942 201.147 133.958C201.19 133.996 201.236 134.032 201.282 134.067C201.297 134.078 201.312 134.09 201.328 134.101C201.392 134.146 201.459 134.187 201.528 134.224C201.596 134.261 201.667 134.292 201.739 134.321C201.756 134.328 201.773 134.334 201.791 134.34C201.847 134.361 201.904 134.379 201.962 134.395C201.983 134.401 202.005 134.406 202.026 134.411C202.083 134.425 202.142 134.435 202.201 134.444C202.221 134.447 202.241 134.451 202.262 134.454C202.341 134.463 202.42 134.468 202.501 134.468C202.582 134.468 202.661 134.463 202.739 134.454C202.76 134.451 202.781 134.447 202.803 134.444C202.861 134.435 202.918 134.424 202.975 134.411C202.997 134.406 203.018 134.4 203.04 134.394C203.098 134.379 203.154 134.361 203.209 134.34C203.227 134.334 203.245 134.328 203.263 134.32C203.334 134.292 203.403 134.261 203.47 134.225C203.543 134.187 203.609 134.145 203.673 134.101C203.689 134.09 203.705 134.077 203.721 134.065C203.767 134.031 203.811 133.996 203.854 133.959C203.873 133.942 203.892 133.925 203.91 133.907C203.951 133.869 203.99 133.829 204.028 133.787C204.042 133.771 204.057 133.756 204.071 133.739C204.122 133.679 204.169 133.617 204.213 133.552C205.593 131.477 207.9 130.239 210.387 130.239H215.881C217.018 130.239 217.94 129.317 217.94 128.18C217.94 127.043 217.018 126.122 215.881 126.122H210.387C208.302 126.122 206.299 126.683 204.559 127.703V124.844C205.96 123.057 208.096 122.005 210.387 122.005H215.881C217.018 122.005 217.94 121.083 217.94 119.946C217.94 118.809 217.018 117.888 215.881 117.888H210.387C207.418 117.888 204.613 119.022 202.501 121.007C200.388 119.022 197.583 117.888 194.615 117.888H150.351V33.754H194.614C197.1 33.754 199.406 34.9929 200.786 37.0682C201.167 37.6424 201.811 37.9874 202.5 37.9874C203.189 37.9874 203.833 37.6424 204.215 37.0682C205.593 34.9929 207.901 33.7543 210.386 33.7543H254.649V117.888H243.327C242.19 117.888 241.269 118.81 241.269 119.947C241.269 121.084 242.19 122.005 243.327 122.005H256.707C257.845 122.005 258.766 121.084 258.766 119.947V50.2221H262.883V134.356Z" fill="#816797"/>
<path d="M256.707 126.122H243.327C242.19 126.122 241.269 127.044 241.269 128.181C241.269 129.317 242.19 130.239 243.327 130.239H256.707C257.845 130.239 258.766 129.317 258.766 128.181C258.766 127.044 257.845 126.122 256.707 126.122Z" fill="#816797"/>
</g>
<path d="M217 197.6C217 188.639 217 184.159 218.744 180.736C220.278 177.726 222.726 175.278 225.736 173.744C229.159 172 233.639 172 242.6 172H270.396C274.31 172 276.266 172 278.108 172.442C279.74 172.834 281.301 173.48 282.733 174.358C284.347 175.347 285.731 176.731 288.498 179.498L289.502 180.502C292.269 183.269 293.653 184.653 295.267 185.642C296.699 186.52 298.26 187.166 299.892 187.558C301.734 188 303.69 188 307.604 188H335.4C344.361 188 348.842 188 352.264 189.744C355.274 191.278 357.722 193.726 359.256 196.736C361 200.159 361 204.639 361 213.6V258.4C361 267.361 361 271.842 359.256 275.264C357.722 278.274 355.274 280.722 352.264 282.256C348.842 284 344.361 284 335.4 284H242.6C233.639 284 229.159 284 225.736 282.256C222.726 280.722 220.278 278.274 218.744 275.264C217 271.842 217 267.361 217 258.4V197.6Z" stroke="#816797" stroke-width="11" stroke-linecap="round" stroke-linejoin="round"/>
<path d="M50.6719 324H46.5156L51.9141 308H57.0625L62.4609 324H58.3047L54.5469 312.031H54.4219L50.6719 324ZM50.1172 317.703H58.8047V320.641H50.1172V317.703ZM69.0332 324.227C67.7676 324.227 66.6816 323.966 65.7754 323.445C64.8743 322.924 64.1816 322.201 63.6973 321.273C63.2129 320.341 62.9707 319.263 62.9707 318.039C62.9707 316.81 63.2129 315.732 63.6973 314.805C64.1868 313.872 64.8822 313.146 65.7832 312.625C66.6895 312.104 67.7702 311.844 69.0254 311.844C70.1348 311.844 71.1009 312.044 71.9238 312.445C72.752 312.846 73.3978 313.414 73.8613 314.148C74.3301 314.878 74.5775 315.734 74.6035 316.719H71.0332C70.9603 316.104 70.752 315.622 70.4082 315.273C70.0697 314.924 69.627 314.75 69.0801 314.75C68.6374 314.75 68.2493 314.875 67.916 315.125C67.5827 315.37 67.3223 315.734 67.1348 316.219C66.9525 316.698 66.8613 317.292 66.8613 318C66.8613 318.708 66.9525 319.307 67.1348 319.797C67.3223 320.281 67.5827 320.648 67.916 320.898C68.2493 321.143 68.6374 321.266 69.0801 321.266C69.4342 321.266 69.7467 321.19 70.0176 321.039C70.2936 320.888 70.5202 320.667 70.6973 320.375C70.8743 320.078 70.9863 319.719 71.0332 319.297H74.6035C74.5671 320.286 74.3197 321.151 73.8613 321.891C73.4082 322.63 72.7702 323.206 71.9473 323.617C71.1296 324.023 70.1582 324.227 69.0332 324.227ZM82.1602 324.227C80.8945 324.227 79.8086 323.966 78.9023 323.445C78.0013 322.924 77.3086 322.201 76.8242 321.273C76.3398 320.341 76.0977 319.263 76.0977 318.039C76.0977 316.81 76.3398 315.732 76.8242 314.805C77.3138 313.872 78.0091 313.146 78.9102 312.625C79.8164 312.104 80.8971 311.844 82.1523 311.844C83.2617 311.844 84.2279 312.044 85.0508 312.445C85.8789 312.846 86.5247 313.414 86.9883 314.148C87.457 314.878 87.7044 315.734 87.7305 316.719H84.1602C84.0872 316.104 83.8789 315.622 83.5352 315.273C83.1966 314.924 82.7539 314.75 82.207 314.75C81.7643 314.75 81.3763 314.875 81.043 315.125C80.7096 315.37 80.4492 315.734 80.2617 316.219C80.0794 316.698 79.9883 317.292 79.9883 318C79.9883 318.708 80.0794 319.307 80.2617 319.797C80.4492 320.281 80.7096 320.648 81.043 320.898C81.3763 321.143 81.7643 321.266 82.207 321.266C82.5612 321.266 82.8737 321.19 83.1445 321.039C83.4206 320.888 83.6471 320.667 83.8242 320.375C84.0013 320.078 84.1133 319.719 84.1602 319.297H87.7305C87.694 320.286 87.4466 321.151 86.9883 321.891C86.5352 322.63 85.8971 323.206 85.0742 323.617C84.2565 324.023 83.2852 324.227 82.1602 324.227ZM95.2949 324.227C94.0397 324.227 92.9564 323.979 92.0449 323.484C91.1387 322.984 90.4408 322.273 89.9512 321.352C89.4668 320.424 89.2246 319.323 89.2246 318.047C89.2246 316.807 89.4694 315.724 89.959 314.797C90.4486 313.865 91.1387 313.141 92.0293 312.625C92.9199 312.104 93.9694 311.844 95.1777 311.844C96.0319 311.844 96.8132 311.977 97.5215 312.242C98.2298 312.508 98.8418 312.901 99.3574 313.422C99.873 313.943 100.274 314.586 100.561 315.352C100.847 316.112 100.99 316.984 100.99 317.969V318.922H90.5605V316.703H97.4355C97.4303 316.297 97.334 315.935 97.1465 315.617C96.959 315.299 96.7012 315.052 96.373 314.875C96.0501 314.693 95.6777 314.602 95.2559 314.602C94.8288 314.602 94.446 314.698 94.1074 314.891C93.7689 315.078 93.5007 315.336 93.3027 315.664C93.1048 315.987 93.0007 316.354 92.9902 316.766V319.023C92.9902 319.513 93.0866 319.943 93.2793 320.312C93.472 320.677 93.7454 320.961 94.0996 321.164C94.4538 321.367 94.8757 321.469 95.3652 321.469C95.7038 321.469 96.0111 321.422 96.2871 321.328C96.5632 321.234 96.8001 321.096 96.998 320.914C97.196 320.732 97.3444 320.508 97.4434 320.242L100.951 320.344C100.805 321.13 100.485 321.815 99.9902 322.398C99.5007 322.977 98.8574 323.427 98.0605 323.75C97.2637 324.068 96.3418 324.227 95.2949 324.227ZM113.418 315.664L109.91 315.758C109.874 315.508 109.775 315.286 109.613 315.094C109.452 314.896 109.241 314.742 108.98 314.633C108.725 314.518 108.428 314.461 108.09 314.461C107.647 314.461 107.27 314.549 106.957 314.727C106.65 314.904 106.499 315.143 106.504 315.445C106.499 315.68 106.592 315.883 106.785 316.055C106.983 316.227 107.335 316.365 107.84 316.469L110.152 316.906C111.35 317.135 112.241 317.516 112.824 318.047C113.413 318.578 113.71 319.281 113.715 320.156C113.71 320.979 113.465 321.695 112.98 322.305C112.501 322.914 111.845 323.388 111.012 323.727C110.178 324.06 109.225 324.227 108.152 324.227C106.439 324.227 105.087 323.875 104.098 323.172C103.113 322.464 102.551 321.516 102.41 320.328L106.184 320.234C106.267 320.672 106.483 321.005 106.832 321.234C107.181 321.464 107.626 321.578 108.168 321.578C108.658 321.578 109.056 321.487 109.363 321.305C109.671 321.122 109.827 320.88 109.832 320.578C109.827 320.307 109.707 320.091 109.473 319.93C109.238 319.763 108.871 319.633 108.371 319.539L106.277 319.141C105.074 318.922 104.178 318.518 103.59 317.93C103.001 317.336 102.71 316.581 102.715 315.664C102.71 314.862 102.923 314.177 103.355 313.609C103.788 313.036 104.402 312.599 105.199 312.297C105.996 311.995 106.936 311.844 108.02 311.844C109.645 311.844 110.926 312.185 111.863 312.867C112.801 313.544 113.319 314.477 113.418 315.664ZM126.072 315.664L122.564 315.758C122.528 315.508 122.429 315.286 122.268 315.094C122.106 314.896 121.895 314.742 121.635 314.633C121.38 314.518 121.083 314.461 120.744 314.461C120.301 314.461 119.924 314.549 119.611 314.727C119.304 314.904 119.153 315.143 119.158 315.445C119.153 315.68 119.247 315.883 119.439 316.055C119.637 316.227 119.989 316.365 120.494 316.469L122.807 316.906C124.005 317.135 124.895 317.516 125.479 318.047C126.067 318.578 126.364 319.281 126.369 320.156C126.364 320.979 126.119 321.695 125.635 322.305C125.156 322.914 124.499 323.388 123.666 323.727C122.833 324.06 121.88 324.227 120.807 324.227C119.093 324.227 117.742 323.875 116.752 323.172C115.768 322.464 115.205 321.516 115.064 320.328L118.838 320.234C118.921 320.672 119.137 321.005 119.486 321.234C119.835 321.464 120.281 321.578 120.822 321.578C121.312 321.578 121.71 321.487 122.018 321.305C122.325 321.122 122.481 320.88 122.486 320.578C122.481 320.307 122.361 320.091 122.127 319.93C121.893 319.763 121.525 319.633 121.025 319.539L118.932 319.141C117.729 318.922 116.833 318.518 116.244 317.93C115.656 317.336 115.364 316.581 115.369 315.664C115.364 314.862 115.577 314.177 116.01 313.609C116.442 313.036 117.057 312.599 117.854 312.297C118.65 311.995 119.59 311.844 120.674 311.844C122.299 311.844 123.58 312.185 124.518 312.867C125.455 313.544 125.973 314.477 126.072 315.664ZM139.75 312V314.812H132.18V312H139.75ZM133.766 309.125H137.586V320.227C137.586 320.461 137.622 320.651 137.695 320.797C137.773 320.937 137.885 321.039 138.031 321.102C138.177 321.159 138.352 321.188 138.555 321.188C138.701 321.188 138.854 321.174 139.016 321.148C139.182 321.117 139.307 321.091 139.391 321.07L139.969 323.828C139.786 323.88 139.529 323.945 139.195 324.023C138.867 324.102 138.474 324.151 138.016 324.172C137.12 324.214 136.352 324.109 135.711 323.859C135.076 323.604 134.589 323.208 134.25 322.672C133.917 322.135 133.755 321.461 133.766 320.648V309.125ZM147.172 324.227C145.911 324.227 144.828 323.969 143.922 323.453C143.021 322.932 142.326 322.208 141.836 321.281C141.352 320.349 141.109 319.268 141.109 318.039C141.109 316.805 141.352 315.724 141.836 314.797C142.326 313.865 143.021 313.141 143.922 312.625C144.828 312.104 145.911 311.844 147.172 311.844C148.432 311.844 149.513 312.104 150.414 312.625C151.32 313.141 152.016 313.865 152.5 314.797C152.99 315.724 153.234 316.805 153.234 318.039C153.234 319.268 152.99 320.349 152.5 321.281C152.016 322.208 151.32 322.932 150.414 323.453C149.513 323.969 148.432 324.227 147.172 324.227ZM147.195 321.344C147.654 321.344 148.042 321.203 148.359 320.922C148.677 320.641 148.919 320.25 149.086 319.75C149.258 319.25 149.344 318.672 149.344 318.016C149.344 317.349 149.258 316.766 149.086 316.266C148.919 315.766 148.677 315.375 148.359 315.094C148.042 314.812 147.654 314.672 147.195 314.672C146.721 314.672 146.32 314.812 145.992 315.094C145.669 315.375 145.422 315.766 145.25 316.266C145.083 316.766 145 317.349 145 318.016C145 318.672 145.083 319.25 145.25 319.75C145.422 320.25 145.669 320.641 145.992 320.922C146.32 321.203 146.721 321.344 147.195 321.344ZM168.566 312.797C168.514 312.224 168.283 311.779 167.871 311.461C167.465 311.138 166.884 310.977 166.129 310.977C165.629 310.977 165.212 311.042 164.879 311.172C164.546 311.302 164.296 311.482 164.129 311.711C163.962 311.935 163.876 312.193 163.871 312.484C163.861 312.724 163.908 312.935 164.012 313.117C164.121 313.299 164.277 313.461 164.48 313.602C164.689 313.737 164.939 313.857 165.23 313.961C165.522 314.065 165.85 314.156 166.215 314.234L167.59 314.547C168.382 314.719 169.079 314.948 169.684 315.234C170.293 315.521 170.803 315.862 171.215 316.258C171.632 316.654 171.947 317.109 172.16 317.625C172.374 318.141 172.483 318.719 172.488 319.359C172.483 320.37 172.228 321.237 171.723 321.961C171.217 322.685 170.491 323.24 169.543 323.625C168.6 324.01 167.462 324.203 166.129 324.203C164.79 324.203 163.624 324.003 162.629 323.602C161.634 323.201 160.861 322.591 160.309 321.773C159.757 320.956 159.473 319.922 159.457 318.672H163.16C163.191 319.188 163.329 319.617 163.574 319.961C163.819 320.305 164.155 320.565 164.582 320.742C165.014 320.919 165.514 321.008 166.082 321.008C166.603 321.008 167.046 320.937 167.41 320.797C167.78 320.656 168.064 320.461 168.262 320.211C168.46 319.961 168.561 319.674 168.566 319.352C168.561 319.049 168.467 318.792 168.285 318.578C168.103 318.359 167.822 318.172 167.441 318.016C167.066 317.854 166.587 317.706 166.004 317.57L164.332 317.18C162.947 316.862 161.855 316.349 161.059 315.641C160.262 314.927 159.866 313.964 159.871 312.75C159.866 311.76 160.132 310.893 160.668 310.148C161.204 309.404 161.947 308.823 162.895 308.406C163.842 307.99 164.923 307.781 166.137 307.781C167.376 307.781 168.452 307.992 169.363 308.414C170.28 308.831 170.991 309.417 171.496 310.172C172.001 310.927 172.259 311.802 172.27 312.797H168.566ZM182.184 318.82V312H185.996V324H182.355V321.766H182.23C181.965 322.5 181.512 323.083 180.871 323.516C180.236 323.943 179.467 324.156 178.566 324.156C177.749 324.156 177.03 323.969 176.41 323.594C175.79 323.219 175.309 322.695 174.965 322.023C174.621 321.346 174.447 320.555 174.441 319.648V312H178.262V318.898C178.267 319.549 178.439 320.062 178.777 320.437C179.116 320.812 179.577 321 180.16 321C180.54 321 180.882 320.917 181.184 320.75C181.491 320.578 181.733 320.331 181.91 320.008C182.092 319.68 182.184 319.284 182.184 318.82ZM188.428 328.5V312H192.209V314.055H192.326C192.482 313.69 192.704 313.339 192.99 313C193.282 312.661 193.652 312.385 194.1 312.172C194.553 311.953 195.094 311.844 195.725 311.844C196.558 311.844 197.337 312.062 198.061 312.5C198.79 312.937 199.378 313.612 199.826 314.523C200.274 315.435 200.498 316.596 200.498 318.008C200.498 319.367 200.282 320.505 199.85 321.422C199.423 322.339 198.844 323.026 198.115 323.484C197.391 323.943 196.587 324.172 195.701 324.172C195.097 324.172 194.574 324.073 194.131 323.875C193.688 323.677 193.316 323.417 193.014 323.094C192.717 322.771 192.488 322.424 192.326 322.055H192.248V328.5H188.428ZM192.17 318C192.17 318.646 192.256 319.208 192.428 319.687C192.605 320.167 192.857 320.539 193.186 320.805C193.519 321.065 193.917 321.195 194.381 321.195C194.85 321.195 195.248 321.065 195.576 320.805C195.904 320.539 196.152 320.167 196.318 319.687C196.49 319.208 196.576 318.646 196.576 318C196.576 317.354 196.49 316.794 196.318 316.32C196.152 315.846 195.904 315.479 195.576 315.219C195.253 314.958 194.855 314.828 194.381 314.828C193.912 314.828 193.514 314.956 193.186 315.211C192.857 315.466 192.605 315.831 192.428 316.305C192.256 316.779 192.17 317.344 192.17 318ZM202.5 328.5V312H206.281V314.055H206.398C206.555 313.69 206.776 313.339 207.063 313C207.354 312.661 207.724 312.385 208.172 312.172C208.625 311.953 209.167 311.844 209.797 311.844C210.63 311.844 211.409 312.062 212.133 312.5C212.862 312.937 213.451 313.612 213.898 314.523C214.346 315.435 214.57 316.596 214.57 318.008C214.57 319.367 214.354 320.505 213.922 321.422C213.495 322.339 212.917 323.026 212.188 323.484C211.464 323.943 210.659 324.172 209.773 324.172C209.169 324.172 208.646 324.073 208.203 323.875C207.76 323.677 207.388 323.417 207.086 323.094C206.789 322.771 206.56 322.424 206.398 322.055H206.32V328.5H202.5ZM206.242 318C206.242 318.646 206.328 319.208 206.5 319.687C206.677 320.167 206.93 320.539 207.258 320.805C207.591 321.065 207.99 321.195 208.453 321.195C208.922 321.195 209.32 321.065 209.648 320.805C209.977 320.539 210.224 320.167 210.391 319.687C210.563 319.208 210.648 318.646 210.648 318C210.648 317.354 210.563 316.794 210.391 316.32C210.224 315.846 209.977 315.479 209.648 315.219C209.326 314.958 208.927 314.828 208.453 314.828C207.984 314.828 207.586 314.956 207.258 315.211C206.93 315.466 206.677 315.831 206.5 316.305C206.328 316.779 206.242 317.344 206.242 318ZM220.393 308V324H216.572V308H220.393ZM228.434 324.227C227.178 324.227 226.095 323.979 225.184 323.484C224.277 322.984 223.579 322.273 223.09 321.352C222.605 320.424 222.363 319.323 222.363 318.047C222.363 316.807 222.608 315.724 223.098 314.797C223.587 313.865 224.277 313.141 225.168 312.625C226.059 312.104 227.108 311.844 228.316 311.844C229.171 311.844 229.952 311.977 230.66 312.242C231.368 312.508 231.98 312.901 232.496 313.422C233.012 313.943 233.413 314.586 233.699 315.352C233.986 316.112 234.129 316.984 234.129 317.969V318.922H223.699V316.703H230.574C230.569 316.297 230.473 315.935 230.285 315.617C230.098 315.299 229.84 315.052 229.512 314.875C229.189 314.693 228.816 314.602 228.395 314.602C227.967 314.602 227.585 314.698 227.246 314.891C226.908 315.078 226.639 315.336 226.441 315.664C226.243 315.987 226.139 316.354 226.129 316.766V319.023C226.129 319.513 226.225 319.943 226.418 320.312C226.611 320.677 226.884 320.961 227.238 321.164C227.592 321.367 228.014 321.469 228.504 321.469C228.842 321.469 229.15 321.422 229.426 321.328C229.702 321.234 229.939 321.096 230.137 320.914C230.335 320.732 230.483 320.508 230.582 320.242L234.09 320.344C233.944 321.13 233.624 321.815 233.129 322.398C232.639 322.977 231.996 323.427 231.199 323.75C230.402 324.068 229.48 324.227 228.434 324.227ZM236.08 324V312H239.713V314.203H239.846C240.096 313.474 240.518 312.898 241.111 312.477C241.705 312.055 242.413 311.844 243.236 311.844C244.07 311.844 244.783 312.057 245.377 312.484C245.971 312.911 246.348 313.484 246.51 314.203H246.635C246.859 313.49 247.296 312.919 247.947 312.492C248.598 312.06 249.367 311.844 250.252 311.844C251.387 311.844 252.309 312.208 253.018 312.937C253.726 313.661 254.08 314.656 254.08 315.922V324H250.26V316.797C250.26 316.198 250.106 315.742 249.799 315.43C249.492 315.112 249.093 314.953 248.604 314.953C248.077 314.953 247.663 315.125 247.361 315.469C247.064 315.807 246.916 316.263 246.916 316.836V324H243.244V316.758C243.244 316.201 243.093 315.76 242.791 315.437C242.489 315.115 242.09 314.953 241.596 314.953C241.262 314.953 240.968 315.034 240.713 315.195C240.458 315.352 240.257 315.576 240.111 315.867C239.971 316.159 239.9 316.503 239.9 316.898V324H236.08ZM262.057 324.227C260.801 324.227 259.718 323.979 258.807 323.484C257.9 322.984 257.202 322.273 256.713 321.352C256.229 320.424 255.986 319.323 255.986 318.047C255.986 316.807 256.231 315.724 256.721 314.797C257.21 313.865 257.9 313.141 258.791 312.625C259.682 312.104 260.731 311.844 261.939 311.844C262.794 311.844 263.575 311.977 264.283 312.242C264.992 312.508 265.604 312.901 266.119 313.422C266.635 313.943 267.036 314.586 267.322 315.352C267.609 316.112 267.752 316.984 267.752 317.969V318.922H257.322V316.703H264.197C264.192 316.297 264.096 315.935 263.908 315.617C263.721 315.299 263.463 315.052 263.135 314.875C262.812 314.693 262.439 314.602 262.018 314.602C261.59 314.602 261.208 314.698 260.869 314.891C260.531 315.078 260.262 315.336 260.064 315.664C259.867 315.987 259.762 316.354 259.752 316.766V319.023C259.752 319.513 259.848 319.943 260.041 320.312C260.234 320.677 260.507 320.961 260.861 321.164C261.215 321.367 261.637 321.469 262.127 321.469C262.465 321.469 262.773 321.422 263.049 321.328C263.325 321.234 263.562 321.096 263.76 320.914C263.958 320.732 264.106 320.508 264.205 320.242L267.713 320.344C267.567 321.13 267.247 321.815 266.752 322.398C266.262 322.977 265.619 323.427 264.822 323.75C264.025 324.068 263.104 324.227 262.057 324.227ZM273.523 317.156V324H269.703V312H273.336V314.203H273.469C273.734 313.469 274.188 312.893 274.828 312.477C275.469 312.055 276.232 311.844 277.117 311.844C277.961 311.844 278.693 312.034 279.313 312.414C279.938 312.789 280.422 313.315 280.766 313.992C281.115 314.664 281.286 315.451 281.281 316.352V324H277.461V317.102C277.466 316.435 277.297 315.914 276.953 315.539C276.615 315.164 276.143 314.977 275.539 314.977C275.138 314.977 274.784 315.065 274.477 315.242C274.174 315.414 273.94 315.661 273.773 315.984C273.612 316.307 273.529 316.698 273.523 317.156ZM290.42 312V314.812H282.85V312H290.42ZM284.436 309.125H288.256V320.227C288.256 320.461 288.292 320.651 288.365 320.797C288.443 320.937 288.555 321.039 288.701 321.102C288.847 321.159 289.021 321.188 289.225 321.188C289.37 321.188 289.524 321.174 289.686 321.148C289.852 321.117 289.977 321.091 290.061 321.07L290.639 323.828C290.456 323.88 290.199 323.945 289.865 324.023C289.537 324.102 289.144 324.151 288.686 324.172C287.79 324.214 287.021 324.109 286.381 323.859C285.745 323.604 285.258 323.208 284.92 322.672C284.587 322.135 284.425 321.461 284.436 320.648V309.125ZM295.752 324.203C294.986 324.203 294.307 324.076 293.713 323.82C293.124 323.56 292.658 323.169 292.314 322.648C291.976 322.122 291.807 321.464 291.807 320.672C291.807 320.005 291.924 319.443 292.158 318.984C292.393 318.526 292.715 318.154 293.127 317.867C293.538 317.581 294.012 317.365 294.549 317.219C295.085 317.068 295.658 316.966 296.268 316.914C296.95 316.852 297.499 316.786 297.916 316.719C298.333 316.646 298.635 316.544 298.822 316.414C299.015 316.279 299.111 316.089 299.111 315.844V315.805C299.111 315.404 298.973 315.094 298.697 314.875C298.421 314.656 298.049 314.547 297.58 314.547C297.075 314.547 296.669 314.656 296.361 314.875C296.054 315.094 295.859 315.396 295.775 315.781L292.252 315.656C292.356 314.927 292.624 314.276 293.057 313.703C293.494 313.125 294.093 312.672 294.854 312.344C295.619 312.01 296.538 311.844 297.611 311.844C298.377 311.844 299.083 311.935 299.729 312.117C300.374 312.294 300.937 312.555 301.416 312.898C301.895 313.237 302.265 313.654 302.525 314.148C302.791 314.643 302.924 315.208 302.924 315.844V324H299.33V322.328H299.236C299.023 322.734 298.749 323.078 298.416 323.359C298.088 323.641 297.7 323.852 297.252 323.992C296.809 324.133 296.309 324.203 295.752 324.203ZM296.932 321.703C297.343 321.703 297.713 321.62 298.041 321.453C298.374 321.286 298.64 321.057 298.838 320.766C299.036 320.469 299.135 320.125 299.135 319.734V318.594C299.025 318.651 298.893 318.703 298.736 318.75C298.585 318.797 298.419 318.841 298.236 318.883C298.054 318.924 297.867 318.961 297.674 318.992C297.481 319.023 297.296 319.052 297.119 319.078C296.76 319.135 296.452 319.224 296.197 319.344C295.947 319.464 295.755 319.62 295.619 319.812C295.489 320 295.424 320.224 295.424 320.484C295.424 320.88 295.564 321.182 295.846 321.391C296.132 321.599 296.494 321.703 296.932 321.703ZM309.08 308V324H305.26V308H309.08ZM47.2109 335H52L56.0625 344.906H56.25L60.3125 335H65.1016V351H61.3359V341.172H61.2031L57.3594 350.898H54.9531L51.1094 341.117H50.9766V351H47.2109V335ZM70.8965 351.203C70.1309 351.203 69.4512 351.076 68.8574 350.82C68.2689 350.56 67.8027 350.169 67.459 349.648C67.1204 349.122 66.9512 348.464 66.9512 347.672C66.9512 347.005 67.0684 346.443 67.3027 345.984C67.5371 345.526 67.86 345.154 68.2715 344.867C68.6829 344.581 69.1569 344.365 69.6934 344.219C70.2298 344.068 70.8027 343.966 71.4121 343.914C72.0944 343.852 72.6439 343.786 73.0605 343.719C73.4772 343.646 73.7793 343.544 73.9668 343.414C74.1595 343.279 74.2559 343.089 74.2559 342.844V342.805C74.2559 342.404 74.1178 342.094 73.8418 341.875C73.5658 341.656 73.1934 341.547 72.7246 341.547C72.2194 341.547 71.8132 341.656 71.5059 341.875C71.1986 342.094 71.0033 342.396 70.9199 342.781L67.3965 342.656C67.5007 341.927 67.7689 341.276 68.2012 340.703C68.6387 340.125 69.2376 339.672 69.998 339.344C70.7637 339.01 71.6829 338.844 72.7559 338.844C73.5215 338.844 74.2272 338.935 74.873 339.117C75.5189 339.294 76.0814 339.555 76.5605 339.898C77.0397 340.237 77.4095 340.654 77.6699 341.148C77.9355 341.643 78.0684 342.208 78.0684 342.844V351H74.4746V349.328H74.3809C74.1673 349.734 73.8939 350.078 73.5605 350.359C73.2324 350.641 72.8444 350.852 72.3965 350.992C71.9538 351.133 71.4538 351.203 70.8965 351.203ZM72.0762 348.703C72.4876 348.703 72.8574 348.62 73.1855 348.453C73.5189 348.286 73.7845 348.057 73.9824 347.766C74.1803 347.469 74.2793 347.125 74.2793 346.734V345.594C74.1699 345.651 74.0371 345.703 73.8809 345.75C73.7298 345.797 73.5632 345.841 73.3809 345.883C73.1986 345.924 73.0111 345.961 72.8184 345.992C72.6257 346.023 72.4408 346.052 72.2637 346.078C71.9043 346.135 71.597 346.224 71.3418 346.344C71.0918 346.464 70.8991 346.62 70.7637 346.812C70.6335 347 70.5684 347.224 70.5684 347.484C70.5684 347.88 70.709 348.182 70.9902 348.391C71.2767 348.599 71.6387 348.703 72.0762 348.703ZM87.1777 339V341.812H79.6074V339H87.1777ZM81.1934 336.125H85.0137V347.227C85.0137 347.461 85.0501 347.651 85.123 347.797C85.2012 347.937 85.3132 348.039 85.459 348.102C85.6048 348.159 85.7793 348.188 85.9824 348.188C86.1283 348.188 86.2819 348.174 86.4434 348.148C86.61 348.117 86.735 348.091 86.8184 348.07L87.3965 350.828C87.2142 350.88 86.9564 350.945 86.623 351.023C86.2949 351.102 85.9017 351.151 85.4434 351.172C84.5475 351.214 83.7793 351.109 83.1387 350.859C82.5033 350.604 82.0163 350.208 81.6777 349.672C81.3444 349.135 81.1829 348.461 81.1934 347.648V336.125ZM94.6074 351.227C93.3522 351.227 92.2689 350.979 91.3574 350.484C90.4512 349.984 89.7533 349.273 89.2637 348.352C88.7793 347.424 88.5371 346.323 88.5371 345.047C88.5371 343.807 88.7819 342.724 89.2715 341.797C89.7611 340.865 90.4512 340.141 91.3418 339.625C92.2324 339.104 93.2819 338.844 94.4902 338.844C95.3444 338.844 96.1257 338.977 96.834 339.242C97.5423 339.508 98.1543 339.901 98.6699 340.422C99.1855 340.943 99.5866 341.586 99.873 342.352C100.16 343.112 100.303 343.984 100.303 344.969V345.922H89.873V343.703H96.748C96.7428 343.297 96.6465 342.935 96.459 342.617C96.2715 342.299 96.0137 342.052 95.6855 341.875C95.3626 341.693 94.9902 341.602 94.5684 341.602C94.1413 341.602 93.7585 341.698 93.4199 341.891C93.0814 342.078 92.8132 342.336 92.6152 342.664C92.4173 342.987 92.3132 343.354 92.3027 343.766V346.023C92.3027 346.513 92.3991 346.943 92.5918 347.312C92.7845 347.677 93.0579 347.961 93.4121 348.164C93.7663 348.367 94.1882 348.469 94.6777 348.469C95.0163 348.469 95.3236 348.422 95.5996 348.328C95.8757 348.234 96.1126 348.096 96.3105 347.914C96.5085 347.732 96.6569 347.508 96.7559 347.242L100.264 347.344C100.118 348.13 99.7975 348.815 99.3027 349.398C98.8132 349.977 98.1699 350.427 97.373 350.75C96.5762 351.068 95.6543 351.227 94.6074 351.227ZM102.254 351V339H105.965V341.187H106.09C106.309 340.396 106.665 339.807 107.16 339.422C107.655 339.031 108.23 338.836 108.887 338.836C109.064 338.836 109.246 338.849 109.434 338.875C109.621 338.896 109.796 338.93 109.957 338.977V342.297C109.775 342.234 109.535 342.185 109.238 342.148C108.947 342.112 108.686 342.094 108.457 342.094C108.004 342.094 107.595 342.195 107.23 342.398C106.871 342.596 106.587 342.875 106.379 343.234C106.176 343.589 106.074 344.005 106.074 344.484V351H102.254ZM111.514 351V339H115.334V351H111.514ZM113.428 337.602C112.891 337.602 112.43 337.424 112.045 337.07C111.66 336.711 111.467 336.279 111.467 335.773C111.467 335.273 111.66 334.846 112.045 334.492C112.43 334.133 112.891 333.953 113.428 333.953C113.969 333.953 114.43 334.133 114.811 334.492C115.196 334.846 115.389 335.273 115.389 335.773C115.389 336.279 115.196 336.711 114.811 337.07C114.43 337.424 113.969 337.602 113.428 337.602ZM121.148 351.203C120.383 351.203 119.703 351.076 119.109 350.82C118.521 350.56 118.055 350.169 117.711 349.648C117.372 349.122 117.203 348.464 117.203 347.672C117.203 347.005 117.32 346.443 117.555 345.984C117.789 345.526 118.112 345.154 118.523 344.867C118.935 344.581 119.409 344.365 119.945 344.219C120.482 344.068 121.055 343.966 121.664 343.914C122.346 343.852 122.896 343.786 123.313 343.719C123.729 343.646 124.031 343.544 124.219 343.414C124.411 343.279 124.508 343.089 124.508 342.844V342.805C124.508 342.404 124.37 342.094 124.094 341.875C123.818 341.656 123.445 341.547 122.977 341.547C122.471 341.547 122.065 341.656 121.758 341.875C121.451 342.094 121.255 342.396 121.172 342.781L117.648 342.656C117.753 341.927 118.021 341.276 118.453 340.703C118.891 340.125 119.49 339.672 120.25 339.344C121.016 339.01 121.935 338.844 123.008 338.844C123.773 338.844 124.479 338.935 125.125 339.117C125.771 339.294 126.333 339.555 126.813 339.898C127.292 340.237 127.661 340.654 127.922 341.148C128.188 341.643 128.32 342.208 128.32 342.844V351H124.727V349.328H124.633C124.419 349.734 124.146 350.078 123.813 350.359C123.484 350.641 123.096 350.852 122.648 350.992C122.206 351.133 121.706 351.203 121.148 351.203ZM122.328 348.703C122.74 348.703 123.109 348.62 123.438 348.453C123.771 348.286 124.036 348.057 124.234 347.766C124.432 347.469 124.531 347.125 124.531 346.734V345.594C124.422 345.651 124.289 345.703 124.133 345.75C123.982 345.797 123.815 345.841 123.633 345.883C123.451 345.924 123.263 345.961 123.07 345.992C122.878 346.023 122.693 346.052 122.516 346.078C122.156 346.135 121.849 346.224 121.594 346.344C121.344 346.464 121.151 346.62 121.016 346.812C120.885 347 120.82 347.224 120.82 347.484C120.82 347.88 120.961 348.182 121.242 348.391C121.529 348.599 121.891 348.703 122.328 348.703ZM134.477 335V351H130.656V335H134.477ZM145.018 351.203C144.252 351.203 143.572 351.076 142.979 350.82C142.39 350.56 141.924 350.169 141.58 349.648C141.242 349.122 141.072 348.464 141.072 347.672C141.072 347.005 141.189 346.443 141.424 345.984C141.658 345.526 141.981 345.154 142.393 344.867C142.804 344.581 143.278 344.365 143.814 344.219C144.351 344.068 144.924 343.966 145.533 343.914C146.215 343.852 146.765 343.786 147.182 343.719C147.598 343.646 147.9 343.544 148.088 343.414C148.281 343.279 148.377 343.089 148.377 342.844V342.805C148.377 342.404 148.239 342.094 147.963 341.875C147.687 341.656 147.314 341.547 146.846 341.547C146.34 341.547 145.934 341.656 145.627 341.875C145.32 342.094 145.124 342.396 145.041 342.781L141.518 342.656C141.622 341.927 141.89 341.276 142.322 340.703C142.76 340.125 143.359 339.672 144.119 339.344C144.885 339.01 145.804 338.844 146.877 338.844C147.643 338.844 148.348 338.935 148.994 339.117C149.64 339.294 150.202 339.555 150.682 339.898C151.161 340.237 151.531 340.654 151.791 341.148C152.057 341.643 152.189 342.208 152.189 342.844V351H148.596V349.328H148.502C148.288 349.734 148.015 350.078 147.682 350.359C147.354 350.641 146.965 350.852 146.518 350.992C146.075 351.133 145.575 351.203 145.018 351.203ZM146.197 348.703C146.609 348.703 146.979 348.62 147.307 348.453C147.64 348.286 147.906 348.057 148.104 347.766C148.301 347.469 148.4 347.125 148.4 346.734V345.594C148.291 345.651 148.158 345.703 148.002 345.75C147.851 345.797 147.684 345.841 147.502 345.883C147.32 345.924 147.132 345.961 146.939 345.992C146.747 346.023 146.562 346.052 146.385 346.078C146.025 346.135 145.718 346.224 145.463 346.344C145.213 346.464 145.02 346.62 144.885 346.812C144.755 347 144.689 347.224 144.689 347.484C144.689 347.88 144.83 348.182 145.111 348.391C145.398 348.599 145.76 348.703 146.197 348.703ZM158.346 344.156V351H154.525V339H158.158V341.203H158.291C158.557 340.469 159.01 339.893 159.65 339.477C160.291 339.055 161.054 338.844 161.939 338.844C162.783 338.844 163.515 339.034 164.135 339.414C164.76 339.789 165.244 340.315 165.588 340.992C165.937 341.664 166.109 342.451 166.104 343.352V351H162.283V344.102C162.288 343.435 162.119 342.914 161.775 342.539C161.437 342.164 160.965 341.977 160.361 341.977C159.96 341.977 159.606 342.065 159.299 342.242C158.997 342.414 158.762 342.661 158.596 342.984C158.434 343.307 158.351 343.698 158.346 344.156ZM172.852 351.172C171.966 351.172 171.161 350.943 170.438 350.484C169.714 350.026 169.135 349.339 168.703 348.422C168.271 347.505 168.055 346.367 168.055 345.008C168.055 343.596 168.279 342.435 168.727 341.523C169.174 340.612 169.76 339.937 170.484 339.5C171.214 339.062 171.997 338.844 172.836 338.844C173.466 338.844 174.005 338.953 174.453 339.172C174.901 339.385 175.271 339.661 175.563 340C175.854 340.339 176.076 340.69 176.227 341.055H176.305V335H180.125V351H176.344V349.055H176.227C176.065 349.424 175.836 349.771 175.539 350.094C175.242 350.417 174.87 350.677 174.422 350.875C173.979 351.073 173.456 351.172 172.852 351.172ZM174.18 348.195C174.643 348.195 175.039 348.065 175.367 347.805C175.695 347.539 175.948 347.167 176.125 346.687C176.302 346.208 176.391 345.646 176.391 345C176.391 344.344 176.302 343.779 176.125 343.305C175.953 342.831 175.701 342.466 175.367 342.211C175.039 341.956 174.643 341.828 174.18 341.828C173.706 341.828 173.305 341.958 172.977 342.219C172.648 342.479 172.398 342.846 172.227 343.32C172.06 343.794 171.977 344.354 171.977 345C171.977 345.646 172.063 346.208 172.234 346.687C172.406 347.167 172.654 347.539 172.977 347.805C173.305 348.065 173.706 348.195 174.18 348.195ZM187.268 351V335H193.877C195.075 335 196.109 335.216 196.979 335.648C197.854 336.076 198.528 336.69 199.002 337.492C199.476 338.289 199.713 339.234 199.713 340.328C199.713 341.437 199.471 342.38 198.986 343.156C198.502 343.927 197.814 344.516 196.924 344.922C196.033 345.323 194.979 345.523 193.76 345.523H189.58V342.477H193.041C193.624 342.477 194.111 342.401 194.502 342.25C194.898 342.094 195.197 341.859 195.4 341.547C195.604 341.229 195.705 340.823 195.705 340.328C195.705 339.833 195.604 339.424 195.4 339.102C195.197 338.773 194.898 338.529 194.502 338.367C194.106 338.201 193.619 338.117 193.041 338.117H191.135V351H187.268ZM196.275 343.687L200.26 351H196.041L192.135 343.687H196.275ZM207.207 351.227C205.952 351.227 204.868 350.979 203.957 350.484C203.051 349.984 202.353 349.273 201.863 348.352C201.379 347.424 201.137 346.323 201.137 345.047C201.137 343.807 201.382 342.724 201.871 341.797C202.361 340.865 203.051 340.141 203.941 339.625C204.832 339.104 205.882 338.844 207.09 338.844C207.944 338.844 208.725 338.977 209.434 339.242C210.142 339.508 210.754 339.901 211.27 340.422C211.785 340.943 212.186 341.586 212.473 342.352C212.759 343.112 212.902 343.984 212.902 344.969V345.922H202.473V343.703H209.348C209.342 343.297 209.246 342.935 209.059 342.617C208.871 342.299 208.613 342.052 208.285 341.875C207.962 341.693 207.59 341.602 207.168 341.602C206.741 341.602 206.358 341.698 206.02 341.891C205.681 342.078 205.413 342.336 205.215 342.664C205.017 342.987 204.913 343.354 204.902 343.766V346.023C204.902 346.513 204.999 346.943 205.191 347.312C205.384 347.677 205.658 347.961 206.012 348.164C206.366 348.367 206.788 348.469 207.277 348.469C207.616 348.469 207.923 348.422 208.199 348.328C208.475 348.234 208.712 348.096 208.91 347.914C209.108 347.732 209.257 347.508 209.355 347.242L212.863 347.344C212.717 348.13 212.397 348.815 211.902 349.398C211.413 349.977 210.77 350.427 209.973 350.75C209.176 351.068 208.254 351.227 207.207 351.227ZM225.33 342.664L221.822 342.758C221.786 342.508 221.687 342.286 221.525 342.094C221.364 341.896 221.153 341.742 220.893 341.633C220.637 341.518 220.34 341.461 220.002 341.461C219.559 341.461 219.182 341.549 218.869 341.727C218.562 341.904 218.411 342.143 218.416 342.445C218.411 342.68 218.505 342.883 218.697 343.055C218.895 343.227 219.247 343.365 219.752 343.469L222.064 343.906C223.262 344.135 224.153 344.516 224.736 345.047C225.325 345.578 225.622 346.281 225.627 347.156C225.622 347.979 225.377 348.695 224.893 349.305C224.413 349.914 223.757 350.388 222.924 350.727C222.09 351.06 221.137 351.227 220.064 351.227C218.351 351.227 216.999 350.875 216.01 350.172C215.025 349.464 214.463 348.516 214.322 347.328L218.096 347.234C218.179 347.672 218.395 348.005 218.744 348.234C219.093 348.464 219.538 348.578 220.08 348.578C220.57 348.578 220.968 348.487 221.275 348.305C221.583 348.122 221.739 347.88 221.744 347.578C221.739 347.307 221.619 347.091 221.385 346.93C221.15 346.763 220.783 346.633 220.283 346.539L218.189 346.141C216.986 345.922 216.09 345.518 215.502 344.93C214.913 344.336 214.622 343.581 214.627 342.664C214.622 341.862 214.835 341.177 215.268 340.609C215.7 340.036 216.314 339.599 217.111 339.297C217.908 338.995 218.848 338.844 219.932 338.844C221.557 338.844 222.838 339.185 223.775 339.867C224.713 340.544 225.231 341.477 225.33 342.664ZM233.109 351.227C231.849 351.227 230.766 350.969 229.859 350.453C228.958 349.932 228.263 349.208 227.773 348.281C227.289 347.349 227.047 346.268 227.047 345.039C227.047 343.805 227.289 342.724 227.773 341.797C228.263 340.865 228.958 340.141 229.859 339.625C230.766 339.104 231.849 338.844 233.109 338.844C234.37 338.844 235.451 339.104 236.352 339.625C237.258 340.141 237.953 340.865 238.438 341.797C238.927 342.724 239.172 343.805 239.172 345.039C239.172 346.268 238.927 347.349 238.438 348.281C237.953 349.208 237.258 349.932 236.352 350.453C235.451 350.969 234.37 351.227 233.109 351.227ZM233.133 348.344C233.591 348.344 233.979 348.203 234.297 347.922C234.615 347.641 234.857 347.25 235.023 346.75C235.195 346.25 235.281 345.672 235.281 345.016C235.281 344.349 235.195 343.766 235.023 343.266C234.857 342.766 234.615 342.375 234.297 342.094C233.979 341.812 233.591 341.672 233.133 341.672C232.659 341.672 232.258 341.812 231.93 342.094C231.607 342.375 231.359 342.766 231.188 343.266C231.021 343.766 230.938 344.349 230.938 345.016C230.938 345.672 231.021 346.25 231.188 346.75C231.359 347.25 231.607 347.641 231.93 347.922C232.258 348.203 232.659 348.344 233.133 348.344ZM248.871 345.82V339H252.684V351H249.043V348.766H248.918C248.652 349.5 248.199 350.083 247.559 350.516C246.923 350.943 246.155 351.156 245.254 351.156C244.436 351.156 243.717 350.969 243.098 350.594C242.478 350.219 241.996 349.695 241.652 349.023C241.309 348.346 241.134 347.555 241.129 346.648V339H244.949V345.898C244.954 346.549 245.126 347.062 245.465 347.437C245.803 347.812 246.264 348 246.848 348C247.228 348 247.569 347.917 247.871 347.75C248.178 347.578 248.421 347.331 248.598 347.008C248.78 346.68 248.871 346.284 248.871 345.82ZM255.115 351V339H258.826V341.187H258.951C259.17 340.396 259.527 339.807 260.021 339.422C260.516 339.031 261.092 338.836 261.748 338.836C261.925 338.836 262.107 338.849 262.295 338.875C262.482 338.896 262.657 338.93 262.818 338.977V342.297C262.636 342.234 262.396 342.185 262.1 342.148C261.808 342.112 261.548 342.094 261.318 342.094C260.865 342.094 260.456 342.195 260.092 342.398C259.732 342.596 259.449 342.875 259.24 343.234C259.037 343.589 258.936 344.005 258.936 344.484V351H255.115ZM269.354 351.227C268.088 351.227 267.002 350.966 266.096 350.445C265.195 349.924 264.502 349.201 264.018 348.273C263.533 347.341 263.291 346.263 263.291 345.039C263.291 343.81 263.533 342.732 264.018 341.805C264.507 340.872 265.202 340.146 266.104 339.625C267.01 339.104 268.09 338.844 269.346 338.844C270.455 338.844 271.421 339.044 272.244 339.445C273.072 339.846 273.718 340.414 274.182 341.148C274.65 341.878 274.898 342.734 274.924 343.719H271.354C271.281 343.104 271.072 342.622 270.729 342.273C270.39 341.924 269.947 341.75 269.4 341.75C268.958 341.75 268.57 341.875 268.236 342.125C267.903 342.37 267.643 342.734 267.455 343.219C267.273 343.698 267.182 344.292 267.182 345C267.182 345.708 267.273 346.307 267.455 346.797C267.643 347.281 267.903 347.648 268.236 347.898C268.57 348.143 268.958 348.266 269.4 348.266C269.755 348.266 270.067 348.19 270.338 348.039C270.614 347.888 270.84 347.667 271.018 347.375C271.195 347.078 271.307 346.719 271.354 346.297H274.924C274.887 347.286 274.64 348.151 274.182 348.891C273.729 349.63 273.09 350.206 272.268 350.617C271.45 351.023 270.479 351.227 269.354 351.227ZM282.488 351.227C281.233 351.227 280.15 350.979 279.238 350.484C278.332 349.984 277.634 349.273 277.145 348.352C276.66 347.424 276.418 346.323 276.418 345.047C276.418 343.807 276.663 342.724 277.152 341.797C277.642 340.865 278.332 340.141 279.223 339.625C280.113 339.104 281.163 338.844 282.371 338.844C283.225 338.844 284.007 338.977 284.715 339.242C285.423 339.508 286.035 339.901 286.551 340.422C287.066 340.943 287.467 341.586 287.754 342.352C288.04 343.112 288.184 343.984 288.184 344.969V345.922H277.754V343.703H284.629C284.624 343.297 284.527 342.935 284.34 342.617C284.152 342.299 283.895 342.052 283.566 341.875C283.243 341.693 282.871 341.602 282.449 341.602C282.022 341.602 281.639 341.698 281.301 341.891C280.962 342.078 280.694 342.336 280.496 342.664C280.298 342.987 280.194 343.354 280.184 343.766V346.023C280.184 346.513 280.28 346.943 280.473 347.312C280.665 347.677 280.939 347.961 281.293 348.164C281.647 348.367 282.069 348.469 282.559 348.469C282.897 348.469 283.204 348.422 283.48 348.328C283.757 348.234 283.993 348.096 284.191 347.914C284.389 347.732 284.538 347.508 284.637 347.242L288.145 347.344C287.999 348.13 287.678 348.815 287.184 349.398C286.694 349.977 286.051 350.427 285.254 350.75C284.457 351.068 283.535 351.227 282.488 351.227ZM300.611 342.664L297.104 342.758C297.067 342.508 296.968 342.286 296.807 342.094C296.645 341.896 296.434 341.742 296.174 341.633C295.919 341.518 295.622 341.461 295.283 341.461C294.84 341.461 294.463 341.549 294.15 341.727C293.843 341.904 293.692 342.143 293.697 342.445C293.692 342.68 293.786 342.883 293.979 343.055C294.176 343.227 294.528 343.365 295.033 343.469L297.346 343.906C298.544 344.135 299.434 344.516 300.018 345.047C300.606 345.578 300.903 346.281 300.908 347.156C300.903 347.979 300.658 348.695 300.174 349.305C299.695 349.914 299.038 350.388 298.205 350.727C297.372 351.06 296.419 351.227 295.346 351.227C293.632 351.227 292.281 350.875 291.291 350.172C290.307 349.464 289.744 348.516 289.604 347.328L293.377 347.234C293.46 347.672 293.676 348.005 294.025 348.234C294.374 348.464 294.82 348.578 295.361 348.578C295.851 348.578 296.249 348.487 296.557 348.305C296.864 348.122 297.02 347.88 297.025 347.578C297.02 347.307 296.9 347.091 296.666 346.93C296.432 346.763 296.064 346.633 295.564 346.539L293.471 346.141C292.268 345.922 291.372 345.518 290.783 344.93C290.195 344.336 289.903 343.581 289.908 342.664C289.903 341.862 290.117 341.177 290.549 340.609C290.981 340.036 291.596 339.599 292.393 339.297C293.189 338.995 294.13 338.844 295.213 338.844C296.838 338.844 298.119 339.185 299.057 339.867C299.994 340.544 300.512 341.477 300.611 342.664Z" fill="white"/>
<defs>
<clipPath id="clip0_1_27">
<rect width="146" height="146" fill="white" transform="translate(47 155)"/>
</clipPath>
<clipPath id="clip1_1_27">
<rect width="129" height="129" fill="white" transform="translate(138 26)"/>
</clipPath>
</defs>
</svg>
