<svg width="400" height="400" viewBox="0 0 400 400" fill="none" xmlns="http://www.w3.org/2000/svg">
<g clip-path="url(#clip0_1_2)">
<g clip-path="url(#clip1_1_2)">
<path d="M277.78 129.614C277.124 128.95 276.387 128.342 275.577 127.802L274.748 127.629C274.313 127.44 273.967 127.13 273.741 126.755C272.445 126.143 271.087 125.749 269.707 125.551C268.514 125.386 267.677 124.279 267.85 123.078C268.011 121.879 269.126 121.041 270.319 121.206C271.684 121.407 273.052 121.754 274.365 122.269C274.578 121.311 274.699 120.332 274.699 119.346C274.695 117.188 274.188 115.009 273.109 112.96C271.876 110.616 270.069 108.788 267.955 107.54C266.102 106.445 264.009 105.793 261.858 105.64C261.702 107.6 261.235 109.553 260.421 111.446C259.938 112.557 258.654 113.069 257.538 112.589C256.427 112.114 255.912 110.826 256.391 109.714C257.172 107.891 257.538 106.014 257.547 104.154L257.518 103.361C257.369 100.784 256.516 98.2953 255.062 96.1733C253.608 94.055 251.571 92.3198 249.035 91.2205C247.215 90.4433 245.33 90.0771 243.474 90.0771C239.918 90.0771 236.475 91.4465 233.875 93.8618C234.361 95.5169 234.639 97.2603 234.639 99.0725C234.639 100.281 233.649 101.263 232.441 101.263C231.233 101.263 230.246 100.281 230.246 99.0725C230.246 97.2967 229.92 95.6134 229.324 94.0472H229.329C228.318 91.4101 226.53 89.1391 224.239 87.5365C221.956 85.9343 219.19 84.9958 216.178 84.9958C213.565 84.9958 211.129 85.7088 209.035 86.9406C207.36 87.931 205.914 89.268 204.779 90.8383C206.998 93.8782 208.31 97.6352 208.31 101.686C208.31 102.894 207.324 103.872 206.112 103.872C204.903 103.872 203.917 102.894 203.917 101.686C203.917 98.1268 202.608 94.8892 200.43 92.4127C197.846 89.4612 194.073 87.6135 189.845 87.6135C186.91 87.6135 184.208 88.5032 181.948 90.0334C179.698 91.5636 177.906 93.7298 176.847 96.2745C176.162 97.9373 175.772 99.7696 175.772 101.686C175.772 102.894 174.793 103.872 173.581 103.872C172.369 103.872 171.391 102.894 171.391 101.686C171.391 99.9062 171.649 98.191 172.116 96.556C170.465 95.8877 168.677 95.5174 166.841 95.5174C165.799 95.5174 164.752 95.6381 163.688 95.8759C160.564 96.5966 157.951 98.2799 156.038 100.559C154.661 102.202 153.678 104.154 153.167 106.252C157.697 106.332 162.222 108.084 165.718 111.506C166.58 112.356 166.596 113.741 165.75 114.603C164.901 115.472 163.515 115.481 162.65 114.639C159.904 111.962 156.365 110.62 152.805 110.616C152.169 110.616 151.532 110.66 150.896 110.741H150.888H150.884C147.901 111.156 145.026 112.516 142.742 114.844C140.061 117.582 138.732 121.118 138.728 124.685C138.728 126.719 139.171 128.768 140.056 130.653C140.745 132.138 141.712 133.523 142.96 134.739V134.743C144.369 136.128 145.996 137.151 147.732 137.819C148.855 138.258 149.423 139.527 148.98 140.654C148.541 141.789 147.277 142.353 146.146 141.91C143.879 141.032 141.737 139.688 139.884 137.872C139.075 137.074 138.354 136.225 137.714 135.323C136.059 137.695 135.161 140.533 135.161 143.424C135.161 145.664 135.697 147.922 136.828 150.044C138.1 152.42 139.941 154.272 142.107 155.536C143.818 156.539 145.731 157.171 147.704 157.393L147.7 157.26C147.7 156.1 147.809 154.965 148.006 153.861C148.232 152.67 149.379 151.892 150.563 152.106C151.755 152.327 152.54 153.47 152.327 154.662C152.169 155.503 152.085 156.377 152.085 157.259L152.121 158.278L152.238 159.305V159.317L152.242 159.337C153.249 166.215 159.192 171.356 166.149 171.356L167.16 171.316H167.164C170.249 171.094 173.019 169.902 175.217 168.046C176.759 166.746 178.023 165.115 178.89 163.278C179.401 162.179 180.717 161.713 181.809 162.232C182.904 162.747 183.371 164.051 182.856 165.147C181.918 167.124 180.637 168.908 179.099 170.426C179.961 173.075 181.579 175.35 183.693 177.041C186.11 178.978 189.157 180.122 192.451 180.122L193.466 180.082H193.47C195.556 179.933 197.484 179.333 199.196 178.398C198.93 177.138 198.777 175.85 198.777 174.545C198.777 171.855 199.377 169.113 200.617 166.536C201.145 165.445 202.453 164.99 203.541 165.517C204.632 166.037 205.095 167.35 204.567 168.441C203.613 170.418 203.166 172.496 203.166 174.545C203.166 175.978 203.388 177.408 203.814 178.765H203.819C204.942 182.344 207.479 185.473 211.131 187.228C213.104 188.183 215.181 188.63 217.227 188.63C220.476 188.63 223.653 187.494 226.174 185.437L226.182 185.433C227.713 184.172 228.993 182.578 229.915 180.673L229.919 180.665C230.777 178.885 231.228 177.021 231.304 175.161C231.36 173.952 232.379 173.01 233.595 173.067C234.803 173.119 235.737 174.142 235.684 175.35C235.579 177.79 234.988 180.254 233.864 182.577V182.573C232.962 184.453 231.775 186.109 230.382 187.522C232.966 191.234 237.267 193.574 241.918 193.57C242.779 193.57 243.657 193.489 244.539 193.32C247.925 192.684 250.78 190.892 252.809 188.428C254.835 185.959 256.015 182.823 256.015 179.512L256.011 179.215V179.199C255.995 178.454 255.918 177.673 255.773 176.887C255.423 175.023 254.71 173.331 253.732 171.838C252.315 170.589 250.74 168.959 249.255 167.147C247.672 165.214 246.215 163.1 245.236 160.97C244.592 159.545 244.133 158.104 244.125 156.586C244.125 155.913 244.217 155.217 244.471 154.549C244.717 153.868 245.119 153.224 245.659 152.692C246.512 151.843 247.897 151.843 248.755 152.692C249.609 153.554 249.609 154.947 248.755 155.797L248.59 156.059L248.505 156.586C248.497 157.138 248.727 158.072 249.222 159.147C249.713 160.218 250.442 161.422 251.3 162.61C252.999 164.989 255.202 167.325 256.86 168.75L257.086 168.944L257.251 169.189C258.608 171.211 259.603 173.538 260.082 176.079V176.083L260.239 177.17L260.895 177.198C263.674 177.194 266.472 176.372 268.932 174.645C270.889 173.268 272.379 171.5 273.386 169.515C274.396 167.526 274.924 165.327 274.924 163.113C274.924 161.039 274.456 158.957 273.522 157.021C272.656 157.299 271.778 157.52 270.889 157.673C269.697 157.886 268.565 157.077 268.352 155.886C268.15 154.69 268.956 153.562 270.148 153.353C274.029 152.684 277.585 150.422 279.783 146.79C281.177 144.507 281.833 141.994 281.833 139.51C281.833 135.849 280.419 132.27 277.786 129.616L277.78 129.614ZM177.331 112.888C179.424 110.411 182.203 108.651 185.19 107.5C188.19 106.348 191.403 105.796 194.488 105.796C197.488 105.801 200.37 106.308 202.818 107.444C203.914 107.943 204.393 109.251 203.885 110.351C203.382 111.446 202.081 111.929 200.974 111.422C199.283 110.629 196.968 110.174 194.488 110.174C191.935 110.174 189.213 110.644 186.769 111.595C184.325 112.533 182.179 113.935 180.668 115.714C179.895 116.641 178.506 116.761 177.58 115.972C176.658 115.191 176.542 113.81 177.331 112.888ZM227.227 164.725C224.678 164.725 222.367 164.435 220.257 163.948C220.314 164.552 220.354 165.224 220.354 165.937C220.354 167.367 220.196 169.001 219.75 170.716C219.299 172.427 218.538 174.227 217.338 175.955C216.65 176.953 215.284 177.199 214.29 176.51C213.291 175.821 213.05 174.461 213.73 173.458C214.615 172.181 215.167 170.877 215.506 169.592C215.844 168.308 215.969 167.06 215.969 165.937C215.973 164.386 215.735 163.11 215.566 162.381C214.495 161.898 213.508 161.354 212.587 160.746C208.915 158.37 206.459 155.234 204.916 152.25C203.882 150.249 203.253 148.316 202.915 146.637C202.722 145.678 202.625 144.809 202.625 144.019C202.625 142.803 203.608 141.821 204.82 141.821C206.031 141.821 207.014 142.803 207.014 144.019C207.01 144.655 207.147 145.723 207.493 146.935C207.84 148.151 208.391 149.532 209.188 150.921C210.787 153.715 213.328 156.514 217.25 158.33C219.871 159.546 223.132 160.335 227.227 160.335C228.439 160.335 229.421 161.318 229.421 162.529C229.421 163.743 228.439 164.725 227.227 164.725ZM242.665 148.715C242.214 149.835 240.938 150.383 239.81 149.935C238.687 149.484 238.147 148.216 238.59 147.093V147.088L238.602 147.056L238.667 146.863L238.893 146.074C239.058 145.382 239.227 144.403 239.227 143.328L239.223 143.175C236.211 144.198 233.417 144.656 230.844 144.656C226.954 144.664 223.588 143.598 220.85 141.979C218.108 140.361 215.974 138.218 214.379 136.04C212.567 133.572 210.192 131.357 207.47 129.791C204.74 128.22 201.688 127.286 198.447 127.278C195.608 127.286 192.588 127.995 189.435 129.726C186.444 131.369 184.519 133.555 183.275 135.955C182.039 138.359 181.515 140.984 181.519 143.376C181.511 145.591 181.978 147.595 182.586 148.86C183.105 149.955 182.634 151.26 181.543 151.779C180.452 152.299 179.143 151.828 178.624 150.737C177.67 148.715 177.138 146.17 177.13 143.376C177.134 140.598 177.686 137.561 179.043 134.659C176.322 135.275 173.793 135.549 171.49 135.549C170.245 135.549 169.073 135.468 167.958 135.323L167.551 136.145L167.547 136.152L167.515 136.185L167.398 136.334L166.931 136.97C166.532 137.542 165.98 138.376 165.38 139.438C164.185 141.544 162.816 144.516 162.151 147.853C161.914 149.041 160.762 149.819 159.574 149.577C158.386 149.339 157.613 148.188 157.859 146.992C158.648 143.034 160.207 139.667 161.563 137.272C162.272 136.032 162.921 135.05 163.395 134.381C161.608 133.846 160.061 133.189 158.797 132.52C155.91 130.986 154.408 129.448 154.28 129.323C153.442 128.449 153.466 127.064 154.336 126.223C155.209 125.385 156.591 125.409 157.432 126.271L157.457 126.295L157.585 126.42L158.213 126.947C158.784 127.398 159.667 128.018 160.846 128.646C163.214 129.894 166.749 131.159 171.489 131.167C174.818 131.167 178.744 130.531 183.306 128.776C184.462 127.7 185.794 126.718 187.325 125.881C191.077 123.823 194.858 122.897 198.446 122.897C202.545 122.897 206.358 124.089 209.66 125.989C212.961 127.898 215.76 130.511 217.914 133.451C219.223 135.226 220.942 136.946 223.072 138.197C225.214 139.454 227.746 140.272 230.843 140.275C232.965 140.275 235.356 139.881 238.062 138.93C237.402 137.871 236.42 136.848 234.801 135.922C233.746 135.322 233.372 133.986 233.968 132.935C234.567 131.876 235.9 131.513 236.955 132.101C239.548 133.563 241.284 135.5 242.29 137.525C243.309 139.542 243.611 141.588 243.611 143.327C243.599 146.364 242.725 148.559 242.665 148.715ZM241.844 121.855C236.722 121.855 232.241 120.474 228.617 118.384C228.105 119.093 227.421 119.983 226.539 120.949C224.554 123.127 221.638 125.684 217.737 127.085C216.589 127.488 215.341 126.9 214.934 125.757C214.528 124.613 215.128 123.361 216.259 122.958C219.138 121.931 221.546 119.914 223.213 118.09C223.986 117.256 224.586 116.467 225.021 115.863C222.859 114.036 221.152 111.954 219.98 109.812C218.869 107.758 218.224 105.64 218.217 103.583C218.217 102.375 219.199 101.392 220.411 101.392C221.619 101.392 222.601 102.375 222.601 103.583C222.593 104.69 222.98 106.168 223.833 107.718C224.675 109.272 225.955 110.891 227.63 112.341C230.98 115.244 235.816 117.466 241.844 117.466C243.056 117.466 244.034 118.453 244.034 119.665C244.034 120.872 243.055 121.855 241.844 121.855ZM259.125 152.726C258.356 153.652 256.971 153.789 256.037 153.012C255.103 152.243 254.974 150.858 255.739 149.928C258.131 147.024 259.013 144.101 259.02 141.303C259.029 138.754 258.247 136.294 257.023 134.22C255.815 132.15 254.145 130.492 252.538 129.57C251.459 128.95 250.444 128.672 249.639 128.672C248.426 128.672 247.448 127.694 247.448 126.482C247.448 125.27 248.427 124.287 249.639 124.287C250.971 124.287 252.276 124.613 253.516 125.161C254.752 125.701 255.92 126.47 257.007 127.408C259.177 129.284 261.022 131.837 262.181 134.829C262.946 136.826 263.413 139.017 263.413 141.304C263.417 145.064 262.133 149.09 259.125 152.726Z" fill="#816797"/>
<path d="M155.587 262.561L155.736 262.693C155.732 262.689 155.732 262.689 155.728 262.685L155.587 262.561Z" fill="#816797"/>
<path d="M287.211 85.1972C270.898 66.1235 246.365 53.1343 214.93 51.2373C212.373 51.0801 209.829 51 207.308 51C180.87 51 156.549 59.5845 138.72 75.3445C120.879 91.0638 109.77 114.079 109.81 141.645C109.81 142.269 109.814 142.893 109.826 143.522L109.798 146.847L87.1046 186.923C85.8846 189.085 85.2682 191.497 85.2682 193.909C85.2682 195.922 85.6956 197.944 86.5606 199.828C88.3929 203.826 91.9963 206.701 96.2644 207.691L96.2562 207.727L106.693 210.602L110.816 250.372L110.849 250.368C111.139 256.163 113.724 261.602 118.113 265.419C122.015 268.818 126.995 270.662 132.117 270.662C132.636 270.662 133.148 270.614 133.663 270.578L145.489 271.516L146.081 271.452L146.27 271.443C146.725 271.443 147.148 271.605 147.474 271.898L147.494 271.919C147.869 272.257 148.09 272.752 148.09 273.26V314H258.509V307.815C258.509 307.815 258.509 291.061 258.509 284.378C258.497 281.687 259.033 276.369 260.088 271.239C260.611 268.666 261.259 266.101 261.992 263.883C262.717 261.669 263.555 259.784 264.255 258.685C271.6 246.847 281.984 237.135 291.494 223.401C300.993 209.678 309.09 191.877 311.309 164.867C311.591 161.481 311.732 158.094 311.732 154.725C311.732 129.119 303.55 104.254 287.211 85.1972ZM298.98 163.835C296.834 188.941 289.811 203.963 281.307 216.385C272.815 228.795 262.314 238.551 253.766 252.125C252.276 254.525 251.185 257.183 250.247 260.009C248.854 264.241 247.859 268.855 247.179 273.152C246.502 277.46 246.144 281.366 246.14 284.378C246.14 288.67 246.14 295.161 246.14 301.631H160.46V273.26C160.46 269.229 158.744 265.392 155.74 262.699C153.119 260.343 149.737 259.071 146.27 259.071C146.016 259.071 145.771 259.099 145.521 259.115L133.707 258.173L133.128 258.237L132.117 258.294C129.967 258.294 127.873 257.517 126.234 256.091C124.342 254.444 123.222 252.077 123.149 249.56L123.146 249.327L118.129 200.928L99.3249 195.742L99.0994 195.698C98.5276 195.585 98.0489 195.207 97.8028 194.675L97.6374 193.91L97.8712 193.016L122.143 150.154L122.195 143.458V143.369C122.183 142.79 122.179 142.217 122.179 141.646C122.22 117.375 131.653 98.1597 146.914 84.6106C162.191 71.0933 183.523 63.3702 207.308 63.3702C209.575 63.3702 211.862 63.4427 214.165 63.5839L214.548 57.4111L214.169 63.5839C242.649 65.3756 263.611 76.7386 277.82 93.2511C292.006 109.776 299.363 131.724 299.363 154.724C299.363 157.747 299.238 160.787 298.98 163.835Z" fill="#816797"/>
<path d="M127.82 119.47L96.5695 115.125L103.629 64.3447L62.0598 134.222L93.3105 138.567L86.2507 189.347L127.82 119.47Z" fill="#D6D5A8"/>
</g>
<path d="M295.451 223.576L326.846 226.717L331.949 175.703L355.884 253.408L324.489 250.267L319.385 301.281L295.451 223.576Z" fill="#D6D5A8"/>
<path d="M50 60.8146C50 78.1758 64.2037 92.25 81.725 92.25H129.312C143.914 92.25 155.75 80.4054 155.75 65.7943C155.75 54.9455 149.225 44.9263 139.887 40.8438C138.899 23.6447 124.518 10 106.925 10C93.1895 10 81.4133 18.7324 76.4375 30.5625C60.575 33.1328 50 46.4256 50 60.8146Z" fill="white" stroke="white" stroke-width="2" stroke-linecap="round" stroke-linejoin="round"/>
<path d="M276 173.815C276 191.176 290.204 205.25 307.725 205.25H355.312C369.914 205.25 381.75 193.405 381.75 178.794C381.75 167.946 375.225 157.926 365.887 153.844C364.899 136.645 350.518 123 332.925 123C319.189 123 307.413 131.732 302.438 143.562C286.575 146.133 276 159.426 276 173.815Z" fill="white" stroke="white" stroke-width="2" stroke-linecap="round" stroke-linejoin="round"/>
<path d="M47.2109 343V327H58.3672V330.141H51.0781V333.422H57.7969V336.57H51.0781V339.859H58.3672V343H47.2109ZM64.6094 336.156V343H60.7891V331H64.4219V333.203H64.5547C64.8203 332.469 65.2734 331.893 65.9141 331.477C66.5547 331.055 67.3177 330.844 68.2031 330.844C69.0469 330.844 69.7786 331.034 70.3984 331.414C71.0234 331.789 71.5078 332.315 71.8516 332.992C72.2005 333.664 72.3724 334.451 72.3672 335.352V343H68.5469V336.102C68.5521 335.435 68.3828 334.914 68.0391 334.539C67.7005 334.164 67.2292 333.977 66.625 333.977C66.224 333.977 65.8698 334.065 65.5625 334.242C65.2604 334.414 65.026 334.661 64.8594 334.984C64.6979 335.307 64.6146 335.698 64.6094 336.156ZM78.5527 336.156V343H74.7324V327H78.4277V333.203H78.5605C78.8314 332.464 79.2741 331.885 79.8887 331.469C80.5085 331.052 81.2663 330.844 82.1621 330.844C83.0059 330.844 83.7402 331.031 84.3652 331.406C84.9902 331.776 85.4746 332.299 85.8184 332.977C86.1673 333.654 86.3392 334.445 86.334 335.352V343H82.5137V336.102C82.5189 335.435 82.3522 334.914 82.0137 334.539C81.6751 334.164 81.1986 333.977 80.584 333.977C80.1829 333.977 79.8288 334.065 79.5215 334.242C79.2194 334.414 78.9824 334.661 78.8105 334.984C78.6439 335.307 78.5579 335.698 78.5527 336.156ZM92.1016 343.203C91.3359 343.203 90.6563 343.076 90.0625 342.82C89.474 342.56 89.0078 342.169 88.6641 341.648C88.3255 341.122 88.1563 340.464 88.1563 339.672C88.1563 339.005 88.2734 338.443 88.5078 337.984C88.7422 337.526 89.0651 337.154 89.4766 336.867C89.888 336.581 90.362 336.365 90.8984 336.219C91.4349 336.068 92.0078 335.966 92.6172 335.914C93.2995 335.852 93.849 335.786 94.2656 335.719C94.6823 335.646 94.9844 335.544 95.1719 335.414C95.3646 335.279 95.4609 335.089 95.4609 334.844V334.805C95.4609 334.404 95.3229 334.094 95.0469 333.875C94.7708 333.656 94.3984 333.547 93.9297 333.547C93.4245 333.547 93.0182 333.656 92.7109 333.875C92.4036 334.094 92.2083 334.396 92.125 334.781L88.6016 334.656C88.7057 333.927 88.974 333.276 89.4063 332.703C89.8438 332.125 90.4427 331.672 91.2031 331.344C91.9688 331.01 92.888 330.844 93.9609 330.844C94.7266 330.844 95.4323 330.935 96.0781 331.117C96.724 331.294 97.2865 331.555 97.7656 331.898C98.2448 332.237 98.6146 332.654 98.875 333.148C99.1406 333.643 99.2734 334.208 99.2734 334.844V343H95.6797V341.328H95.5859C95.3724 341.734 95.099 342.078 94.7656 342.359C94.4375 342.641 94.0495 342.852 93.6016 342.992C93.1589 343.133 92.6589 343.203 92.1016 343.203ZM93.2813 340.703C93.6927 340.703 94.0625 340.62 94.3906 340.453C94.724 340.286 94.9896 340.057 95.1875 339.766C95.3854 339.469 95.4844 339.125 95.4844 338.734V337.594C95.375 337.651 95.2422 337.703 95.0859 337.75C94.9349 337.797 94.7682 337.841 94.5859 337.883C94.4036 337.924 94.2161 337.961 94.0234 337.992C93.8307 338.023 93.6458 338.052 93.4688 338.078C93.1094 338.135 92.8021 338.224 92.5469 338.344C92.2969 338.464 92.1042 338.62 91.9688 338.812C91.8385 339 91.7734 339.224 91.7734 339.484C91.7734 339.88 91.9141 340.182 92.1953 340.391C92.4818 340.599 92.8438 340.703 93.2813 340.703ZM105.43 336.156V343H101.609V331H105.242V333.203H105.375C105.641 332.469 106.094 331.893 106.734 331.477C107.375 331.055 108.138 330.844 109.023 330.844C109.867 330.844 110.599 331.034 111.219 331.414C111.844 331.789 112.328 332.315 112.672 332.992C113.021 333.664 113.193 334.451 113.188 335.352V343H109.367V336.102C109.372 335.435 109.203 334.914 108.859 334.539C108.521 334.164 108.049 333.977 107.445 333.977C107.044 333.977 106.69 334.065 106.383 334.242C106.081 334.414 105.846 334.661 105.68 334.984C105.518 335.307 105.435 335.698 105.43 336.156ZM121.154 343.227C119.889 343.227 118.803 342.966 117.896 342.445C116.995 341.924 116.303 341.201 115.818 340.273C115.334 339.341 115.092 338.263 115.092 337.039C115.092 335.81 115.334 334.732 115.818 333.805C116.308 332.872 117.003 332.146 117.904 331.625C118.811 331.104 119.891 330.844 121.146 330.844C122.256 330.844 123.222 331.044 124.045 331.445C124.873 331.846 125.519 332.414 125.982 333.148C126.451 333.878 126.699 334.734 126.725 335.719H123.154C123.081 335.104 122.873 334.622 122.529 334.273C122.191 333.924 121.748 333.75 121.201 333.75C120.758 333.75 120.37 333.875 120.037 334.125C119.704 334.37 119.443 334.734 119.256 335.219C119.074 335.698 118.982 336.292 118.982 337C118.982 337.708 119.074 338.307 119.256 338.797C119.443 339.281 119.704 339.648 120.037 339.898C120.37 340.143 120.758 340.266 121.201 340.266C121.555 340.266 121.868 340.19 122.139 340.039C122.415 339.888 122.641 339.667 122.818 339.375C122.995 339.078 123.107 338.719 123.154 338.297H126.725C126.688 339.286 126.441 340.151 125.982 340.891C125.529 341.63 124.891 342.206 124.068 342.617C123.251 343.023 122.279 343.227 121.154 343.227ZM134.289 343.227C133.034 343.227 131.951 342.979 131.039 342.484C130.133 341.984 129.435 341.273 128.945 340.352C128.461 339.424 128.219 338.323 128.219 337.047C128.219 335.807 128.464 334.724 128.953 333.797C129.443 332.865 130.133 332.141 131.023 331.625C131.914 331.104 132.964 330.844 134.172 330.844C135.026 330.844 135.807 330.977 136.516 331.242C137.224 331.508 137.836 331.901 138.352 332.422C138.867 332.943 139.268 333.586 139.555 334.352C139.841 335.112 139.984 335.984 139.984 336.969V337.922H129.555V335.703H136.43C136.424 335.297 136.328 334.935 136.141 334.617C135.953 334.299 135.695 334.052 135.367 333.875C135.044 333.693 134.672 333.602 134.25 333.602C133.823 333.602 133.44 333.698 133.102 333.891C132.763 334.078 132.495 334.336 132.297 334.664C132.099 334.987 131.995 335.354 131.984 335.766V338.023C131.984 338.513 132.081 338.943 132.273 339.312C132.466 339.677 132.74 339.961 133.094 340.164C133.448 340.367 133.87 340.469 134.359 340.469C134.698 340.469 135.005 340.422 135.281 340.328C135.557 340.234 135.794 340.096 135.992 339.914C136.19 339.732 136.339 339.508 136.438 339.242L139.945 339.344C139.799 340.13 139.479 340.815 138.984 341.398C138.495 341.977 137.852 342.427 137.055 342.75C136.258 343.068 135.336 343.227 134.289 343.227ZM146.318 343.172C145.433 343.172 144.628 342.943 143.904 342.484C143.18 342.026 142.602 341.339 142.17 340.422C141.738 339.505 141.521 338.367 141.521 337.008C141.521 335.596 141.745 334.435 142.193 333.523C142.641 332.612 143.227 331.937 143.951 331.5C144.68 331.062 145.464 330.844 146.303 330.844C146.933 330.844 147.472 330.953 147.92 331.172C148.368 331.385 148.738 331.661 149.029 332C149.321 332.339 149.542 332.69 149.693 333.055H149.771V327H153.592V343H149.811V341.055H149.693C149.532 341.424 149.303 341.771 149.006 342.094C148.709 342.417 148.337 342.677 147.889 342.875C147.446 343.073 146.923 343.172 146.318 343.172ZM147.646 340.195C148.11 340.195 148.506 340.065 148.834 339.805C149.162 339.539 149.415 339.167 149.592 338.687C149.769 338.208 149.857 337.646 149.857 337C149.857 336.344 149.769 335.779 149.592 335.305C149.42 334.831 149.167 334.466 148.834 334.211C148.506 333.956 148.11 333.828 147.646 333.828C147.173 333.828 146.771 333.958 146.443 334.219C146.115 334.479 145.865 334.846 145.693 335.32C145.527 335.794 145.443 336.354 145.443 337C145.443 337.646 145.529 338.208 145.701 338.687C145.873 339.167 146.12 339.539 146.443 339.805C146.771 340.065 147.173 340.195 147.646 340.195ZM170.414 327H174.273V337.32C174.273 338.513 173.99 339.552 173.422 340.437C172.854 341.318 172.063 342 171.047 342.484C170.031 342.964 168.852 343.203 167.508 343.203C166.148 343.203 164.961 342.964 163.945 342.484C162.93 342 162.141 341.318 161.578 340.437C161.016 339.552 160.734 338.513 160.734 337.32V327H164.602V336.984C164.602 337.536 164.721 338.029 164.961 338.461C165.206 338.893 165.547 339.232 165.984 339.477C166.422 339.721 166.93 339.844 167.508 339.844C168.086 339.844 168.591 339.721 169.023 339.477C169.461 339.232 169.802 338.893 170.047 338.461C170.292 338.029 170.414 337.536 170.414 336.984V327ZM180.518 336.156V343H176.697V331H180.33V333.203H180.463C180.729 332.469 181.182 331.893 181.822 331.477C182.463 331.055 183.226 330.844 184.111 330.844C184.955 330.844 185.687 331.034 186.307 331.414C186.932 331.789 187.416 332.315 187.76 332.992C188.109 333.664 188.281 334.451 188.275 335.352V343H184.455V336.102C184.46 335.435 184.291 334.914 183.947 334.539C183.609 334.164 183.137 333.977 182.533 333.977C182.132 333.977 181.778 334.065 181.471 334.242C181.169 334.414 180.934 334.661 180.768 334.984C180.606 335.307 180.523 335.698 180.518 336.156ZM195.023 343.172C194.138 343.172 193.333 342.943 192.609 342.484C191.885 342.026 191.307 341.339 190.875 340.422C190.443 339.505 190.227 338.367 190.227 337.008C190.227 335.596 190.451 334.435 190.898 333.523C191.346 332.612 191.932 331.937 192.656 331.5C193.385 331.062 194.169 330.844 195.008 330.844C195.638 330.844 196.177 330.953 196.625 331.172C197.073 331.385 197.443 331.661 197.734 332C198.026 332.339 198.247 332.69 198.398 333.055H198.477V327H202.297V343H198.516V341.055H198.398C198.237 341.424 198.008 341.771 197.711 342.094C197.414 342.417 197.042 342.677 196.594 342.875C196.151 343.073 195.628 343.172 195.023 343.172ZM196.352 340.195C196.815 340.195 197.211 340.065 197.539 339.805C197.867 339.539 198.12 339.167 198.297 338.687C198.474 338.208 198.563 337.646 198.563 337C198.563 336.344 198.474 335.779 198.297 335.305C198.125 334.831 197.872 334.466 197.539 334.211C197.211 333.956 196.815 333.828 196.352 333.828C195.878 333.828 195.477 333.958 195.148 334.219C194.82 334.479 194.57 334.846 194.398 335.32C194.232 335.794 194.148 336.354 194.148 337C194.148 337.646 194.234 338.208 194.406 338.687C194.578 339.167 194.826 339.539 195.148 339.805C195.477 340.065 195.878 340.195 196.352 340.195ZM210.322 343.227C209.067 343.227 207.984 342.979 207.072 342.484C206.166 341.984 205.468 341.273 204.979 340.352C204.494 339.424 204.252 338.323 204.252 337.047C204.252 335.807 204.497 334.724 204.986 333.797C205.476 332.865 206.166 332.141 207.057 331.625C207.947 331.104 208.997 330.844 210.205 330.844C211.059 330.844 211.84 330.977 212.549 331.242C213.257 331.508 213.869 331.901 214.385 332.422C214.9 332.943 215.301 333.586 215.588 334.352C215.874 335.112 216.018 335.984 216.018 336.969V337.922H205.588V335.703H212.463C212.458 335.297 212.361 334.935 212.174 334.617C211.986 334.299 211.729 334.052 211.4 333.875C211.077 333.693 210.705 333.602 210.283 333.602C209.856 333.602 209.473 333.698 209.135 333.891C208.796 334.078 208.528 334.336 208.33 334.664C208.132 334.987 208.028 335.354 208.018 335.766V338.023C208.018 338.513 208.114 338.943 208.307 339.312C208.499 339.677 208.773 339.961 209.127 340.164C209.481 340.367 209.903 340.469 210.393 340.469C210.731 340.469 211.038 340.422 211.314 340.328C211.59 340.234 211.827 340.096 212.025 339.914C212.223 339.732 212.372 339.508 212.471 339.242L215.979 339.344C215.833 340.13 215.512 340.815 215.018 341.398C214.528 341.977 213.885 342.427 213.088 342.75C212.291 343.068 211.369 343.227 210.322 343.227ZM217.969 343V331H221.68V333.187H221.805C222.023 332.396 222.38 331.807 222.875 331.422C223.37 331.031 223.945 330.836 224.602 330.836C224.779 330.836 224.961 330.849 225.148 330.875C225.336 330.896 225.51 330.93 225.672 330.977V334.297C225.49 334.234 225.25 334.185 224.953 334.148C224.661 334.112 224.401 334.094 224.172 334.094C223.719 334.094 223.31 334.195 222.945 334.398C222.586 334.596 222.302 334.875 222.094 335.234C221.891 335.589 221.789 336.005 221.789 336.484V343H217.969ZM237.705 334.664L234.197 334.758C234.161 334.508 234.062 334.286 233.9 334.094C233.739 333.896 233.528 333.742 233.268 333.633C233.012 333.518 232.715 333.461 232.377 333.461C231.934 333.461 231.557 333.549 231.244 333.727C230.937 333.904 230.786 334.143 230.791 334.445C230.786 334.68 230.88 334.883 231.072 335.055C231.27 335.227 231.622 335.365 232.127 335.469L234.439 335.906C235.637 336.135 236.528 336.516 237.111 337.047C237.7 337.578 237.997 338.281 238.002 339.156C237.997 339.979 237.752 340.695 237.268 341.305C236.788 341.914 236.132 342.388 235.299 342.727C234.465 343.06 233.512 343.227 232.439 343.227C230.726 343.227 229.374 342.875 228.385 342.172C227.4 341.464 226.838 340.516 226.697 339.328L230.471 339.234C230.554 339.672 230.77 340.005 231.119 340.234C231.468 340.464 231.913 340.578 232.455 340.578C232.945 340.578 233.343 340.487 233.65 340.305C233.958 340.122 234.114 339.88 234.119 339.578C234.114 339.307 233.994 339.091 233.76 338.93C233.525 338.763 233.158 338.633 232.658 338.539L230.564 338.141C229.361 337.922 228.465 337.518 227.877 336.93C227.288 336.336 226.997 335.581 227.002 334.664C226.997 333.862 227.21 333.177 227.643 332.609C228.075 332.036 228.689 331.599 229.486 331.297C230.283 330.995 231.223 330.844 232.307 330.844C233.932 330.844 235.213 331.185 236.15 331.867C237.088 332.544 237.606 333.477 237.705 334.664ZM246.656 331V333.812H239.086V331H246.656ZM240.672 328.125H244.492V339.227C244.492 339.461 244.529 339.651 244.602 339.797C244.68 339.937 244.792 340.039 244.938 340.102C245.083 340.159 245.258 340.188 245.461 340.188C245.607 340.188 245.76 340.174 245.922 340.148C246.089 340.117 246.214 340.091 246.297 340.07L246.875 342.828C246.693 342.88 246.435 342.945 246.102 343.023C245.773 343.102 245.38 343.151 244.922 343.172C244.026 343.214 243.258 343.109 242.617 342.859C241.982 342.604 241.495 342.208 241.156 341.672C240.823 341.135 240.661 340.461 240.672 339.648V328.125ZM251.988 343.203C251.223 343.203 250.543 343.076 249.949 342.82C249.361 342.56 248.895 342.169 248.551 341.648C248.212 341.122 248.043 340.464 248.043 339.672C248.043 339.005 248.16 338.443 248.395 337.984C248.629 337.526 248.952 337.154 249.363 336.867C249.775 336.581 250.249 336.365 250.785 336.219C251.322 336.068 251.895 335.966 252.504 335.914C253.186 335.852 253.736 335.786 254.152 335.719C254.569 335.646 254.871 335.544 255.059 335.414C255.251 335.279 255.348 335.089 255.348 334.844V334.805C255.348 334.404 255.21 334.094 254.934 333.875C254.658 333.656 254.285 333.547 253.816 333.547C253.311 333.547 252.905 333.656 252.598 333.875C252.29 334.094 252.095 334.396 252.012 334.781L248.488 334.656C248.592 333.927 248.861 333.276 249.293 332.703C249.73 332.125 250.329 331.672 251.09 331.344C251.855 331.01 252.775 330.844 253.848 330.844C254.613 330.844 255.319 330.935 255.965 331.117C256.611 331.294 257.173 331.555 257.652 331.898C258.132 332.237 258.501 332.654 258.762 333.148C259.027 333.643 259.16 334.208 259.16 334.844V343H255.566V341.328H255.473C255.259 341.734 254.986 342.078 254.652 342.359C254.324 342.641 253.936 342.852 253.488 342.992C253.046 343.133 252.546 343.203 251.988 343.203ZM253.168 340.703C253.579 340.703 253.949 340.62 254.277 340.453C254.611 340.286 254.876 340.057 255.074 339.766C255.272 339.469 255.371 339.125 255.371 338.734V337.594C255.262 337.651 255.129 337.703 254.973 337.75C254.822 337.797 254.655 337.841 254.473 337.883C254.29 337.924 254.103 337.961 253.91 337.992C253.717 338.023 253.533 338.052 253.355 338.078C252.996 338.135 252.689 338.224 252.434 338.344C252.184 338.464 251.991 338.62 251.855 338.812C251.725 339 251.66 339.224 251.66 339.484C251.66 339.88 251.801 340.182 252.082 340.391C252.368 340.599 252.73 340.703 253.168 340.703ZM265.316 336.156V343H261.496V331H265.129V333.203H265.262C265.527 332.469 265.98 331.893 266.621 331.477C267.262 331.055 268.025 330.844 268.91 330.844C269.754 330.844 270.486 331.034 271.105 331.414C271.73 331.789 272.215 332.315 272.559 332.992C272.908 333.664 273.079 334.451 273.074 335.352V343H269.254V336.102C269.259 335.435 269.09 334.914 268.746 334.539C268.408 334.164 267.936 333.977 267.332 333.977C266.931 333.977 266.577 334.065 266.27 334.242C265.967 334.414 265.733 334.661 265.566 334.984C265.405 335.307 265.322 335.698 265.316 336.156ZM279.822 343.172C278.937 343.172 278.132 342.943 277.408 342.484C276.684 342.026 276.106 341.339 275.674 340.422C275.242 339.505 275.025 338.367 275.025 337.008C275.025 335.596 275.249 334.435 275.697 333.523C276.145 332.612 276.731 331.937 277.455 331.5C278.184 331.062 278.968 330.844 279.807 330.844C280.437 330.844 280.976 330.953 281.424 331.172C281.872 331.385 282.242 331.661 282.533 332C282.825 332.339 283.046 332.69 283.197 333.055H283.275V327H287.096V343H283.314V341.055H283.197C283.036 341.424 282.807 341.771 282.51 342.094C282.213 342.417 281.84 342.677 281.393 342.875C280.95 343.073 280.426 343.172 279.822 343.172ZM281.15 340.195C281.614 340.195 282.01 340.065 282.338 339.805C282.666 339.539 282.919 339.167 283.096 338.687C283.273 338.208 283.361 337.646 283.361 337C283.361 336.344 283.273 335.779 283.096 335.305C282.924 334.831 282.671 334.466 282.338 334.211C282.01 333.956 281.614 333.828 281.15 333.828C280.676 333.828 280.275 333.958 279.947 334.219C279.619 334.479 279.369 334.846 279.197 335.32C279.031 335.794 278.947 336.354 278.947 337C278.947 337.646 279.033 338.208 279.205 338.687C279.377 339.167 279.624 339.539 279.947 339.805C280.275 340.065 280.676 340.195 281.15 340.195ZM289.512 343V331H293.332V343H289.512ZM291.426 329.602C290.889 329.602 290.428 329.424 290.043 329.07C289.658 328.711 289.465 328.279 289.465 327.773C289.465 327.273 289.658 326.846 290.043 326.492C290.428 326.133 290.889 325.953 291.426 325.953C291.967 325.953 292.428 326.133 292.809 326.492C293.194 326.846 293.387 327.273 293.387 327.773C293.387 328.279 293.194 328.711 292.809 329.07C292.428 329.424 291.967 329.602 291.426 329.602ZM299.584 336.156V343H295.764V331H299.396V333.203H299.529C299.795 332.469 300.248 331.893 300.889 331.477C301.529 331.055 302.292 330.844 303.178 330.844C304.021 330.844 304.753 331.034 305.373 331.414C305.998 331.789 306.482 332.315 306.826 332.992C307.175 333.664 307.347 334.451 307.342 335.352V343H303.521V336.102C303.527 335.435 303.357 334.914 303.014 334.539C302.675 334.164 302.204 333.977 301.6 333.977C301.199 333.977 300.844 334.065 300.537 334.242C300.235 334.414 300.001 334.661 299.834 334.984C299.673 335.307 299.589 335.698 299.584 336.156ZM315.301 347.75C314.16 347.75 313.184 347.591 312.371 347.273C311.559 346.956 310.921 346.521 310.457 345.969C309.993 345.417 309.715 344.792 309.621 344.094L313.238 343.891C313.306 344.135 313.431 344.349 313.613 344.531C313.801 344.714 314.043 344.854 314.34 344.953C314.642 345.052 314.996 345.102 315.402 345.102C316.043 345.102 316.572 344.945 316.988 344.633C317.41 344.326 317.621 343.786 317.621 343.016V340.906H317.488C317.337 341.276 317.108 341.607 316.801 341.898C316.493 342.19 316.111 342.419 315.652 342.586C315.199 342.753 314.678 342.836 314.09 342.836C313.215 342.836 312.413 342.633 311.684 342.227C310.96 341.815 310.379 341.18 309.941 340.32C309.509 339.456 309.293 338.344 309.293 336.984C309.293 335.583 309.517 334.43 309.965 333.523C310.413 332.612 310.999 331.937 311.723 331.5C312.452 331.062 313.236 330.844 314.074 330.844C314.704 330.844 315.243 330.953 315.691 331.172C316.145 331.385 316.517 331.661 316.809 332C317.1 332.339 317.322 332.69 317.473 333.055H317.582V331H321.387V343.047C321.387 344.063 321.132 344.919 320.621 345.617C320.111 346.315 319.397 346.844 318.48 347.203C317.564 347.568 316.504 347.75 315.301 347.75ZM315.418 340.055C315.882 340.055 316.277 339.932 316.605 339.687C316.934 339.443 317.186 339.091 317.363 338.633C317.54 338.174 317.629 337.625 317.629 336.984C317.629 336.333 317.54 335.773 317.363 335.305C317.191 334.831 316.939 334.466 316.605 334.211C316.277 333.956 315.882 333.828 315.418 333.828C314.944 333.828 314.543 333.958 314.215 334.219C313.887 334.479 313.637 334.846 313.465 335.32C313.298 335.789 313.215 336.344 313.215 336.984C313.215 337.625 313.301 338.174 313.473 338.633C313.645 339.091 313.892 339.443 314.215 339.687C314.543 339.932 314.944 340.055 315.418 340.055ZM52.8125 370.227C51.5521 370.227 50.4688 369.969 49.5625 369.453C48.6615 368.932 47.9661 368.208 47.4766 367.281C46.9922 366.349 46.75 365.268 46.75 364.039C46.75 362.805 46.9922 361.724 47.4766 360.797C47.9661 359.865 48.6615 359.141 49.5625 358.625C50.4688 358.104 51.5521 357.844 52.8125 357.844C54.0729 357.844 55.1536 358.104 56.0547 358.625C56.9609 359.141 57.6563 359.865 58.1406 360.797C58.6302 361.724 58.875 362.805 58.875 364.039C58.875 365.268 58.6302 366.349 58.1406 367.281C57.6563 368.208 56.9609 368.932 56.0547 369.453C55.1536 369.969 54.0729 370.227 52.8125 370.227ZM52.8359 367.344C53.2943 367.344 53.6823 367.203 54 366.922C54.3177 366.641 54.5599 366.25 54.7266 365.75C54.8984 365.25 54.9844 364.672 54.9844 364.016C54.9844 363.349 54.8984 362.766 54.7266 362.266C54.5599 361.766 54.3177 361.375 54 361.094C53.6823 360.812 53.2943 360.672 52.8359 360.672C52.362 360.672 51.9609 360.812 51.6328 361.094C51.3099 361.375 51.0625 361.766 50.8906 362.266C50.724 362.766 50.6406 363.349 50.6406 364.016C50.6406 364.672 50.724 365.25 50.8906 365.75C51.0625 366.25 51.3099 366.641 51.6328 366.922C51.9609 367.203 52.362 367.344 52.8359 367.344ZM67.6523 358V360.812H59.9336V358H67.6523ZM61.543 370V357.391C61.543 356.464 61.7174 355.695 62.0664 355.086C62.4154 354.471 62.8997 354.013 63.5195 353.711C64.1393 353.404 64.8555 353.25 65.668 353.25C66.1992 353.25 66.6992 353.292 67.168 353.375C67.6419 353.453 67.9935 353.523 68.2227 353.586L67.6133 356.383C67.4727 356.336 67.3008 356.297 67.0977 356.266C66.8997 356.234 66.7122 356.219 66.5352 356.219C66.0872 356.219 65.7799 356.318 65.6133 356.516C65.4466 356.714 65.3633 356.984 65.3633 357.328V370H61.543ZM88.7402 359.797H84.834C84.7819 359.396 84.6751 359.034 84.5137 358.711C84.3522 358.388 84.1387 358.112 83.873 357.883C83.6074 357.654 83.2923 357.479 82.9277 357.359C82.5684 357.234 82.1699 357.172 81.7324 357.172C80.9564 357.172 80.2871 357.362 79.7246 357.742C79.1673 358.122 78.7376 358.672 78.4355 359.391C78.1387 360.109 77.9902 360.979 77.9902 362C77.9902 363.062 78.1413 363.953 78.4434 364.672C78.7507 365.385 79.1803 365.924 79.7324 366.289C80.2897 366.648 80.9486 366.828 81.709 366.828C82.1361 366.828 82.5241 366.773 82.873 366.664C83.2272 366.555 83.5371 366.396 83.8027 366.188C84.0736 365.974 84.2949 365.716 84.4668 365.414C84.6439 365.107 84.7663 364.76 84.834 364.375L88.7402 364.398C88.6725 365.107 88.4668 365.805 88.123 366.492C87.7845 367.18 87.3184 367.807 86.7246 368.375C86.1309 368.937 85.4069 369.385 84.5527 369.719C83.7038 370.052 82.7298 370.219 81.6309 370.219C80.1829 370.219 78.8861 369.901 77.7402 369.266C76.5996 368.625 75.6986 367.693 75.0371 366.469C74.3757 365.245 74.0449 363.755 74.0449 362C74.0449 360.24 74.3809 358.747 75.0527 357.523C75.7246 356.299 76.6335 355.37 77.7793 354.734C78.9251 354.099 80.209 353.781 81.6309 353.781C82.5996 353.781 83.4954 353.917 84.3184 354.188C85.1413 354.453 85.8652 354.844 86.4902 355.359C87.1152 355.87 87.623 356.497 88.0137 357.242C88.4043 357.987 88.6465 358.839 88.7402 359.797ZM96.5547 370.227C95.2943 370.227 94.2109 369.969 93.3047 369.453C92.4036 368.932 91.7083 368.208 91.2187 367.281C90.7344 366.349 90.4922 365.268 90.4922 364.039C90.4922 362.805 90.7344 361.724 91.2187 360.797C91.7083 359.865 92.4036 359.141 93.3047 358.625C94.2109 358.104 95.2943 357.844 96.5547 357.844C97.8151 357.844 98.8958 358.104 99.7969 358.625C100.703 359.141 101.398 359.865 101.883 360.797C102.372 361.724 102.617 362.805 102.617 364.039C102.617 365.268 102.372 366.349 101.883 367.281C101.398 368.208 100.703 368.932 99.7969 369.453C98.8958 369.969 97.8151 370.227 96.5547 370.227ZM96.5781 367.344C97.0365 367.344 97.4245 367.203 97.7422 366.922C98.0599 366.641 98.3021 366.25 98.4688 365.75C98.6406 365.25 98.7266 364.672 98.7266 364.016C98.7266 363.349 98.6406 362.766 98.4688 362.266C98.3021 361.766 98.0599 361.375 97.7422 361.094C97.4245 360.812 97.0365 360.672 96.5781 360.672C96.1042 360.672 95.7031 360.812 95.375 361.094C95.0521 361.375 94.8047 361.766 94.6328 362.266C94.4661 362.766 94.3828 363.349 94.3828 364.016C94.3828 364.672 94.4661 365.25 94.6328 365.75C94.8047 366.25 95.0521 366.641 95.375 366.922C95.7031 367.203 96.1042 367.344 96.5781 367.344ZM104.574 370V358H108.207V360.203H108.34C108.59 359.474 109.012 358.898 109.605 358.477C110.199 358.055 110.908 357.844 111.73 357.844C112.564 357.844 113.277 358.057 113.871 358.484C114.465 358.911 114.842 359.484 115.004 360.203H115.129C115.353 359.49 115.79 358.919 116.441 358.492C117.092 358.06 117.861 357.844 118.746 357.844C119.882 357.844 120.803 358.208 121.512 358.937C122.22 359.661 122.574 360.656 122.574 361.922V370H118.754V362.797C118.754 362.198 118.6 361.742 118.293 361.43C117.986 361.112 117.587 360.953 117.098 360.953C116.572 360.953 116.158 361.125 115.855 361.469C115.559 361.807 115.41 362.263 115.41 362.836V370H111.738V362.758C111.738 362.201 111.587 361.76 111.285 361.437C110.983 361.115 110.585 360.953 110.09 360.953C109.757 360.953 109.462 361.034 109.207 361.195C108.952 361.352 108.751 361.576 108.605 361.867C108.465 362.159 108.395 362.503 108.395 362.898V370H104.574ZM124.941 374.5V358H128.723V360.055H128.84C128.996 359.69 129.217 359.339 129.504 359C129.796 358.661 130.165 358.385 130.613 358.172C131.066 357.953 131.608 357.844 132.238 357.844C133.072 357.844 133.85 358.062 134.574 358.5C135.303 358.937 135.892 359.612 136.34 360.523C136.788 361.435 137.012 362.596 137.012 364.008C137.012 365.367 136.796 366.505 136.363 367.422C135.936 368.339 135.358 369.026 134.629 369.484C133.905 369.943 133.1 370.172 132.215 370.172C131.611 370.172 131.087 370.073 130.645 369.875C130.202 369.677 129.829 369.417 129.527 369.094C129.23 368.771 129.001 368.424 128.84 368.055H128.762V374.5H124.941ZM128.684 364C128.684 364.646 128.77 365.208 128.941 365.687C129.118 366.167 129.371 366.539 129.699 366.805C130.033 367.065 130.431 367.195 130.895 367.195C131.363 367.195 131.762 367.065 132.09 366.805C132.418 366.539 132.665 366.167 132.832 365.687C133.004 365.208 133.09 364.646 133.09 364C133.09 363.354 133.004 362.794 132.832 362.32C132.665 361.846 132.418 361.479 132.09 361.219C131.767 360.958 131.368 360.828 130.895 360.828C130.426 360.828 130.027 360.956 129.699 361.211C129.371 361.466 129.118 361.831 128.941 362.305C128.77 362.779 128.684 363.344 128.684 364ZM142.834 354V370H139.014V354H142.834ZM150.875 370.227C149.62 370.227 148.536 369.979 147.625 369.484C146.719 368.984 146.021 368.273 145.531 367.352C145.047 366.424 144.805 365.323 144.805 364.047C144.805 362.807 145.049 361.724 145.539 360.797C146.029 359.865 146.719 359.141 147.609 358.625C148.5 358.104 149.549 357.844 150.758 357.844C151.612 357.844 152.393 357.977 153.102 358.242C153.81 358.508 154.422 358.901 154.938 359.422C155.453 359.943 155.854 360.586 156.141 361.352C156.427 362.112 156.57 362.984 156.57 363.969V364.922H146.141V362.703H153.016C153.01 362.297 152.914 361.935 152.727 361.617C152.539 361.299 152.281 361.052 151.953 360.875C151.63 360.693 151.258 360.602 150.836 360.602C150.409 360.602 150.026 360.698 149.688 360.891C149.349 361.078 149.081 361.336 148.883 361.664C148.685 361.987 148.581 362.354 148.57 362.766V365.023C148.57 365.513 148.667 365.943 148.859 366.312C149.052 366.677 149.326 366.961 149.68 367.164C150.034 367.367 150.456 367.469 150.945 367.469C151.284 367.469 151.591 367.422 151.867 367.328C152.143 367.234 152.38 367.096 152.578 366.914C152.776 366.732 152.924 366.508 153.023 366.242L156.531 366.344C156.385 367.13 156.065 367.815 155.57 368.398C155.081 368.977 154.438 369.427 153.641 369.75C152.844 370.068 151.922 370.227 150.875 370.227ZM161.6 358L163.576 361.953L165.623 358H169.475L166.123 364L169.6 370H165.779L163.576 366.016L161.428 370H157.553L161.037 364L157.725 358H161.6ZM190.469 359.797H186.563C186.51 359.396 186.404 359.034 186.242 358.711C186.081 358.388 185.867 358.112 185.602 357.883C185.336 357.654 185.021 357.479 184.656 357.359C184.297 357.234 183.898 357.172 183.461 357.172C182.685 357.172 182.016 357.362 181.453 357.742C180.896 358.122 180.466 358.672 180.164 359.391C179.867 360.109 179.719 360.979 179.719 362C179.719 363.062 179.87 363.953 180.172 364.672C180.479 365.385 180.909 365.924 181.461 366.289C182.018 366.648 182.677 366.828 183.438 366.828C183.865 366.828 184.253 366.773 184.602 366.664C184.956 366.555 185.266 366.396 185.531 366.188C185.802 365.974 186.023 365.716 186.195 365.414C186.372 365.107 186.495 364.76 186.563 364.375L190.469 364.398C190.401 365.107 190.195 365.805 189.852 366.492C189.513 367.18 189.047 367.807 188.453 368.375C187.859 368.937 187.135 369.385 186.281 369.719C185.432 370.052 184.458 370.219 183.359 370.219C181.911 370.219 180.615 369.901 179.469 369.266C178.328 368.625 177.427 367.693 176.766 366.469C176.104 365.245 175.773 363.755 175.773 362C175.773 360.24 176.109 358.747 176.781 357.523C177.453 356.299 178.362 355.37 179.508 354.734C180.654 354.099 181.938 353.781 183.359 353.781C184.328 353.781 185.224 353.917 186.047 354.188C186.87 354.453 187.594 354.844 188.219 355.359C188.844 355.87 189.352 356.497 189.742 357.242C190.133 357.987 190.375 358.839 190.469 359.797ZM198.283 370.227C197.023 370.227 195.939 369.969 195.033 369.453C194.132 368.932 193.437 368.208 192.947 367.281C192.463 366.349 192.221 365.268 192.221 364.039C192.221 362.805 192.463 361.724 192.947 360.797C193.437 359.865 194.132 359.141 195.033 358.625C195.939 358.104 197.023 357.844 198.283 357.844C199.544 357.844 200.624 358.104 201.525 358.625C202.432 359.141 203.127 359.865 203.611 360.797C204.101 361.724 204.346 362.805 204.346 364.039C204.346 365.268 204.101 366.349 203.611 367.281C203.127 368.208 202.432 368.932 201.525 369.453C200.624 369.969 199.544 370.227 198.283 370.227ZM198.307 367.344C198.765 367.344 199.153 367.203 199.471 366.922C199.788 366.641 200.031 366.25 200.197 365.75C200.369 365.25 200.455 364.672 200.455 364.016C200.455 363.349 200.369 362.766 200.197 362.266C200.031 361.766 199.788 361.375 199.471 361.094C199.153 360.812 198.765 360.672 198.307 360.672C197.833 360.672 197.432 360.812 197.104 361.094C196.781 361.375 196.533 361.766 196.361 362.266C196.195 362.766 196.111 363.349 196.111 364.016C196.111 364.672 196.195 365.25 196.361 365.75C196.533 366.25 196.781 366.641 197.104 366.922C197.432 367.203 197.833 367.344 198.307 367.344ZM210.123 363.156V370H206.303V358H209.936V360.203H210.068C210.334 359.469 210.787 358.893 211.428 358.477C212.068 358.055 212.831 357.844 213.717 357.844C214.561 357.844 215.292 358.034 215.912 358.414C216.537 358.789 217.021 359.315 217.365 359.992C217.714 360.664 217.886 361.451 217.881 362.352V370H214.061V363.102C214.066 362.435 213.896 361.914 213.553 361.539C213.214 361.164 212.743 360.977 212.139 360.977C211.738 360.977 211.383 361.065 211.076 361.242C210.774 361.414 210.54 361.661 210.373 361.984C210.212 362.307 210.128 362.698 210.123 363.156ZM225.848 370.227C224.582 370.227 223.496 369.966 222.59 369.445C221.689 368.924 220.996 368.201 220.512 367.273C220.027 366.341 219.785 365.263 219.785 364.039C219.785 362.81 220.027 361.732 220.512 360.805C221.001 359.872 221.697 359.146 222.598 358.625C223.504 358.104 224.585 357.844 225.84 357.844C226.949 357.844 227.915 358.044 228.738 358.445C229.566 358.846 230.212 359.414 230.676 360.148C231.145 360.878 231.392 361.734 231.418 362.719H227.848C227.775 362.104 227.566 361.622 227.223 361.273C226.884 360.924 226.441 360.75 225.895 360.75C225.452 360.75 225.064 360.875 224.73 361.125C224.397 361.37 224.137 361.734 223.949 362.219C223.767 362.698 223.676 363.292 223.676 364C223.676 364.708 223.767 365.307 223.949 365.797C224.137 366.281 224.397 366.648 224.73 366.898C225.064 367.143 225.452 367.266 225.895 367.266C226.249 367.266 226.561 367.19 226.832 367.039C227.108 366.888 227.335 366.667 227.512 366.375C227.689 366.078 227.801 365.719 227.848 365.297H231.418C231.382 366.286 231.134 367.151 230.676 367.891C230.223 368.63 229.585 369.206 228.762 369.617C227.944 370.023 226.973 370.227 225.848 370.227ZM238.982 370.227C237.727 370.227 236.644 369.979 235.732 369.484C234.826 368.984 234.128 368.273 233.639 367.352C233.154 366.424 232.912 365.323 232.912 364.047C232.912 362.807 233.157 361.724 233.646 360.797C234.136 359.865 234.826 359.141 235.717 358.625C236.607 358.104 237.657 357.844 238.865 357.844C239.719 357.844 240.501 357.977 241.209 358.242C241.917 358.508 242.529 358.901 243.045 359.422C243.561 359.943 243.962 360.586 244.248 361.352C244.535 362.112 244.678 362.984 244.678 363.969V364.922H234.248V362.703H241.123C241.118 362.297 241.021 361.935 240.834 361.617C240.646 361.299 240.389 361.052 240.061 360.875C239.738 360.693 239.365 360.602 238.943 360.602C238.516 360.602 238.133 360.698 237.795 360.891C237.456 361.078 237.188 361.336 236.99 361.664C236.792 361.987 236.688 362.354 236.678 362.766V365.023C236.678 365.513 236.774 365.943 236.967 366.312C237.16 366.677 237.433 366.961 237.787 367.164C238.141 367.367 238.563 367.469 239.053 367.469C239.391 367.469 239.699 367.422 239.975 367.328C240.251 367.234 240.488 367.096 240.686 366.914C240.883 366.732 241.032 366.508 241.131 366.242L244.639 366.344C244.493 367.13 244.173 367.815 243.678 368.398C243.188 368.977 242.545 369.427 241.748 369.75C240.951 370.068 240.029 370.227 238.982 370.227ZM246.629 374.5V358H250.41V360.055H250.527C250.684 359.69 250.905 359.339 251.191 359C251.483 358.661 251.853 358.385 252.301 358.172C252.754 357.953 253.296 357.844 253.926 357.844C254.759 357.844 255.538 358.062 256.262 358.5C256.991 358.937 257.579 359.612 258.027 360.523C258.475 361.435 258.699 362.596 258.699 364.008C258.699 365.367 258.483 366.505 258.051 367.422C257.624 368.339 257.046 369.026 256.316 369.484C255.592 369.943 254.788 370.172 253.902 370.172C253.298 370.172 252.775 370.073 252.332 369.875C251.889 369.677 251.517 369.417 251.215 369.094C250.918 368.771 250.689 368.424 250.527 368.055H250.449V374.5H246.629ZM250.371 364C250.371 364.646 250.457 365.208 250.629 365.687C250.806 366.167 251.059 366.539 251.387 366.805C251.72 367.065 252.118 367.195 252.582 367.195C253.051 367.195 253.449 367.065 253.777 366.805C254.105 366.539 254.353 366.167 254.52 365.687C254.691 365.208 254.777 364.646 254.777 364C254.777 363.354 254.691 362.794 254.52 362.32C254.353 361.846 254.105 361.479 253.777 361.219C253.454 360.958 253.056 360.828 252.582 360.828C252.113 360.828 251.715 360.956 251.387 361.211C251.059 361.466 250.806 361.831 250.629 362.305C250.457 362.779 250.371 363.344 250.371 364ZM267.475 358V360.812H259.904V358H267.475ZM261.49 355.125H265.311V366.227C265.311 366.461 265.347 366.651 265.42 366.797C265.498 366.937 265.61 367.039 265.756 367.102C265.902 367.159 266.076 367.188 266.279 367.188C266.425 367.188 266.579 367.174 266.74 367.148C266.907 367.117 267.032 367.091 267.115 367.07L267.693 369.828C267.511 369.88 267.253 369.945 266.92 370.023C266.592 370.102 266.199 370.151 265.74 370.172C264.844 370.214 264.076 370.109 263.436 369.859C262.8 369.604 262.313 369.208 261.975 368.672C261.641 368.135 261.48 367.461 261.49 366.648V355.125ZM279.75 361.664L276.242 361.758C276.206 361.508 276.107 361.286 275.945 361.094C275.784 360.896 275.573 360.742 275.313 360.633C275.057 360.518 274.76 360.461 274.422 360.461C273.979 360.461 273.602 360.549 273.289 360.727C272.982 360.904 272.831 361.143 272.836 361.445C272.831 361.68 272.924 361.883 273.117 362.055C273.315 362.227 273.667 362.365 274.172 362.469L276.484 362.906C277.682 363.135 278.573 363.516 279.156 364.047C279.745 364.578 280.042 365.281 280.047 366.156C280.042 366.979 279.797 367.695 279.312 368.305C278.833 368.914 278.177 369.388 277.344 369.727C276.51 370.06 275.557 370.227 274.484 370.227C272.771 370.227 271.419 369.875 270.43 369.172C269.445 368.464 268.883 367.516 268.742 366.328L272.516 366.234C272.599 366.672 272.815 367.005 273.164 367.234C273.513 367.464 273.958 367.578 274.5 367.578C274.99 367.578 275.388 367.487 275.695 367.305C276.003 367.122 276.159 366.88 276.164 366.578C276.159 366.307 276.039 366.091 275.805 365.93C275.57 365.763 275.203 365.633 274.703 365.539L272.609 365.141C271.406 364.922 270.51 364.518 269.922 363.93C269.333 363.336 269.042 362.581 269.047 361.664C269.042 360.862 269.255 360.177 269.688 359.609C270.12 359.036 270.734 358.599 271.531 358.297C272.328 357.995 273.268 357.844 274.352 357.844C275.977 357.844 277.258 358.185 278.195 358.867C279.133 359.544 279.651 360.477 279.75 361.664Z" fill="white"/>
</g>
<defs>
<clipPath id="clip0_1_2">
<rect width="400" height="400" fill="white"/>
</clipPath>
<clipPath id="clip1_1_2">
<rect width="263" height="263" fill="white" transform="translate(67 51)"/>
</clipPath>
</defs>
</svg>
