<svg width="484" height="253" viewBox="0 0 484 253" fill="none" xmlns="http://www.w3.org/2000/svg">
<rect x="84" y="32" width="7" height="305" transform="rotate(-90 84 32)" fill="#51557E"/>
<rect x="84" y="96" width="7" height="305" transform="rotate(-90 84 96)" fill="#51557E"/>
<rect x="84" y="156" width="7" height="305" transform="rotate(-90 84 156)" fill="#51557E"/>
<rect x="84" y="218" width="7" height="305" transform="rotate(-90 84 218)" fill="#51557E"/>
<rect x="12" y="48" width="40" height="90" transform="rotate(-90 12 48)" fill="#D9D9D9"/>
<rect x="12" y="111" width="40" height="90" transform="rotate(-90 12 111)" fill="#AC92EB"/>
<rect x="368" y="111" width="40" height="90" transform="rotate(-90 368 111)" fill="#AC92EB"/>
<rect x="368" y="172" width="40" height="90" transform="rotate(-90 368 172)" fill="#AC92EB"/>
<rect x="371" y="233" width="40" height="90" transform="rotate(-90 371 233)" fill="#AC92EB"/>
<rect x="12" y="172" width="40" height="90" transform="rotate(-90 12 172)" fill="#AC92EB"/>
<rect x="12" y="233" width="40" height="90" transform="rotate(-90 12 233)" fill="#AC92EB"/>
<rect x="368" y="48" width="40" height="90" transform="rotate(-90 368 48)" fill="#D9D9D9"/>
<path d="M39.8807 28V16.3636H42.6932V21.2841H42.8466L46.6932 16.3636H50.0057L45.8807 21.5568L50.0795 28H46.7159L43.8182 23.4261L42.6932 24.8466V28H39.8807ZM51.1151 28V16.3636H59.2287V18.6477H53.9276V21.0341H58.8139V23.3239H53.9276V25.7159H59.2287V28H51.1151ZM60.4105 16.3636H63.5526L66.0128 21.233H66.1151L68.5753 16.3636H71.7173L67.4616 24.1136V28H64.6662V24.1136L60.4105 16.3636Z" fill="black"/>
<path d="M394.523 16.3636L397.125 24.8864H397.222L399.824 16.3636H402.972L399.045 28H395.301L391.375 16.3636H394.523ZM405.669 28.1477C405.112 28.1477 404.618 28.0549 404.186 27.8693C403.758 27.6799 403.419 27.3958 403.169 27.017C402.923 26.6345 402.8 26.1553 402.8 25.5795C402.8 25.0947 402.885 24.6856 403.055 24.3523C403.226 24.0189 403.461 23.7481 403.76 23.5398C404.059 23.3314 404.404 23.1742 404.794 23.0682C405.184 22.9583 405.601 22.8845 406.044 22.8466C406.54 22.8011 406.94 22.7538 407.243 22.7045C407.546 22.6515 407.766 22.5777 407.902 22.483C408.042 22.3845 408.112 22.2462 408.112 22.0682V22.0398C408.112 21.7481 408.012 21.5227 407.811 21.3636C407.61 21.2045 407.339 21.125 406.999 21.125C406.631 21.125 406.336 21.2045 406.112 21.3636C405.889 21.5227 405.747 21.7424 405.686 22.0227L403.124 21.9318C403.199 21.4015 403.394 20.928 403.709 20.5114C404.027 20.0909 404.463 19.7614 405.016 19.5227C405.572 19.2803 406.241 19.1591 407.021 19.1591C407.578 19.1591 408.091 19.2254 408.561 19.358C409.031 19.4867 409.44 19.6761 409.788 19.9261C410.137 20.1723 410.406 20.4754 410.595 20.8352C410.788 21.1951 410.885 21.6061 410.885 22.0682V28H408.271V26.7841H408.203C408.048 27.0795 407.849 27.3295 407.607 27.5341C407.368 27.7386 407.086 27.892 406.76 27.9943C406.438 28.0966 406.074 28.1477 405.669 28.1477ZM406.527 26.3295C406.826 26.3295 407.095 26.2689 407.334 26.1477C407.576 26.0265 407.769 25.8598 407.913 25.6477C408.057 25.4318 408.129 25.1818 408.129 24.8977V24.0682C408.05 24.1098 407.953 24.1477 407.839 24.1818C407.73 24.2159 407.608 24.2481 407.476 24.2784C407.343 24.3087 407.207 24.3352 407.067 24.358C406.927 24.3807 406.792 24.4015 406.663 24.4205C406.402 24.4621 406.179 24.5265 405.993 24.6136C405.811 24.7008 405.671 24.8144 405.572 24.9545C405.478 25.0909 405.43 25.2538 405.43 25.4432C405.43 25.7311 405.533 25.9508 405.737 26.1023C405.946 26.2538 406.209 26.3295 406.527 26.3295ZM415.362 16.3636V28H412.584V16.3636H415.362ZM422.761 24.233V19.2727H425.534V28H422.886V26.375H422.795C422.602 26.9091 422.273 27.3333 421.807 27.6477C421.345 27.9583 420.786 28.1136 420.131 28.1136C419.536 28.1136 419.013 27.9773 418.562 27.7045C418.112 27.4318 417.761 27.0511 417.511 26.5625C417.261 26.0701 417.134 25.4943 417.131 24.8352V19.2727H419.909V24.2898C419.913 24.7633 420.038 25.1364 420.284 25.4091C420.53 25.6818 420.866 25.8182 421.29 25.8182C421.566 25.8182 421.814 25.7576 422.034 25.6364C422.258 25.5114 422.434 25.3314 422.562 25.0966C422.695 24.858 422.761 24.5701 422.761 24.233ZM431.382 28.1648C430.469 28.1648 429.681 27.9848 429.018 27.625C428.359 27.2614 427.852 26.7443 427.496 26.0739C427.143 25.3996 426.967 24.5985 426.967 23.6705C426.967 22.7689 427.145 21.9811 427.501 21.3068C427.857 20.6288 428.359 20.1023 429.007 19.7273C429.655 19.3485 430.418 19.1591 431.297 19.1591C431.918 19.1591 432.486 19.2557 433.001 19.4489C433.517 19.642 433.962 19.928 434.337 20.3068C434.712 20.6856 435.003 21.1534 435.212 21.7102C435.42 22.2633 435.524 22.8977 435.524 23.6136V24.3068H427.939V22.6932H432.939C432.935 22.3977 432.865 22.1345 432.729 21.9034C432.592 21.6723 432.405 21.4924 432.166 21.3636C431.931 21.2311 431.661 21.1648 431.354 21.1648C431.043 21.1648 430.765 21.2348 430.518 21.375C430.272 21.5114 430.077 21.6989 429.933 21.9375C429.789 22.1723 429.714 22.4394 429.706 22.7386V24.3807C429.706 24.7367 429.776 25.0492 429.916 25.3182C430.056 25.5833 430.255 25.7898 430.513 25.9375C430.77 26.0852 431.077 26.1591 431.433 26.1591C431.679 26.1591 431.903 26.125 432.104 26.0568C432.304 25.9886 432.477 25.8883 432.621 25.7557C432.765 25.6231 432.873 25.4602 432.945 25.267L435.496 25.3409C435.39 25.9129 435.157 26.411 434.797 26.8352C434.441 27.2557 433.973 27.5833 433.393 27.8182C432.814 28.0492 432.143 28.1648 431.382 28.1648Z" fill="black"/>
<path d="M48.5114 39.233V34.2727H51.2841V43H48.6364V41.375H48.5455C48.3523 41.9091 48.0227 42.3333 47.5568 42.6477C47.0947 42.9583 46.536 43.1136 45.8807 43.1136C45.286 43.1136 44.7633 42.9773 44.3125 42.7045C43.8617 42.4318 43.5114 42.0511 43.2614 41.5625C43.0114 41.0701 42.8845 40.4943 42.8807 39.8352V34.2727H45.6591V39.2898C45.6629 39.7633 45.7879 40.1364 46.0341 40.4091C46.2803 40.6818 46.6155 40.8182 47.0398 40.8182C47.3163 40.8182 47.5644 40.7576 47.7841 40.6364C48.0076 40.5114 48.1837 40.3314 48.3125 40.0966C48.4451 39.858 48.5114 39.5701 48.5114 39.233ZM53.0526 43V34.2727H55.831V43H53.0526ZM54.4446 33.2557C54.0545 33.2557 53.7192 33.1269 53.4389 32.8693C53.1586 32.608 53.0185 32.2936 53.0185 31.9261C53.0185 31.5625 53.1586 31.2519 53.4389 30.9943C53.7192 30.733 54.0545 30.6023 54.4446 30.6023C54.8385 30.6023 55.1738 30.733 55.4503 30.9943C55.7306 31.2519 55.8707 31.5625 55.8707 31.9261C55.8707 32.2936 55.7306 32.608 55.4503 32.8693C55.1738 33.1269 54.8385 33.2557 54.4446 33.2557ZM60.3778 38.0227V43H57.5994V34.2727H60.2415V35.875H60.3381C60.5313 35.3409 60.8608 34.9223 61.3267 34.6193C61.7926 34.3125 62.3475 34.1591 62.9915 34.1591C63.6051 34.1591 64.1373 34.2973 64.5881 34.5739C65.0426 34.8466 65.3949 35.2292 65.6449 35.7216C65.8987 36.2102 66.0237 36.7822 66.0199 37.4375V43H63.2415V37.983C63.2453 37.4981 63.1222 37.1193 62.8722 36.8466C62.6259 36.5739 62.2831 36.4375 61.8438 36.4375C61.5521 36.4375 61.2945 36.5019 61.071 36.6307C60.8513 36.7557 60.6809 36.9356 60.5597 37.1705C60.4422 37.4053 60.3816 37.6894 60.3778 38.0227Z" fill="black"/>
<path d="M396.659 41.0227V46H393.881V37.2727H396.523V38.875H396.619C396.813 38.3409 397.142 37.9223 397.608 37.6193C398.074 37.3125 398.629 37.1591 399.273 37.1591C399.886 37.1591 400.419 37.2973 400.869 37.5739C401.324 37.8466 401.676 38.2292 401.926 38.7216C402.18 39.2102 402.305 39.7822 402.301 40.4375V46H399.523V40.983C399.527 40.4981 399.403 40.1193 399.153 39.8466C398.907 39.5739 398.564 39.4375 398.125 39.4375C397.833 39.4375 397.576 39.5019 397.352 39.6307C397.133 39.7557 396.962 39.9356 396.841 40.1705C396.723 40.4053 396.663 40.6894 396.659 41.0227ZM406.482 46.1477C405.925 46.1477 405.43 46.0549 404.999 45.8693C404.571 45.6799 404.232 45.3958 403.982 45.017C403.735 44.6345 403.612 44.1553 403.612 43.5795C403.612 43.0947 403.697 42.6856 403.868 42.3523C404.038 42.0189 404.273 41.7481 404.572 41.5398C404.872 41.3314 405.216 41.1742 405.607 41.0682C405.997 40.9583 406.413 40.8845 406.857 40.8466C407.353 40.8011 407.752 40.7538 408.055 40.7045C408.358 40.6515 408.578 40.5777 408.714 40.483C408.855 40.3845 408.925 40.2462 408.925 40.0682V40.0398C408.925 39.7481 408.824 39.5227 408.624 39.3636C408.423 39.2045 408.152 39.125 407.811 39.125C407.444 39.125 407.148 39.2045 406.925 39.3636C406.701 39.5227 406.559 39.7424 406.499 40.0227L403.936 39.9318C404.012 39.4015 404.207 38.928 404.521 38.5114C404.839 38.0909 405.275 37.7614 405.828 37.5227C406.385 37.2803 407.054 37.1591 407.834 37.1591C408.391 37.1591 408.904 37.2254 409.374 37.358C409.843 37.4867 410.252 37.6761 410.601 37.9261C410.949 38.1723 411.218 38.4754 411.408 38.8352C411.601 39.1951 411.697 39.6061 411.697 40.0682V46H409.084V44.7841H409.016C408.86 45.0795 408.661 45.3295 408.419 45.5341C408.18 45.7386 407.898 45.892 407.572 45.9943C407.25 46.0966 406.887 46.1477 406.482 46.1477ZM407.339 44.3295C407.639 44.3295 407.908 44.2689 408.146 44.1477C408.389 44.0265 408.582 43.8598 408.726 43.6477C408.87 43.4318 408.942 43.1818 408.942 42.8977V42.0682C408.862 42.1098 408.766 42.1477 408.652 42.1818C408.542 42.2159 408.421 42.2481 408.288 42.2784C408.156 42.3087 408.019 42.3352 407.879 42.358C407.739 42.3807 407.605 42.4015 407.476 42.4205C407.214 42.4621 406.991 42.5265 406.805 42.6136C406.624 42.7008 406.483 42.8144 406.385 42.9545C406.29 43.0909 406.243 43.2538 406.243 43.4432C406.243 43.7311 406.345 43.9508 406.55 44.1023C406.758 44.2538 407.021 44.3295 407.339 44.3295ZM413.396 46V37.2727H416.038V38.875H416.135C416.317 38.3447 416.624 37.9261 417.055 37.6193C417.487 37.3125 418.002 37.1591 418.601 37.1591C419.207 37.1591 419.726 37.3144 420.158 37.625C420.589 37.9356 420.864 38.3523 420.982 38.875H421.072C421.235 38.3561 421.554 37.9413 422.027 37.6307C422.5 37.3163 423.059 37.1591 423.703 37.1591C424.529 37.1591 425.199 37.4242 425.714 37.9545C426.23 38.4811 426.487 39.2045 426.487 40.125V46H423.709V40.7614C423.709 40.3258 423.597 39.9943 423.374 39.767C423.15 39.536 422.86 39.4205 422.504 39.4205C422.122 39.4205 421.821 39.5455 421.601 39.7955C421.385 40.0417 421.277 40.3731 421.277 40.7898V46H418.607V40.733C418.607 40.3277 418.497 40.0076 418.277 39.7727C418.057 39.5379 417.768 39.4205 417.408 39.4205C417.165 39.4205 416.951 39.4792 416.766 39.5966C416.58 39.7102 416.434 39.8731 416.328 40.0852C416.226 40.2973 416.175 40.5473 416.175 40.8352V46H413.396ZM432.288 46.1648C431.375 46.1648 430.588 45.9848 429.925 45.625C429.266 45.2614 428.758 44.7443 428.402 44.0739C428.05 43.3996 427.874 42.5985 427.874 41.6705C427.874 40.7689 428.052 39.9811 428.408 39.3068C428.764 38.6288 429.266 38.1023 429.913 37.7273C430.561 37.3485 431.324 37.1591 432.203 37.1591C432.824 37.1591 433.393 37.2557 433.908 37.4489C434.423 37.642 434.868 37.928 435.243 38.3068C435.618 38.6856 435.91 39.1534 436.118 39.7102C436.326 40.2633 436.43 40.8977 436.43 41.6136V42.3068H428.845V40.6932H433.845C433.841 40.3977 433.771 40.1345 433.635 39.9034C433.499 39.6723 433.311 39.4924 433.072 39.3636C432.838 39.2311 432.567 39.1648 432.26 39.1648C431.949 39.1648 431.671 39.2348 431.425 39.375C431.179 39.5114 430.983 39.6989 430.839 39.9375C430.696 40.1723 430.62 40.4394 430.612 40.7386V42.3807C430.612 42.7367 430.682 43.0492 430.822 43.3182C430.963 43.5833 431.161 43.7898 431.419 43.9375C431.677 44.0852 431.983 44.1591 432.339 44.1591C432.586 44.1591 432.809 44.125 433.01 44.0568C433.211 43.9886 433.383 43.8883 433.527 43.7557C433.671 43.6231 433.779 43.4602 433.851 43.267L436.402 43.3409C436.296 43.9129 436.063 44.411 435.703 44.8352C435.347 45.2557 434.879 45.5833 434.3 45.8182C433.72 46.0492 433.05 46.1648 432.288 46.1648Z" fill="black"/>
<path d="M22.9602 218.165C22.0473 218.165 21.2595 217.985 20.5966 217.625C19.9375 217.261 19.4299 216.744 19.0739 216.074C18.7216 215.4 18.5455 214.598 18.5455 213.67C18.5455 212.769 18.7235 211.981 19.0795 211.307C19.4356 210.629 19.9375 210.102 20.5852 209.727C21.233 209.348 21.9962 209.159 22.875 209.159C23.4962 209.159 24.0644 209.256 24.5795 209.449C25.0947 209.642 25.5398 209.928 25.9148 210.307C26.2898 210.686 26.5814 211.153 26.7898 211.71C26.9981 212.263 27.1023 212.898 27.1023 213.614V214.307H19.517V212.693H24.517C24.5133 212.398 24.4432 212.134 24.3068 211.903C24.1705 211.672 23.983 211.492 23.7443 211.364C23.5095 211.231 23.2386 211.165 22.9318 211.165C22.6212 211.165 22.3428 211.235 22.0966 211.375C21.8504 211.511 21.6553 211.699 21.5114 211.938C21.3674 212.172 21.2917 212.439 21.2841 212.739V214.381C21.2841 214.737 21.3542 215.049 21.4943 215.318C21.6345 215.583 21.8333 215.79 22.0909 215.938C22.3485 216.085 22.6553 216.159 23.0114 216.159C23.2576 216.159 23.4811 216.125 23.6818 216.057C23.8826 215.989 24.0549 215.888 24.1989 215.756C24.3428 215.623 24.4508 215.46 24.5227 215.267L27.0739 215.341C26.9678 215.913 26.7348 216.411 26.375 216.835C26.0189 217.256 25.5511 217.583 24.9716 217.818C24.392 218.049 23.7216 218.165 22.9602 218.165ZM28.5213 218V209.273H31.1634V210.875H31.2599C31.4418 210.345 31.7486 209.926 32.1804 209.619C32.6122 209.312 33.1274 209.159 33.7259 209.159C34.3319 209.159 34.8509 209.314 35.2827 209.625C35.7145 209.936 35.9891 210.352 36.1065 210.875H36.1974C36.3603 210.356 36.6785 209.941 37.152 209.631C37.6255 209.316 38.1842 209.159 38.8281 209.159C39.6539 209.159 40.3243 209.424 40.8395 209.955C41.3546 210.481 41.6122 211.205 41.6122 212.125V218H38.8338V212.761C38.8338 212.326 38.7221 211.994 38.4986 211.767C38.2751 211.536 37.9853 211.42 37.6293 211.42C37.2467 211.42 36.9455 211.545 36.7259 211.795C36.5099 212.042 36.402 212.373 36.402 212.79V218H33.7315V212.733C33.7315 212.328 33.6217 212.008 33.402 211.773C33.1823 211.538 32.8925 211.42 32.5327 211.42C32.2902 211.42 32.0762 211.479 31.8906 211.597C31.705 211.71 31.5592 211.873 31.4531 212.085C31.3509 212.297 31.2997 212.547 31.2997 212.835V218H28.5213ZM47.4077 218.165C46.4872 218.165 45.6974 217.975 45.0384 217.597C44.383 217.218 43.8793 216.691 43.527 216.017C43.1747 215.339 42.9986 214.555 42.9986 213.665C42.9986 212.771 43.1747 211.987 43.527 211.312C43.883 210.634 44.3887 210.106 45.044 209.727C45.7031 209.348 46.4891 209.159 47.402 209.159C48.2088 209.159 48.9115 209.305 49.5099 209.597C50.1122 209.888 50.5819 210.301 50.919 210.835C51.2599 211.366 51.4399 211.989 51.4588 212.705H48.8622C48.8092 212.258 48.6577 211.907 48.4077 211.653C48.1615 211.4 47.8395 211.273 47.4418 211.273C47.1198 211.273 46.8376 211.364 46.5952 211.545C46.3527 211.723 46.1634 211.989 46.027 212.341C45.8944 212.689 45.8281 213.121 45.8281 213.636C45.8281 214.152 45.8944 214.587 46.027 214.943C46.1634 215.295 46.3527 215.562 46.5952 215.744C46.8376 215.922 47.1198 216.011 47.4418 216.011C47.6993 216.011 47.9266 215.956 48.1236 215.847C48.3243 215.737 48.4891 215.576 48.6179 215.364C48.7467 215.148 48.8281 214.886 48.8622 214.58H51.4588C51.4323 215.299 51.2524 215.928 50.919 216.466C50.5895 217.004 50.1255 217.422 49.527 217.722C48.9323 218.017 48.2259 218.165 47.4077 218.165ZM56.9545 218.165C56.0341 218.165 55.2443 217.975 54.5852 217.597C53.9299 217.218 53.4261 216.691 53.0739 216.017C52.7216 215.339 52.5455 214.555 52.5455 213.665C52.5455 212.771 52.7216 211.987 53.0739 211.312C53.4299 210.634 53.9356 210.106 54.5909 209.727C55.25 209.348 56.036 209.159 56.9489 209.159C57.7557 209.159 58.4583 209.305 59.0568 209.597C59.6591 209.888 60.1288 210.301 60.4659 210.835C60.8068 211.366 60.9867 211.989 61.0057 212.705H58.4091C58.3561 212.258 58.2045 211.907 57.9545 211.653C57.7083 211.4 57.3864 211.273 56.9886 211.273C56.6667 211.273 56.3845 211.364 56.142 211.545C55.8996 211.723 55.7102 211.989 55.5739 212.341C55.4413 212.689 55.375 213.121 55.375 213.636C55.375 214.152 55.4413 214.587 55.5739 214.943C55.7102 215.295 55.8996 215.562 56.142 215.744C56.3845 215.922 56.6667 216.011 56.9886 216.011C57.2462 216.011 57.4735 215.956 57.6705 215.847C57.8712 215.737 58.036 215.576 58.1648 215.364C58.2936 215.148 58.375 214.886 58.4091 214.58H61.0057C60.9792 215.299 60.7992 215.928 60.4659 216.466C60.1364 217.004 59.6723 217.422 59.0739 217.722C58.4792 218.017 57.7727 218.165 56.9545 218.165ZM64.8878 218.148C64.331 218.148 63.8366 218.055 63.4048 217.869C62.9768 217.68 62.6378 217.396 62.3878 217.017C62.1416 216.634 62.0185 216.155 62.0185 215.58C62.0185 215.095 62.1037 214.686 62.2741 214.352C62.4446 214.019 62.6795 213.748 62.9787 213.54C63.2779 213.331 63.6226 213.174 64.0128 213.068C64.4029 212.958 64.8196 212.884 65.2628 212.847C65.759 212.801 66.1586 212.754 66.4616 212.705C66.7647 212.652 66.9844 212.578 67.1207 212.483C67.2609 212.384 67.331 212.246 67.331 212.068V212.04C67.331 211.748 67.2306 211.523 67.0298 211.364C66.8291 211.205 66.5582 211.125 66.2173 211.125C65.8499 211.125 65.5545 211.205 65.331 211.364C65.1075 211.523 64.9654 211.742 64.9048 212.023L62.3423 211.932C62.4181 211.402 62.6132 210.928 62.9276 210.511C63.2457 210.091 63.6813 209.761 64.2344 209.523C64.7912 209.28 65.4598 209.159 66.2401 209.159C66.7969 209.159 67.3101 209.225 67.7798 209.358C68.2495 209.487 68.6586 209.676 69.0071 209.926C69.3556 210.172 69.6245 210.475 69.8139 210.835C70.0071 211.195 70.1037 211.606 70.1037 212.068V218H67.4901V216.784H67.4219C67.2666 217.08 67.0677 217.33 66.8253 217.534C66.5866 217.739 66.3045 217.892 65.9787 217.994C65.6567 218.097 65.2931 218.148 64.8878 218.148ZM65.7457 216.33C66.045 216.33 66.3139 216.269 66.5526 216.148C66.795 216.027 66.9882 215.86 67.1321 215.648C67.276 215.432 67.348 215.182 67.348 214.898V214.068C67.2685 214.11 67.1719 214.148 67.0582 214.182C66.9484 214.216 66.8272 214.248 66.6946 214.278C66.562 214.309 66.4257 214.335 66.2855 214.358C66.1454 214.381 66.0109 214.402 65.8821 214.42C65.6207 214.462 65.3973 214.527 65.2116 214.614C65.0298 214.701 64.8897 214.814 64.7912 214.955C64.6965 215.091 64.6491 215.254 64.6491 215.443C64.6491 215.731 64.7514 215.951 64.956 216.102C65.1643 216.254 65.4276 216.33 65.7457 216.33ZM71.8026 218V209.273H74.5014V210.864H74.5923C74.7514 210.288 75.0109 209.86 75.3707 209.58C75.7306 209.295 76.1491 209.153 76.6264 209.153C76.7552 209.153 76.8878 209.163 77.0241 209.182C77.1605 209.197 77.2874 209.222 77.4048 209.256V211.67C77.2723 211.625 77.098 211.589 76.8821 211.562C76.67 211.536 76.4806 211.523 76.3139 211.523C75.9844 211.523 75.687 211.597 75.4219 211.744C75.1605 211.888 74.9541 212.091 74.8026 212.352C74.6548 212.61 74.581 212.913 74.581 213.261V218H71.8026ZM83.8693 209.273V211.318H78.3636V209.273H83.8693ZM79.517 207.182H82.2955V215.256C82.2955 215.426 82.322 215.564 82.375 215.67C82.4318 215.773 82.5133 215.847 82.6193 215.892C82.7254 215.934 82.8523 215.955 83 215.955C83.1061 215.955 83.2178 215.945 83.3352 215.926C83.4564 215.903 83.5473 215.884 83.608 215.869L84.0284 217.875C83.8958 217.913 83.7083 217.96 83.4659 218.017C83.2273 218.074 82.9413 218.11 82.608 218.125C81.9564 218.155 81.3977 218.08 80.9318 217.898C80.4697 217.712 80.1155 217.424 79.8693 217.034C79.6269 216.644 79.5095 216.153 79.517 215.562V207.182ZM86.9858 221.273C86.6525 221.273 86.3381 221.246 86.0426 221.193C85.7472 221.144 85.4934 221.078 85.2812 220.994L85.8949 218.977C86.1676 219.068 86.4138 219.121 86.6335 219.136C86.857 219.152 87.0483 219.116 87.2074 219.028C87.3703 218.945 87.4953 218.795 87.5824 218.58L87.6903 218.318L84.5881 209.273H87.4972L89.1051 215.5H89.196L90.8267 209.273H93.7528L90.4631 218.835C90.304 219.313 90.0786 219.733 89.7869 220.097C89.4991 220.464 89.1259 220.752 88.6676 220.96C88.2131 221.169 87.6525 221.273 86.9858 221.273Z" fill="black"/>
<path d="M29.8807 98V89.2727H32.5795V90.8636H32.6705C32.8295 90.2879 33.089 89.8598 33.4489 89.5795C33.8087 89.2955 34.2273 89.1534 34.7045 89.1534C34.8333 89.1534 34.9659 89.1629 35.1023 89.1818C35.2386 89.197 35.3655 89.2216 35.483 89.2557V91.6705C35.3504 91.625 35.1761 91.589 34.9602 91.5625C34.7481 91.536 34.5587 91.5227 34.392 91.5227C34.0625 91.5227 33.7652 91.5966 33.5 91.7443C33.2386 91.8883 33.0322 92.0909 32.8807 92.3523C32.733 92.6098 32.6591 92.9129 32.6591 93.2614V98H29.8807ZM36.6151 98V89.2727H39.2571V90.875H39.3537C39.5355 90.3447 39.8423 89.9261 40.2741 89.6193C40.706 89.3125 41.2211 89.1591 41.8196 89.1591C42.4257 89.1591 42.9446 89.3144 43.3764 89.625C43.8082 89.9356 44.0829 90.3523 44.2003 90.875H44.2912C44.4541 90.3561 44.7723 89.9413 45.2457 89.6307C45.7192 89.3163 46.2779 89.1591 46.9219 89.1591C47.7476 89.1591 48.4181 89.4242 48.9332 89.9545C49.4484 90.4811 49.706 91.2045 49.706 92.125V98H46.9276V92.7614C46.9276 92.3258 46.8158 91.9943 46.5923 91.767C46.3688 91.536 46.0791 91.4205 45.723 91.4205C45.3404 91.4205 45.0393 91.5455 44.8196 91.7955C44.6037 92.0417 44.4957 92.3731 44.4957 92.7898V98H41.8253V92.733C41.8253 92.3277 41.7154 92.0076 41.4957 91.7727C41.276 91.5379 40.9863 91.4205 40.6264 91.4205C40.384 91.4205 40.17 91.4792 39.9844 91.5966C39.7988 91.7102 39.6529 91.8731 39.5469 92.0852C39.4446 92.2973 39.3935 92.5473 39.3935 92.8352V98H36.6151ZM55.5071 98.1648C54.5942 98.1648 53.8063 97.9848 53.1435 97.625C52.4844 97.2614 51.9768 96.7443 51.6207 96.0739C51.2685 95.3996 51.0923 94.5985 51.0923 93.6705C51.0923 92.7689 51.2704 91.9811 51.6264 91.3068C51.9825 90.6288 52.4844 90.1023 53.1321 89.7273C53.7798 89.3485 54.5431 89.1591 55.4219 89.1591C56.0431 89.1591 56.6113 89.2557 57.1264 89.4489C57.6416 89.642 58.0866 89.928 58.4616 90.3068C58.8366 90.6856 59.1283 91.1534 59.3366 91.7102C59.545 92.2633 59.6491 92.8977 59.6491 93.6136V94.3068H52.0639V92.6932H57.0639C57.0601 92.3977 56.9901 92.1345 56.8537 91.9034C56.7173 91.6723 56.5298 91.4924 56.2912 91.3636C56.0563 91.2311 55.7855 91.1648 55.4787 91.1648C55.1681 91.1648 54.8897 91.2348 54.6435 91.375C54.3973 91.5114 54.2022 91.6989 54.0582 91.9375C53.9143 92.1723 53.8385 92.4394 53.831 92.7386V94.3807C53.831 94.7367 53.901 95.0492 54.0412 95.3182C54.1813 95.5833 54.3802 95.7898 54.6378 95.9375C54.8954 96.0852 55.2022 96.1591 55.5582 96.1591C55.8045 96.1591 56.0279 96.125 56.2287 96.0568C56.4295 95.9886 56.6018 95.8883 56.7457 95.7557C56.8897 95.6231 56.9976 95.4602 57.0696 95.267L59.6207 95.3409C59.5147 95.9129 59.2817 96.411 58.9219 96.8352C58.5658 97.2557 58.098 97.5833 57.5185 97.8182C56.9389 98.0492 56.2685 98.1648 55.5071 98.1648ZM61.0682 89.2727H63.8466V98.3636C63.8466 99.0833 63.6989 99.6553 63.4034 100.08C63.1117 100.504 62.6989 100.809 62.1648 100.994C61.6307 101.18 61 101.273 60.2727 101.273C60.1742 101.273 60.0814 101.271 59.9943 101.267C59.9072 101.263 59.8125 101.259 59.7102 101.256V99.1477C59.7784 99.1553 59.839 99.161 59.892 99.1648C59.9451 99.1686 59.9981 99.1705 60.0511 99.1705C60.4337 99.1705 60.6989 99.0985 60.8466 98.9545C60.9943 98.8144 61.0682 98.5985 61.0682 98.3068V89.2727ZM62.4545 88.2557C62.0644 88.2557 61.7292 88.1269 61.4489 87.8693C61.1686 87.608 61.0284 87.2936 61.0284 86.9261C61.0284 86.5625 61.1686 86.2519 61.4489 85.9943C61.7292 85.733 62.0644 85.6023 62.4545 85.6023C62.8485 85.6023 63.1837 85.733 63.4602 85.9943C63.7405 86.2519 63.8807 86.5625 63.8807 86.9261C63.8807 87.2936 63.7405 87.608 63.4602 87.8693C63.1837 88.1269 62.8485 88.2557 62.4545 88.2557ZM65.6151 98V89.2727H68.3935V98H65.6151ZM67.0071 88.2557C66.617 88.2557 66.2817 88.1269 66.0014 87.8693C65.7211 87.608 65.581 87.2936 65.581 86.9261C65.581 86.5625 65.7211 86.2519 66.0014 85.9943C66.2817 85.733 66.617 85.6023 67.0071 85.6023C67.401 85.6023 67.7363 85.733 68.0128 85.9943C68.2931 86.2519 68.4332 86.5625 68.4332 86.9261C68.4332 87.2936 68.2931 87.608 68.0128 87.8693C67.7363 88.1269 67.401 88.2557 67.0071 88.2557ZM74.5653 98.1591C73.679 98.1591 72.893 98.0076 72.2074 97.7045C71.5256 97.3977 70.9877 96.9754 70.5938 96.4375C70.1998 95.8996 69.9991 95.2803 69.9915 94.5795H72.821C72.8324 94.8333 72.9138 95.0587 73.0653 95.2557C73.2169 95.4489 73.4233 95.6004 73.6847 95.7102C73.946 95.8201 74.2434 95.875 74.5767 95.875C74.91 95.875 75.2036 95.8163 75.4574 95.6989C75.715 95.5777 75.9157 95.4129 76.0597 95.2045C76.2036 94.9924 76.2737 94.75 76.2699 94.4773C76.2737 94.2045 76.196 93.9621 76.0369 93.75C75.8778 93.5379 75.6525 93.3731 75.3608 93.2557C75.0729 93.1383 74.732 93.0795 74.3381 93.0795H73.2074V91.0795H74.3381C74.6828 91.0795 74.9858 91.0227 75.2472 90.9091C75.5123 90.7955 75.7188 90.6364 75.8665 90.4318C76.0142 90.2235 76.0862 89.9848 76.0824 89.7159C76.0862 89.4545 76.0237 89.2254 75.8949 89.0284C75.7699 88.8277 75.5938 88.6723 75.3665 88.5625C75.143 88.4527 74.8835 88.3977 74.5881 88.3977C74.2775 88.3977 73.9953 88.4527 73.7415 88.5625C73.4915 88.6723 73.2926 88.8277 73.1449 89.0284C72.9972 89.2292 72.9195 89.4621 72.9119 89.7273H70.2244C70.232 89.0341 70.4252 88.4242 70.804 87.8977C71.1828 87.3674 71.6979 86.9527 72.3494 86.6534C73.0047 86.3542 73.7509 86.2045 74.5881 86.2045C75.4214 86.2045 76.1544 86.3504 76.7869 86.642C77.4195 86.9337 77.9119 87.3314 78.2642 87.8352C78.6165 88.3352 78.7926 88.9015 78.7926 89.5341C78.7964 90.1894 78.5824 90.7292 78.1506 91.1534C77.7225 91.5777 77.1714 91.839 76.4972 91.9375V92.0284C77.3987 92.1345 78.0786 92.4261 78.5369 92.9034C78.9991 93.3807 79.2282 93.9773 79.2244 94.6932C79.2244 95.3674 79.0256 95.9659 78.6278 96.4886C78.2339 97.0076 77.6847 97.4167 76.9801 97.7159C76.2794 98.0114 75.4744 98.1591 74.5653 98.1591Z" fill="black"/>
<path d="M397.037 209V197.364H405.151V199.648H399.849V202.034H404.736V204.324H399.849V206.716H405.151V209H397.037ZM415.378 200.273L412.384 209H409.202L406.213 200.273H409.139L410.747 206.284H410.838L412.452 200.273H415.378ZM418.669 209.148C418.112 209.148 417.618 209.055 417.186 208.869C416.758 208.68 416.419 208.396 416.169 208.017C415.923 207.634 415.8 207.155 415.8 206.58C415.8 206.095 415.885 205.686 416.055 205.352C416.226 205.019 416.461 204.748 416.76 204.54C417.059 204.331 417.404 204.174 417.794 204.068C418.184 203.958 418.601 203.884 419.044 203.847C419.54 203.801 419.94 203.754 420.243 203.705C420.546 203.652 420.766 203.578 420.902 203.483C421.042 203.384 421.112 203.246 421.112 203.068V203.04C421.112 202.748 421.012 202.523 420.811 202.364C420.61 202.205 420.339 202.125 419.999 202.125C419.631 202.125 419.336 202.205 419.112 202.364C418.889 202.523 418.747 202.742 418.686 203.023L416.124 202.932C416.199 202.402 416.394 201.928 416.709 201.511C417.027 201.091 417.463 200.761 418.016 200.523C418.572 200.28 419.241 200.159 420.021 200.159C420.578 200.159 421.091 200.225 421.561 200.358C422.031 200.487 422.44 200.676 422.788 200.926C423.137 201.172 423.406 201.475 423.595 201.835C423.788 202.195 423.885 202.606 423.885 203.068V209H421.271V207.784H421.203C421.048 208.08 420.849 208.33 420.607 208.534C420.368 208.739 420.086 208.892 419.76 208.994C419.438 209.097 419.074 209.148 418.669 209.148ZM419.527 207.33C419.826 207.33 420.095 207.269 420.334 207.148C420.576 207.027 420.769 206.86 420.913 206.648C421.057 206.432 421.129 206.182 421.129 205.898V205.068C421.05 205.11 420.953 205.148 420.839 205.182C420.73 205.216 420.608 205.248 420.476 205.278C420.343 205.309 420.207 205.335 420.067 205.358C419.927 205.381 419.792 205.402 419.663 205.42C419.402 205.462 419.179 205.527 418.993 205.614C418.811 205.701 418.671 205.814 418.572 205.955C418.478 206.091 418.43 206.254 418.43 206.443C418.43 206.731 418.533 206.951 418.737 207.102C418.946 207.254 419.209 207.33 419.527 207.33ZM428.362 204.023V209H425.584V200.273H428.226V201.875H428.322C428.516 201.341 428.845 200.922 429.311 200.619C429.777 200.312 430.332 200.159 430.976 200.159C431.589 200.159 432.122 200.297 432.572 200.574C433.027 200.847 433.379 201.229 433.629 201.722C433.883 202.21 434.008 202.782 434.004 203.438V209H431.226V203.983C431.23 203.498 431.107 203.119 430.857 202.847C430.61 202.574 430.268 202.438 429.828 202.438C429.536 202.438 429.279 202.502 429.055 202.631C428.836 202.756 428.665 202.936 428.544 203.17C428.427 203.405 428.366 203.689 428.362 204.023ZM378.576 216.364H382.059L385.013 223.568H385.15L388.104 216.364H391.587V228H388.849V220.852H388.752L385.957 227.926H384.207L381.411 220.812H381.315V228H378.576V216.364ZM397.415 228.165C396.495 228.165 395.705 227.975 395.046 227.597C394.391 227.218 393.887 226.691 393.535 226.017C393.183 225.339 393.006 224.555 393.006 223.665C393.006 222.771 393.183 221.987 393.535 221.312C393.891 220.634 394.397 220.106 395.052 219.727C395.711 219.348 396.497 219.159 397.41 219.159C398.217 219.159 398.919 219.305 399.518 219.597C400.12 219.888 400.59 220.301 400.927 220.835C401.268 221.366 401.448 221.989 401.467 222.705H398.87C398.817 222.258 398.665 221.907 398.415 221.653C398.169 221.4 397.847 221.273 397.45 221.273C397.128 221.273 396.845 221.364 396.603 221.545C396.361 221.723 396.171 221.989 396.035 222.341C395.902 222.689 395.836 223.121 395.836 223.636C395.836 224.152 395.902 224.587 396.035 224.943C396.171 225.295 396.361 225.562 396.603 225.744C396.845 225.922 397.128 226.011 397.45 226.011C397.707 226.011 397.934 225.956 398.131 225.847C398.332 225.737 398.497 225.576 398.626 225.364C398.754 225.148 398.836 224.886 398.87 224.58H401.467C401.44 225.299 401.26 225.928 400.927 226.466C400.597 227.004 400.133 227.422 399.535 227.722C398.94 228.017 398.234 228.165 397.415 228.165ZM413.451 220.58H410.61C410.572 220.288 410.495 220.025 410.377 219.79C410.26 219.555 410.104 219.354 409.911 219.188C409.718 219.021 409.489 218.894 409.224 218.807C408.962 218.716 408.673 218.67 408.354 218.67C407.79 218.67 407.303 218.809 406.894 219.085C406.489 219.362 406.176 219.761 405.957 220.284C405.741 220.807 405.633 221.439 405.633 222.182C405.633 222.955 405.743 223.602 405.962 224.125C406.186 224.644 406.498 225.036 406.9 225.301C407.305 225.562 407.784 225.693 408.337 225.693C408.648 225.693 408.93 225.653 409.184 225.574C409.442 225.494 409.667 225.379 409.86 225.227C410.057 225.072 410.218 224.884 410.343 224.665C410.472 224.441 410.561 224.189 410.61 223.909L413.451 223.926C413.402 224.441 413.252 224.949 413.002 225.449C412.756 225.949 412.417 226.405 411.985 226.818C411.553 227.227 411.027 227.553 410.406 227.795C409.788 228.038 409.08 228.159 408.281 228.159C407.228 228.159 406.284 227.928 405.451 227.466C404.621 227 403.966 226.322 403.485 225.432C403.004 224.542 402.763 223.458 402.763 222.182C402.763 220.902 403.008 219.816 403.496 218.926C403.985 218.036 404.646 217.36 405.479 216.898C406.313 216.436 407.246 216.205 408.281 216.205C408.985 216.205 409.637 216.303 410.235 216.5C410.834 216.693 411.36 216.977 411.815 217.352C412.269 217.723 412.638 218.18 412.923 218.722C413.207 219.263 413.383 219.883 413.451 220.58ZM417.521 228.148C416.964 228.148 416.469 228.055 416.038 227.869C415.61 227.68 415.271 227.396 415.021 227.017C414.774 226.634 414.651 226.155 414.651 225.58C414.651 225.095 414.737 224.686 414.907 224.352C415.077 224.019 415.312 223.748 415.612 223.54C415.911 223.331 416.255 223.174 416.646 223.068C417.036 222.958 417.452 222.884 417.896 222.847C418.392 222.801 418.791 222.754 419.094 222.705C419.397 222.652 419.617 222.578 419.754 222.483C419.894 222.384 419.964 222.246 419.964 222.068V222.04C419.964 221.748 419.863 221.523 419.663 221.364C419.462 221.205 419.191 221.125 418.85 221.125C418.483 221.125 418.187 221.205 417.964 221.364C417.74 221.523 417.598 221.742 417.538 222.023L414.975 221.932C415.051 221.402 415.246 220.928 415.56 220.511C415.879 220.091 416.314 219.761 416.867 219.523C417.424 219.28 418.093 219.159 418.873 219.159C419.43 219.159 419.943 219.225 420.413 219.358C420.882 219.487 421.291 219.676 421.64 219.926C421.988 220.172 422.257 220.475 422.447 220.835C422.64 221.195 422.737 221.606 422.737 222.068V228H420.123V226.784H420.055C419.899 227.08 419.701 227.33 419.458 227.534C419.219 227.739 418.937 227.892 418.612 227.994C418.29 228.097 417.926 228.148 417.521 228.148ZM418.379 226.33C418.678 226.33 418.947 226.269 419.185 226.148C419.428 226.027 419.621 225.86 419.765 225.648C419.909 225.432 419.981 225.182 419.981 224.898V224.068C419.901 224.11 419.805 224.148 419.691 224.182C419.581 224.216 419.46 224.248 419.327 224.278C419.195 224.309 419.058 224.335 418.918 224.358C418.778 224.381 418.644 224.402 418.515 224.42C418.254 224.462 418.03 224.527 417.844 224.614C417.663 224.701 417.522 224.814 417.424 224.955C417.329 225.091 417.282 225.254 417.282 225.443C417.282 225.731 417.384 225.951 417.589 226.102C417.797 226.254 418.06 226.33 418.379 226.33ZM424.435 228V219.273H427.134V220.864H427.225C427.384 220.288 427.644 219.86 428.004 219.58C428.363 219.295 428.782 219.153 429.259 219.153C429.388 219.153 429.521 219.163 429.657 219.182C429.793 219.197 429.92 219.222 430.038 219.256V221.67C429.905 221.625 429.731 221.589 429.515 221.562C429.303 221.536 429.113 221.523 428.947 221.523C428.617 221.523 428.32 221.597 428.055 221.744C427.793 221.888 427.587 222.091 427.435 222.352C427.288 222.61 427.214 222.913 427.214 223.261V228H424.435ZM431.17 228V219.273H433.869V220.864H433.96C434.119 220.288 434.378 219.86 434.738 219.58C435.098 219.295 435.516 219.153 435.994 219.153C436.122 219.153 436.255 219.163 436.391 219.182C436.528 219.197 436.655 219.222 436.772 219.256V221.67C436.639 221.625 436.465 221.589 436.249 221.562C436.037 221.536 435.848 221.523 435.681 221.523C435.352 221.523 435.054 221.597 434.789 221.744C434.528 221.888 434.321 222.091 434.17 222.352C434.022 222.61 433.948 222.913 433.948 223.261V228H431.17ZM443.237 219.273V221.318H437.731V219.273H443.237ZM438.884 217.182H441.663V225.256C441.663 225.426 441.689 225.564 441.742 225.67C441.799 225.773 441.88 225.847 441.987 225.892C442.093 225.934 442.219 225.955 442.367 225.955C442.473 225.955 442.585 225.945 442.702 225.926C442.824 225.903 442.915 225.884 442.975 225.869L443.396 227.875C443.263 227.913 443.076 227.96 442.833 228.017C442.594 228.074 442.308 228.11 441.975 228.125C441.324 228.155 440.765 228.08 440.299 227.898C439.837 227.712 439.483 227.424 439.237 227.034C438.994 226.644 438.877 226.153 438.884 225.562V217.182ZM446.353 231.273C446.02 231.273 445.705 231.246 445.41 231.193C445.114 231.144 444.861 231.078 444.648 230.994L445.262 228.977C445.535 229.068 445.781 229.121 446.001 229.136C446.224 229.152 446.415 229.116 446.575 229.028C446.737 228.945 446.862 228.795 446.95 228.58L447.058 228.318L443.955 219.273H446.864L448.472 225.5H448.563L450.194 219.273H453.12L449.83 228.835C449.671 229.313 449.446 229.733 449.154 230.097C448.866 230.464 448.493 230.752 448.035 230.96C447.58 231.169 447.02 231.273 446.353 231.273Z" fill="black"/>
<path d="M402.6 135.364H405.373V143.409C405.369 144.163 405.189 144.822 404.833 145.386C404.477 145.947 403.985 146.383 403.356 146.693C402.731 147.004 402.007 147.159 401.185 147.159C400.458 147.159 399.797 147.032 399.202 146.778C398.612 146.525 398.14 146.131 397.788 145.597C397.439 145.062 397.267 144.379 397.271 143.545H400.072C400.083 143.845 400.14 144.1 400.242 144.312C400.348 144.521 400.494 144.678 400.68 144.784C400.865 144.89 401.087 144.943 401.344 144.943C401.613 144.943 401.841 144.886 402.026 144.773C402.212 144.655 402.352 144.483 402.447 144.256C402.545 144.028 402.596 143.746 402.6 143.409V135.364ZM411.212 147.165C410.296 147.165 409.508 146.977 408.849 146.602C408.193 146.223 407.688 145.697 407.332 145.023C406.979 144.345 406.803 143.559 406.803 142.665C406.803 141.767 406.979 140.981 407.332 140.307C407.688 139.629 408.193 139.102 408.849 138.727C409.508 138.348 410.296 138.159 411.212 138.159C412.129 138.159 412.915 138.348 413.57 138.727C414.229 139.102 414.735 139.629 415.087 140.307C415.443 140.981 415.621 141.767 415.621 142.665C415.621 143.559 415.443 144.345 415.087 145.023C414.735 145.697 414.229 146.223 413.57 146.602C412.915 146.977 412.129 147.165 411.212 147.165ZM411.229 145.068C411.563 145.068 411.845 144.966 412.076 144.761C412.307 144.557 412.483 144.273 412.604 143.909C412.729 143.545 412.792 143.125 412.792 142.648C412.792 142.163 412.729 141.739 412.604 141.375C412.483 141.011 412.307 140.727 412.076 140.523C411.845 140.318 411.563 140.216 411.229 140.216C410.885 140.216 410.593 140.318 410.354 140.523C410.12 140.727 409.94 141.011 409.815 141.375C409.693 141.739 409.633 142.163 409.633 142.648C409.633 143.125 409.693 143.545 409.815 143.909C409.94 144.273 410.12 144.557 410.354 144.761C410.593 144.966 410.885 145.068 411.229 145.068ZM424.664 140.938L422.113 141.006C422.086 140.824 422.014 140.663 421.897 140.523C421.78 140.379 421.626 140.267 421.437 140.188C421.251 140.104 421.035 140.062 420.789 140.062C420.467 140.062 420.192 140.127 419.965 140.256C419.742 140.384 419.632 140.559 419.636 140.778C419.632 140.949 419.7 141.097 419.84 141.222C419.984 141.347 420.24 141.447 420.607 141.523L422.289 141.841C423.16 142.008 423.808 142.284 424.232 142.67C424.66 143.057 424.876 143.568 424.88 144.205C424.876 144.803 424.698 145.324 424.346 145.767C423.997 146.21 423.52 146.555 422.914 146.801C422.308 147.044 421.615 147.165 420.835 147.165C419.588 147.165 418.605 146.909 417.886 146.398C417.17 145.883 416.761 145.193 416.658 144.33L419.403 144.261C419.463 144.58 419.621 144.822 419.874 144.989C420.128 145.155 420.452 145.239 420.846 145.239C421.202 145.239 421.492 145.172 421.715 145.04C421.939 144.907 422.052 144.731 422.056 144.511C422.052 144.314 421.965 144.157 421.795 144.04C421.624 143.919 421.357 143.824 420.994 143.756L419.471 143.466C418.596 143.307 417.944 143.013 417.516 142.585C417.088 142.153 416.876 141.604 416.88 140.938C416.876 140.354 417.031 139.856 417.346 139.443C417.66 139.027 418.107 138.708 418.687 138.489C419.266 138.269 419.95 138.159 420.738 138.159C421.92 138.159 422.852 138.407 423.533 138.903C424.215 139.396 424.592 140.074 424.664 140.938ZM430.327 147.165C429.415 147.165 428.627 146.985 427.964 146.625C427.305 146.261 426.797 145.744 426.441 145.074C426.089 144.4 425.913 143.598 425.913 142.67C425.913 141.769 426.091 140.981 426.447 140.307C426.803 139.629 427.305 139.102 427.952 138.727C428.6 138.348 429.363 138.159 430.242 138.159C430.863 138.159 431.432 138.256 431.947 138.449C432.462 138.642 432.907 138.928 433.282 139.307C433.657 139.686 433.949 140.153 434.157 140.71C434.365 141.263 434.469 141.898 434.469 142.614V143.307H426.884V141.693H431.884C431.88 141.398 431.81 141.134 431.674 140.903C431.538 140.672 431.35 140.492 431.112 140.364C430.877 140.231 430.606 140.165 430.299 140.165C429.988 140.165 429.71 140.235 429.464 140.375C429.218 140.511 429.022 140.699 428.879 140.938C428.735 141.172 428.659 141.439 428.651 141.739V143.381C428.651 143.737 428.721 144.049 428.862 144.318C429.002 144.583 429.201 144.79 429.458 144.938C429.716 145.085 430.022 145.159 430.379 145.159C430.625 145.159 430.848 145.125 431.049 145.057C431.25 144.989 431.422 144.888 431.566 144.756C431.71 144.623 431.818 144.46 431.89 144.267L434.441 144.341C434.335 144.913 434.102 145.411 433.742 145.835C433.386 146.256 432.918 146.583 432.339 146.818C431.759 147.049 431.089 147.165 430.327 147.165ZM400.545 166V154.364H403.357V163.716H408.198V166H400.545ZM413.734 166.165C412.821 166.165 412.033 165.985 411.37 165.625C410.711 165.261 410.203 164.744 409.847 164.074C409.495 163.4 409.319 162.598 409.319 161.67C409.319 160.769 409.497 159.981 409.853 159.307C410.209 158.629 410.711 158.102 411.359 157.727C412.006 157.348 412.77 157.159 413.648 157.159C414.27 157.159 414.838 157.256 415.353 157.449C415.868 157.642 416.313 157.928 416.688 158.307C417.063 158.686 417.355 159.153 417.563 159.71C417.772 160.263 417.876 160.898 417.876 161.614V162.307H410.29V160.693H415.29C415.287 160.398 415.217 160.134 415.08 159.903C414.944 159.672 414.756 159.492 414.518 159.364C414.283 159.231 414.012 159.165 413.705 159.165C413.395 159.165 413.116 159.235 412.87 159.375C412.624 159.511 412.429 159.699 412.285 159.938C412.141 160.172 412.065 160.439 412.058 160.739V162.381C412.058 162.737 412.128 163.049 412.268 163.318C412.408 163.583 412.607 163.79 412.864 163.938C413.122 164.085 413.429 164.159 413.785 164.159C414.031 164.159 414.254 164.125 414.455 164.057C414.656 163.989 414.828 163.888 414.972 163.756C415.116 163.623 415.224 163.46 415.296 163.267L417.847 163.341C417.741 163.913 417.508 164.411 417.148 164.835C416.792 165.256 416.325 165.583 415.745 165.818C415.165 166.049 414.495 166.165 413.734 166.165ZM421.755 166.148C421.198 166.148 420.704 166.055 420.272 165.869C419.844 165.68 419.505 165.396 419.255 165.017C419.009 164.634 418.886 164.155 418.886 163.58C418.886 163.095 418.971 162.686 419.141 162.352C419.312 162.019 419.547 161.748 419.846 161.54C420.145 161.331 420.49 161.174 420.88 161.068C421.27 160.958 421.687 160.884 422.13 160.847C422.626 160.801 423.026 160.754 423.329 160.705C423.632 160.652 423.852 160.578 423.988 160.483C424.128 160.384 424.198 160.246 424.198 160.068V160.04C424.198 159.748 424.098 159.523 423.897 159.364C423.696 159.205 423.425 159.125 423.085 159.125C422.717 159.125 422.422 159.205 422.198 159.364C421.975 159.523 421.833 159.742 421.772 160.023L419.21 159.932C419.285 159.402 419.48 158.928 419.795 158.511C420.113 158.091 420.549 157.761 421.102 157.523C421.658 157.28 422.327 157.159 423.107 157.159C423.664 157.159 424.177 157.225 424.647 157.358C425.117 157.487 425.526 157.676 425.874 157.926C426.223 158.172 426.492 158.475 426.681 158.835C426.874 159.195 426.971 159.606 426.971 160.068V166H424.357V164.784H424.289C424.134 165.08 423.935 165.33 423.692 165.534C423.454 165.739 423.172 165.892 422.846 165.994C422.524 166.097 422.16 166.148 421.755 166.148ZM422.613 164.33C422.912 164.33 423.181 164.269 423.42 164.148C423.662 164.027 423.855 163.86 423.999 163.648C424.143 163.432 424.215 163.182 424.215 162.898V162.068C424.136 162.11 424.039 162.148 423.925 162.182C423.816 162.216 423.694 162.248 423.562 162.278C423.429 162.309 423.293 162.335 423.153 162.358C423.013 162.381 422.878 162.402 422.749 162.42C422.488 162.462 422.264 162.527 422.079 162.614C421.897 162.701 421.757 162.814 421.658 162.955C421.564 163.091 421.516 163.254 421.516 163.443C421.516 163.731 421.619 163.951 421.823 164.102C422.031 164.254 422.295 164.33 422.613 164.33ZM431.448 154.364V166H428.67V154.364H431.448Z" fill="black"/>
<path d="M390.138 86V74.3636H394.945C395.817 74.3636 396.568 74.5208 397.201 74.8352C397.837 75.1458 398.328 75.5928 398.673 76.1761C399.017 76.7557 399.19 77.4432 399.19 78.2386C399.19 79.0455 399.013 79.7311 398.661 80.2955C398.309 80.8561 397.809 81.2841 397.161 81.5795C396.513 81.8712 395.746 82.017 394.86 82.017H391.82V79.8011H394.337C394.762 79.8011 395.116 79.7462 395.4 79.6364C395.688 79.5227 395.906 79.3523 396.053 79.125C396.201 78.8939 396.275 78.5985 396.275 78.2386C396.275 77.8788 396.201 77.5814 396.053 77.3466C395.906 77.108 395.688 76.9299 395.4 76.8125C395.112 76.6913 394.758 76.6307 394.337 76.6307H392.951V86H390.138ZM396.69 80.6818L399.587 86H396.519L393.678 80.6818H396.69ZM403.192 86.1477C402.636 86.1477 402.141 86.0549 401.71 85.8693C401.281 85.6799 400.942 85.3958 400.692 85.017C400.446 84.6345 400.323 84.1553 400.323 83.5795C400.323 83.0947 400.408 82.6856 400.579 82.3523C400.749 82.0189 400.984 81.7481 401.283 81.5398C401.583 81.3314 401.927 81.1742 402.317 81.0682C402.708 80.9583 403.124 80.8845 403.567 80.8466C404.064 80.8011 404.463 80.7538 404.766 80.7045C405.069 80.6515 405.289 80.5777 405.425 80.483C405.566 80.3845 405.636 80.2462 405.636 80.0682V80.0398C405.636 79.7481 405.535 79.5227 405.335 79.3636C405.134 79.2045 404.863 79.125 404.522 79.125C404.155 79.125 403.859 79.2045 403.636 79.3636C403.412 79.5227 403.27 79.7424 403.21 80.0227L400.647 79.9318C400.723 79.4015 400.918 78.928 401.232 78.5114C401.55 78.0909 401.986 77.7614 402.539 77.5227C403.096 77.2803 403.764 77.1591 404.545 77.1591C405.102 77.1591 405.615 77.2254 406.085 77.358C406.554 77.4867 406.963 77.6761 407.312 77.9261C407.66 78.1723 407.929 78.4754 408.119 78.8352C408.312 79.1951 408.408 79.6061 408.408 80.0682V86H405.795V84.7841H405.727C405.571 85.0795 405.372 85.3295 405.13 85.5341C404.891 85.7386 404.609 85.892 404.283 85.9943C403.961 86.0966 403.598 86.1477 403.192 86.1477ZM404.05 84.3295C404.35 84.3295 404.619 84.2689 404.857 84.1477C405.1 84.0265 405.293 83.8598 405.437 83.6477C405.581 83.4318 405.653 83.1818 405.653 82.8977V82.0682C405.573 82.1098 405.477 82.1477 405.363 82.1818C405.253 82.2159 405.132 82.2481 404.999 82.2784C404.867 82.3087 404.73 82.3352 404.59 82.358C404.45 82.3807 404.316 82.4015 404.187 82.4205C403.925 82.4621 403.702 82.5265 403.516 82.6136C403.335 82.7008 403.194 82.8144 403.096 82.9545C403.001 83.0909 402.954 83.2538 402.954 83.4432C402.954 83.7311 403.056 83.9508 403.261 84.1023C403.469 84.2538 403.732 84.3295 404.05 84.3295ZM415.067 77.2727V79.3182H409.454V77.2727H415.067ZM410.624 86V76.8295C410.624 76.1553 410.751 75.5966 411.005 75.1534C411.259 74.7064 411.611 74.3731 412.062 74.1534C412.513 73.9299 413.033 73.8182 413.624 73.8182C414.011 73.8182 414.374 73.8485 414.715 73.9091C415.06 73.9659 415.316 74.017 415.482 74.0625L415.039 76.0966C414.937 76.0625 414.812 76.0341 414.664 76.0114C414.52 75.9886 414.384 75.9773 414.255 75.9773C413.929 75.9773 413.706 76.0492 413.585 76.1932C413.463 76.3371 413.403 76.5341 413.403 76.7841V86H410.624ZM418.521 86.1477C417.964 86.1477 417.469 86.0549 417.038 85.8693C416.61 85.6799 416.271 85.3958 416.021 85.017C415.774 84.6345 415.651 84.1553 415.651 83.5795C415.651 83.0947 415.737 82.6856 415.907 82.3523C416.077 82.0189 416.312 81.7481 416.612 81.5398C416.911 81.3314 417.255 81.1742 417.646 81.0682C418.036 80.9583 418.452 80.8845 418.896 80.8466C419.392 80.8011 419.791 80.7538 420.094 80.7045C420.397 80.6515 420.617 80.5777 420.754 80.483C420.894 80.3845 420.964 80.2462 420.964 80.0682V80.0398C420.964 79.7481 420.863 79.5227 420.663 79.3636C420.462 79.2045 420.191 79.125 419.85 79.125C419.483 79.125 419.187 79.2045 418.964 79.3636C418.74 79.5227 418.598 79.7424 418.538 80.0227L415.975 79.9318C416.051 79.4015 416.246 78.928 416.56 78.5114C416.879 78.0909 417.314 77.7614 417.867 77.5227C418.424 77.2803 419.093 77.1591 419.873 77.1591C420.43 77.1591 420.943 77.2254 421.413 77.358C421.882 77.4867 422.291 77.6761 422.64 77.9261C422.988 78.1723 423.257 78.4754 423.447 78.8352C423.64 79.1951 423.737 79.6061 423.737 80.0682V86H421.123V84.7841H421.055C420.899 85.0795 420.701 85.3295 420.458 85.5341C420.219 85.7386 419.937 85.892 419.612 85.9943C419.29 86.0966 418.926 86.1477 418.521 86.1477ZM419.379 84.3295C419.678 84.3295 419.947 84.2689 420.185 84.1477C420.428 84.0265 420.621 83.8598 420.765 83.6477C420.909 83.4318 420.981 83.1818 420.981 82.8977V82.0682C420.901 82.1098 420.805 82.1477 420.691 82.1818C420.581 82.2159 420.46 82.2481 420.327 82.2784C420.195 82.3087 420.058 82.3352 419.918 82.358C419.778 82.3807 419.644 82.4015 419.515 82.4205C419.254 82.4621 419.03 82.5265 418.844 82.6136C418.663 82.7008 418.522 82.8144 418.424 82.9545C418.329 83.0909 418.282 83.2538 418.282 83.4432C418.282 83.7311 418.384 83.9508 418.589 84.1023C418.797 84.2538 419.06 84.3295 419.379 84.3295ZM429.515 86.1648C428.602 86.1648 427.814 85.9848 427.151 85.625C426.492 85.2614 425.985 84.7443 425.629 84.0739C425.276 83.3996 425.1 82.5985 425.1 81.6705C425.1 80.7689 425.278 79.9811 425.634 79.3068C425.99 78.6288 426.492 78.1023 427.14 77.7273C427.788 77.3485 428.551 77.1591 429.43 77.1591C430.051 77.1591 430.619 77.2557 431.134 77.4489C431.649 77.642 432.094 77.928 432.469 78.3068C432.844 78.6856 433.136 79.1534 433.344 79.7102C433.553 80.2633 433.657 80.8977 433.657 81.6136V82.3068H426.072V80.6932H431.072C431.068 80.3977 430.998 80.1345 430.862 79.9034C430.725 79.6723 430.538 79.4924 430.299 79.3636C430.064 79.2311 429.793 79.1648 429.487 79.1648C429.176 79.1648 428.897 79.2348 428.651 79.375C428.405 79.5114 428.21 79.6989 428.066 79.9375C427.922 80.1723 427.846 80.4394 427.839 80.7386V82.3807C427.839 82.7367 427.909 83.0492 428.049 83.3182C428.189 83.5833 428.388 83.7898 428.646 83.9375C428.903 84.0852 429.21 84.1591 429.566 84.1591C429.812 84.1591 430.036 84.125 430.237 84.0568C430.437 83.9886 430.61 83.8883 430.754 83.7557C430.897 83.6231 431.005 83.4602 431.077 83.267L433.629 83.3409C433.522 83.9129 433.29 84.411 432.93 84.8352C432.574 85.2557 432.106 85.5833 431.526 85.8182C430.947 86.0492 430.276 86.1648 429.515 86.1648ZM437.854 74.3636V86H435.076V74.3636H437.854ZM393.443 93.3636H396.926L399.881 100.568H400.017L402.972 93.3636H406.455V105H403.716V97.8523H403.619L400.824 104.926H399.074L396.278 97.8125H396.182V105H393.443V93.3636ZM412.288 105.165C411.375 105.165 410.588 104.985 409.925 104.625C409.266 104.261 408.758 103.744 408.402 103.074C408.05 102.4 407.874 101.598 407.874 100.67C407.874 99.7689 408.052 98.9811 408.408 98.3068C408.764 97.6288 409.266 97.1023 409.913 96.7273C410.561 96.3485 411.324 96.1591 412.203 96.1591C412.824 96.1591 413.393 96.2557 413.908 96.4489C414.423 96.642 414.868 96.928 415.243 97.3068C415.618 97.6856 415.91 98.1534 416.118 98.7102C416.326 99.2633 416.43 99.8977 416.43 100.614V101.307H408.845V99.6932H413.845C413.841 99.3977 413.771 99.1345 413.635 98.9034C413.499 98.6723 413.311 98.4924 413.072 98.3636C412.838 98.2311 412.567 98.1648 412.26 98.1648C411.949 98.1648 411.671 98.2348 411.425 98.375C411.179 98.5114 410.983 98.6989 410.839 98.9375C410.696 99.1723 410.62 99.4394 410.612 99.7386V101.381C410.612 101.737 410.682 102.049 410.822 102.318C410.963 102.583 411.161 102.79 411.419 102.938C411.677 103.085 411.983 103.159 412.339 103.159C412.586 103.159 412.809 103.125 413.01 103.057C413.211 102.989 413.383 102.888 413.527 102.756C413.671 102.623 413.779 102.46 413.851 102.267L416.402 102.341C416.296 102.913 416.063 103.411 415.703 103.835C415.347 104.256 414.879 104.583 414.3 104.818C413.72 105.049 413.05 105.165 412.288 105.165ZM417.849 96.2727H420.628V105.364C420.628 106.083 420.48 106.655 420.185 107.08C419.893 107.504 419.48 107.809 418.946 107.994C418.412 108.18 417.781 108.273 417.054 108.273C416.955 108.273 416.863 108.271 416.776 108.267C416.688 108.263 416.594 108.259 416.491 108.256V106.148C416.56 106.155 416.62 106.161 416.673 106.165C416.726 106.169 416.779 106.17 416.832 106.17C417.215 106.17 417.48 106.098 417.628 105.955C417.776 105.814 417.849 105.598 417.849 105.307V96.2727ZM419.236 95.2557C418.846 95.2557 418.51 95.1269 418.23 94.8693C417.95 94.608 417.81 94.2936 417.81 93.9261C417.81 93.5625 417.95 93.2519 418.23 92.9943C418.51 92.733 418.846 92.6023 419.236 92.6023C419.63 92.6023 419.965 92.733 420.241 92.9943C420.522 93.2519 420.662 93.5625 420.662 93.9261C420.662 94.2936 420.522 94.608 420.241 94.8693C419.965 95.1269 419.63 95.2557 419.236 95.2557ZM422.396 105V96.2727H425.175V105H422.396ZM423.788 95.2557C423.398 95.2557 423.063 95.1269 422.783 94.8693C422.502 94.608 422.362 94.2936 422.362 93.9261C422.362 93.5625 422.502 93.2519 422.783 92.9943C423.063 92.733 423.398 92.6023 423.788 92.6023C424.182 92.6023 424.518 92.733 424.794 92.9943C425.074 93.2519 425.214 93.5625 425.214 93.9261C425.214 94.2936 425.074 94.608 424.794 94.8693C424.518 95.1269 424.182 95.2557 423.788 95.2557ZM429.403 105.148C428.847 105.148 428.352 105.055 427.92 104.869C427.492 104.68 427.153 104.396 426.903 104.017C426.657 103.634 426.534 103.155 426.534 102.58C426.534 102.095 426.619 101.686 426.79 101.352C426.96 101.019 427.195 100.748 427.494 100.54C427.794 100.331 428.138 100.174 428.528 100.068C428.919 99.9583 429.335 99.8845 429.778 99.8466C430.275 99.8011 430.674 99.7538 430.977 99.7045C431.28 99.6515 431.5 99.5777 431.636 99.483C431.777 99.3845 431.847 99.2462 431.847 99.0682V99.0398C431.847 98.7481 431.746 98.5227 431.545 98.3636C431.345 98.2045 431.074 98.125 430.733 98.125C430.366 98.125 430.07 98.2045 429.847 98.3636C429.623 98.5227 429.481 98.7424 429.42 99.0227L426.858 98.9318C426.934 98.4015 427.129 97.928 427.443 97.5114C427.761 97.0909 428.197 96.7614 428.75 96.5227C429.307 96.2803 429.975 96.1591 430.756 96.1591C431.313 96.1591 431.826 96.2254 432.295 96.358C432.765 96.4867 433.174 96.6761 433.523 96.9261C433.871 97.1723 434.14 97.4754 434.33 97.8352C434.523 98.1951 434.619 98.6061 434.619 99.0682V105H432.006V103.784H431.938C431.782 104.08 431.583 104.33 431.341 104.534C431.102 104.739 430.82 104.892 430.494 104.994C430.172 105.097 429.809 105.148 429.403 105.148ZM430.261 103.33C430.561 103.33 430.83 103.269 431.068 103.148C431.311 103.027 431.504 102.86 431.648 102.648C431.792 102.432 431.864 102.182 431.864 101.898V101.068C431.784 101.11 431.688 101.148 431.574 101.182C431.464 101.216 431.343 101.248 431.21 101.278C431.078 101.309 430.941 101.335 430.801 101.358C430.661 101.381 430.527 101.402 430.398 101.42C430.136 101.462 429.913 101.527 429.727 101.614C429.545 101.701 429.405 101.814 429.307 101.955C429.212 102.091 429.165 102.254 429.165 102.443C429.165 102.731 429.267 102.951 429.472 103.102C429.68 103.254 429.943 103.33 430.261 103.33Z" fill="black"/>
<path d="M34.8807 145.273H37.6591V154.364C37.6591 155.083 37.5114 155.655 37.2159 156.08C36.9242 156.504 36.5114 156.809 35.9773 156.994C35.4432 157.18 34.8125 157.273 34.0852 157.273C33.9867 157.273 33.8939 157.271 33.8068 157.267C33.7197 157.263 33.625 157.259 33.5227 157.256V155.148C33.5909 155.155 33.6515 155.161 33.7045 155.165C33.7576 155.169 33.8106 155.17 33.8636 155.17C34.2462 155.17 34.5114 155.098 34.6591 154.955C34.8068 154.814 34.8807 154.598 34.8807 154.307V145.273ZM36.267 144.256C35.8769 144.256 35.5417 144.127 35.2614 143.869C34.9811 143.608 34.8409 143.294 34.8409 142.926C34.8409 142.562 34.9811 142.252 35.2614 141.994C35.5417 141.733 35.8769 141.602 36.267 141.602C36.661 141.602 36.9962 141.733 37.2727 141.994C37.553 142.252 37.6932 142.562 37.6932 142.926C37.6932 143.294 37.553 143.608 37.2727 143.869C36.9962 144.127 36.661 144.256 36.267 144.256ZM42.206 142.364V154H39.4276V142.364H42.206ZM48.054 154.165C47.1411 154.165 46.3532 153.985 45.6903 153.625C45.0313 153.261 44.5237 152.744 44.1676 152.074C43.8153 151.4 43.6392 150.598 43.6392 149.67C43.6392 148.769 43.8172 147.981 44.1733 147.307C44.5294 146.629 45.0312 146.102 45.679 145.727C46.3267 145.348 47.09 145.159 47.9688 145.159C48.59 145.159 49.1581 145.256 49.6733 145.449C50.1884 145.642 50.6335 145.928 51.0085 146.307C51.3835 146.686 51.6752 147.153 51.8835 147.71C52.0919 148.263 52.196 148.898 52.196 149.614V150.307H44.6108V148.693H49.6108C49.607 148.398 49.5369 148.134 49.4006 147.903C49.2642 147.672 49.0767 147.492 48.8381 147.364C48.6032 147.231 48.3324 147.165 48.0256 147.165C47.715 147.165 47.4366 147.235 47.1903 147.375C46.9441 147.511 46.7491 147.699 46.6051 147.938C46.4612 148.172 46.3854 148.439 46.3778 148.739V150.381C46.3778 150.737 46.4479 151.049 46.5881 151.318C46.7282 151.583 46.9271 151.79 47.1847 151.938C47.4422 152.085 47.7491 152.159 48.1051 152.159C48.3513 152.159 48.5748 152.125 48.7756 152.057C48.9763 151.989 49.1487 151.888 49.2926 151.756C49.4366 151.623 49.5445 151.46 49.6165 151.267L52.1676 151.341C52.0616 151.913 51.8286 152.411 51.4688 152.835C51.1127 153.256 50.6449 153.583 50.0653 153.818C49.4858 154.049 48.8153 154.165 48.054 154.165ZM56.0753 154.148C55.5185 154.148 55.0241 154.055 54.5923 153.869C54.1643 153.68 53.8253 153.396 53.5753 153.017C53.3291 152.634 53.206 152.155 53.206 151.58C53.206 151.095 53.2912 150.686 53.4616 150.352C53.6321 150.019 53.867 149.748 54.1662 149.54C54.4654 149.331 54.8101 149.174 55.2003 149.068C55.5904 148.958 56.0071 148.884 56.4503 148.847C56.9465 148.801 57.3461 148.754 57.6491 148.705C57.9522 148.652 58.1719 148.578 58.3082 148.483C58.4484 148.384 58.5185 148.246 58.5185 148.068V148.04C58.5185 147.748 58.4181 147.523 58.2173 147.364C58.0166 147.205 57.7457 147.125 57.4048 147.125C57.0374 147.125 56.742 147.205 56.5185 147.364C56.295 147.523 56.1529 147.742 56.0923 148.023L53.5298 147.932C53.6056 147.402 53.8007 146.928 54.1151 146.511C54.4332 146.091 54.8688 145.761 55.4219 145.523C55.9787 145.28 56.6473 145.159 57.4276 145.159C57.9844 145.159 58.4976 145.225 58.9673 145.358C59.437 145.487 59.8461 145.676 60.1946 145.926C60.5431 146.172 60.812 146.475 61.0014 146.835C61.1946 147.195 61.2912 147.606 61.2912 148.068V154H58.6776V152.784H58.6094C58.4541 153.08 58.2552 153.33 58.0128 153.534C57.7741 153.739 57.492 153.892 57.1662 153.994C56.8442 154.097 56.4806 154.148 56.0753 154.148ZM56.9332 152.33C57.2325 152.33 57.5014 152.269 57.7401 152.148C57.9825 152.027 58.1757 151.86 58.3196 151.648C58.4635 151.432 58.5355 151.182 58.5355 150.898V150.068C58.456 150.11 58.3594 150.148 58.2457 150.182C58.1359 150.216 58.0147 150.248 57.8821 150.278C57.7495 150.309 57.6132 150.335 57.473 150.358C57.3329 150.381 57.1984 150.402 57.0696 150.42C56.8082 150.462 56.5848 150.527 56.3991 150.614C56.2173 150.701 56.0772 150.814 55.9787 150.955C55.884 151.091 55.8366 151.254 55.8366 151.443C55.8366 151.731 55.9389 151.951 56.1435 152.102C56.3518 152.254 56.6151 152.33 56.9332 152.33ZM65.7685 142.364V154H62.9901V142.364H65.7685ZM71.8949 142.205C72.5313 142.205 73.1392 142.309 73.7188 142.517C74.2983 142.722 74.8153 143.049 75.2699 143.5C75.7244 143.947 76.0824 144.536 76.3438 145.267C76.6051 145.998 76.7358 146.89 76.7358 147.943C76.7396 148.913 76.6259 149.782 76.3949 150.551C76.1638 151.316 75.8324 151.968 75.4006 152.506C74.9725 153.044 74.4574 153.455 73.8551 153.739C73.2528 154.019 72.5805 154.159 71.8381 154.159C71.0199 154.159 70.2983 154.002 69.6733 153.688C69.0521 153.369 68.554 152.941 68.179 152.403C67.8078 151.866 67.5862 151.263 67.5142 150.597H70.2812C70.3684 150.983 70.5521 151.275 70.8324 151.472C71.1127 151.665 71.4479 151.761 71.8381 151.761C72.5502 151.761 73.0824 151.453 73.4347 150.835C73.7869 150.218 73.9631 149.379 73.9631 148.318H73.8949C73.732 148.667 73.5009 148.966 73.2017 149.216C72.9063 149.466 72.5634 149.657 72.1733 149.79C71.7831 149.922 71.3722 149.989 70.9403 149.989C70.2434 149.989 69.6278 149.83 69.0938 149.511C68.5634 149.193 68.1468 148.756 67.8438 148.199C67.5445 147.642 67.393 147.006 67.3892 146.29C67.3854 145.487 67.5729 144.778 67.9517 144.165C68.3305 143.547 68.8589 143.066 69.5369 142.722C70.215 142.373 71.0009 142.201 71.8949 142.205ZM71.9119 144.364C71.5634 144.364 71.2528 144.445 70.9801 144.608C70.7112 144.771 70.4991 144.991 70.3438 145.267C70.1884 145.544 70.1127 145.854 70.1165 146.199C70.1203 146.544 70.1979 146.854 70.3494 147.131C70.5047 147.407 70.715 147.627 70.9801 147.79C71.2491 147.953 71.5559 148.034 71.9006 148.034C72.1581 148.034 72.3968 147.987 72.6165 147.892C72.8362 147.797 73.0275 147.667 73.1903 147.5C73.3532 147.33 73.4801 147.133 73.571 146.909C73.6657 146.686 73.7112 146.447 73.7074 146.193C73.7036 145.856 73.6241 145.549 73.4688 145.273C73.3134 144.996 73.0994 144.777 72.8267 144.614C72.5578 144.447 72.2528 144.364 71.9119 144.364Z" fill="black"/>
</svg>
